<?xml version="1.0" ?>
<svg height="240" version="1.1" width="240" xmlns="http://www.w3.org/2000/svg">
  <defs/>
  <g>
    <path d="M -10.0 -10.0 C -9.0 -10.0 240.0 0.0 241.0 0.0 C 242.0 0.0 240.0 240.0 241.0 240.0 C 241.0 241.0 0.0 240.0 0.0 241.0 C 0.0 240.0 0.0 241.0 -10.0 -10.0 L -10.0 -10.0" fill="rgb(226, 188, 138)" opacity="0.79097766" stroke-width="2.0"/>
    <path d="M 250.21458435058594 121.19902801513672 C 252.75279235839844 129.63265991210938 266.84613037109375 150.61683654785156 232.9589385986328 153.70962524414062 C 211.23487854003906 138.53363037109375 216.37852478027344 128.6598663330078 217.81285095214844 124.20567321777344 C 224.08522033691406 35.174957275390625 210.7167510986328 128.85601806640625 193.94863891601562 73.57221984863281 C 256.373291015625 73.7105484008789 254.67735290527344 73.27587890625 250.22549438476562 74.52095031738281 L 250.21458435058594 121.19902801513672" fill="rgb(4, 134, 145)" opacity="0.511864" stroke-width="2.0"/>
    <path d="M 146.9093475341797 -9.946824073791504 C 73.14620971679688 46.35878372192383 76.46471405029297 19.55563735961914 150.8481903076172 53.18412780761719 C 11.040897369384766 148.68174743652344 34.13125991821289 44.57108688354492 143.020263671875 -58.47477340698242 C 151.5735321044922 24.732501983642578 114.05615234375 10.337820053100586 163.14039611816406 41.02294921875 C 179.52259826660156 24.99188995361328 205.00733947753906 11.702336311340332 158.95126342773438 -35.43247604370117 L 146.9093475341797 -9.946824073791504" fill="rgb(224, 102, 83)" opacity="0.87737477" stroke-width="2.0"/>
    <path d="M 98.23558807373047 137.32235717773438 C 77.33895111083984 156.2117156982422 97.08104705810547 170.9143524169922 115.24254608154297 170.30673217773438 C 57.43872833251953 179.21334838867188 84.0560531616211 165.51084899902344 56.50742721557617 151.93191528320312 C 74.07076263427734 152.03297424316406 58.87533187866211 157.30714416503906 88.50102233886719 129.05523681640625 C 77.85289764404297 112.77312469482422 82.87525939941406 120.66838836669922 121.91014099121094 137.57156372070312 L 98.23558807373047 137.32235717773438" fill="rgb(123, 1, 41)" opacity="0.66110945" stroke-width="2.0"/>
    <path d="M 7.188726425170898 113.14008331298828 C 33.38821792602539 142.36984252929688 1.2112696170806885 135.51837158203125 10.496864318847656 79.7988052368164 C -21.581863403320312 104.28468322753906 -21.537355422973633 110.35369873046875 -7.891597747802734 123.70661926269531 C -6.930441379547119 108.61840057373047 -6.831696033477783 107.17762756347656 -9.119141578674316 94.63147735595703 C 21.830930709838867 73.7238540649414 -0.5438494682312012 77.07691192626953 39.58096694946289 98.06655883789062 L 7.188726425170898 113.14008331298828" fill="rgb(190, 5, 27)" opacity="0.58269906" stroke-width="2.0"/>
    <path d="M 165.34046936035156 -1.2399561405181885 C 170.18345642089844 -8.466825485229492 150.2696533203125 -2.3666396141052246 162.4767608642578 -26.01349639892578 C 147.82034301757812 -17.011302947998047 102.37983703613281 -46.91988754272461 57.74894332885742 15.486088752746582 C 148.49887084960938 37.90892791748047 172.2387237548828 61.26310348510742 199.2784423828125 96.7720947265625 C 216.44776916503906 -51.1916389465332 173.37269592285156 -27.004682540893555 173.4506072998047 -23.151315689086914 L 165.34046936035156 -1.2399561405181885" fill="rgb(255, 223, 152)" opacity="0.9011721" stroke-width="2.0"/>
    <path d="M 113.52705383300781 86.267822265625 C 111.83256530761719 86.68620300292969 114.6010513305664 83.03959655761719 117.30027770996094 90.465576171875 C 109.77962493896484 83.90217590332031 105.44892883300781 97.49662017822266 107.27941131591797 89.29375457763672 C 111.86975860595703 84.61066436767578 110.35371398925781 85.59616088867188 110.87213134765625 86.5006332397461 C 112.09961700439453 86.28450012207031 109.34868621826172 86.92567443847656 111.46739196777344 85.88689422607422 L 113.52705383300781 86.267822265625" fill="rgb(53, 9, 45)" opacity="0.97210616" stroke-width="2.0"/>
    <path d="M 18.953760147094727 136.51040649414062 C 38.418121337890625 137.33348083496094 45.65254592895508 135.13148498535156 14.249342918395996 135.60546875 C -0.4110155701637268 159.60154724121094 37.76477813720703 189.16485595703125 0.034802742302417755 180.20802307128906 C -13.266640663146973 115.96269226074219 -8.261838912963867 109.7032699584961 -21.673418045043945 102.9946517944336 C 4.282652378082275 110.4599609375 6.701394081115723 113.07782745361328 11.085339546203613 107.6430892944336 L 18.953760147094727 136.51040649414062" fill="rgb(31, 129, 141)" opacity="0.60362417" stroke-width="2.0"/>
    <path d="M 16.426101684570312 140.56185913085938 C 11.309030532836914 137.69627380371094 9.854220390319824 145.1884307861328 10.00151538848877 134.31837463378906 C 4.750314235687256 121.9388198852539 14.775349617004395 157.797119140625 7.3726887702941895 169.8695068359375 C -22.412616729736328 200.92092895507812 32.61075210571289 167.9662628173828 6.705061912536621 133.92892456054688 C 35.5997314453125 121.64291381835938 27.572355270385742 140.02450561523438 29.220714569091797 154.7273712158203 L 16.426101684570312 140.56185913085938" fill="rgb(63, 44, 111)" opacity="0.5599961" stroke-width="2.0"/>
    <path d="M 185.72750854492188 229.78297424316406 C 186.61825561523438 229.69210815429688 187.181396484375 229.00662231445312 186.3836669921875 228.54920959472656 C 186.010498046875 229.09036254882812 186.02540588378906 229.00389099121094 185.94056701660156 229.1636505126953 C 186.5552520751953 230.99656677246094 185.3857879638672 231.14515686035156 186.16146850585938 230.68325805664062 C 187.1263427734375 229.81597900390625 186.7064971923828 229.10006713867188 187.4903106689453 229.32232666015625 L 185.72750854492188 229.78297424316406" fill="rgb(117, 149, 0)" opacity="0.0" stroke-width="2.0"/>
    <path d="M 195.632080078125 51.724300384521484 C 147.76353454589844 85.19171142578125 184.50823974609375 87.59832763671875 176.3941650390625 40.8349609375 C 156.85333251953125 57.94198226928711 222.30422973632812 61.70901107788086 115.65779113769531 -5.043338775634766 C 235.123291015625 -39.01310729980469 273.1551513671875 -35.09180450439453 270.4713439941406 54.46067810058594 C 163.054443359375 62.785186767578125 160.98658752441406 64.11908721923828 198.88414001464844 48.18758773803711 L 195.632080078125 51.724300384521484" fill="rgb(253, 206, 109)" opacity="1.0" stroke-width="2.0"/>
    <path d="M 41.640846252441406 90.71339416503906 C 2.2197322845458984 89.02224731445312 12.86921501159668 68.43502044677734 9.63272476196289 110.98758697509766 C -22.700841903686523 106.78338623046875 -11.274454116821289 110.91111755371094 -10.151827812194824 113.5870590209961 C -10.604103088378906 75.6488037109375 -10.862227439880371 74.05906677246094 -3.0642855167388916 40.57123565673828 C 10.163290977478027 53.618141174316406 23.448339462280273 64.00391387939453 47.502933502197266 85.49407196044922 L 41.640846252441406 90.71339416503906" fill="rgb(0, 95, 125)" opacity="0.50845534" stroke-width="2.0"/>
    <path d="M 226.57334899902344 114.50244140625 C 218.40980529785156 157.67181396484375 193.25128173828125 114.436767578125 188.53468322753906 147.1506805419922 C 162.31312561035156 136.55224609375 216.1155548095703 123.82015228271484 159.21998596191406 107.49008178710938 C 178.37925720214844 145.3950958251953 196.01332092285156 173.5932159423828 182.74070739746094 89.47196960449219 C 207.1123504638672 60.06216812133789 209.76260375976562 53.2195930480957 205.13412475585938 90.85221862792969 L 226.57334899902344 114.50244140625" fill="rgb(242, 255, 226)" opacity="1.0" stroke-width="2.0"/>
    <path d="M 224.64186096191406 57.058963775634766 C 210.38560485839844 73.24641418457031 230.94046020507812 126.79424285888672 210.3025665283203 101.94035339355469 C 159.55181884765625 104.38240814208984 177.7012176513672 94.37395477294922 182.82582092285156 86.16958618164062 C 194.0482635498047 72.07449340820312 196.33709716796875 68.96484375 202.08642578125 60.82870864868164 C 217.3641357421875 42.548057556152344 210.2805938720703 41.37810134887695 248.61392211914062 55.75015640258789 L 224.64186096191406 57.058963775634766" fill="rgb(31, 0, 48)" opacity="0.66320074" stroke-width="2.0"/>
    <path d="M 140.08718872070312 215.10394287109375 C 172.31344604492188 199.1796417236328 151.8557586669922 223.9774169921875 137.847900390625 225.4774627685547 C 122.61378479003906 243.7004852294922 132.20303344726562 184.13348388671875 116.99007415771484 193.8818817138672 C 114.38837432861328 202.25897216796875 73.38687133789062 214.40338134765625 85.84451293945312 188.4561004638672 C 106.0980453491211 195.08920288085938 146.611572265625 175.0749969482422 134.61036682128906 194.78196716308594 L 140.08718872070312 215.10394287109375" fill="rgb(45, 83, 107)" opacity="0.686088" stroke-width="2.0"/>
    <path d="M 118.68346405029297 189.79443359375 C 74.81132507324219 183.27650451660156 101.62186431884766 167.77334594726562 82.61918640136719 174.3495635986328 C 86.43028259277344 170.3165283203125 51.63984298706055 176.8350830078125 83.90035247802734 176.2950439453125 C 49.11417770385742 162.988525390625 60.59521484375 189.48434448242188 57.37767028808594 140.92153930664062 C 89.82353210449219 167.35699462890625 49.35444259643555 172.3649139404297 108.74862670898438 162.562744140625 L 118.68346405029297 189.79443359375" fill="rgb(97, 17, 0)" opacity="0.2364914" stroke-width="2.0"/>
    <path d="M 79.90103912353516 190.97756958007812 C 30.68340301513672 174.599365234375 23.77320671081543 191.41773986816406 37.13673782348633 207.76657104492188 C 7.912027835845947 208.12307739257812 0.6388038396835327 202.54612731933594 -15.535429000854492 217.03871154785156 C 2.333214521408081 193.38009643554688 0.3194171190261841 220.92237854003906 8.561201095581055 199.35198974609375 C 62.2911491394043 182.690185546875 43.00788497924805 159.95269775390625 84.23844909667969 189.920654296875 L 79.90103912353516 190.97756958007812" fill="rgb(205, 52, 47)" opacity="0.5942679" stroke-width="2.0"/>
    <path d="M 94.5660400390625 12.31948471069336 C 94.48698425292969 11.46668815612793 95.9481430053711 12.422151565551758 97.31429290771484 11.742111206054688 C 95.17805480957031 10.804666519165039 95.21723937988281 10.71684741973877 93.85725402832031 9.611008644104004 C 94.89864349365234 11.126617431640625 96.08293914794922 10.777372360229492 97.41670227050781 11.42522144317627 C 95.12732696533203 9.047711372375488 93.36904907226562 8.391701698303223 92.20101928710938 10.365731239318848 L 94.5660400390625 12.31948471069336" fill="rgb(100, 35, 134)" opacity="0.0" stroke-width="2.0"/>
    <path d="M 251.698974609375 189.3959503173828 C 249.49072265625 186.41134643554688 248.69256591796875 163.40077209472656 232.36041259765625 179.9828643798828 C 218.7278289794922 187.44639587402344 109.36671447753906 173.92005920410156 197.72195434570312 173.7715606689453 C 206.87814331054688 182.630126953125 204.67576599121094 85.17549896240234 210.41531372070312 158.9423828125 C 239.0384979248047 164.1927032470703 192.22531127929688 123.87908935546875 235.3338165283203 162.8153076171875 L 251.698974609375 189.3959503173828" fill="rgb(47, 6, 60)" opacity="0.79739106" stroke-width="2.0"/>
    <path d="M 48.2878532409668 138.1300048828125 C 40.14997100830078 135.91908264160156 34.62534713745117 120.3544692993164 24.379459381103516 116.88793182373047 C -5.604830265045166 105.34962463378906 12.614490509033203 107.73294830322266 17.59300422668457 110.45780944824219 C 24.022371292114258 24.214811325073242 -42.13898849487305 48.72263717651367 17.833770751953125 81.856201171875 C 5.215099811553955 45.36513900756836 9.354228973388672 61.904693603515625 33.81407165527344 78.16293334960938 L 48.2878532409668 138.1300048828125" fill="rgb(88, 97, 117)" opacity="0.7353553" stroke-width="2.0"/>
    <path d="M 128.74169921875 206.7010498046875 C 123.59892272949219 191.69407653808594 126.04295349121094 188.4448699951172 113.35536193847656 195.8853759765625 C 125.4441909790039 175.3610076904297 121.02713775634766 177.99456787109375 242.209716796875 183.57431030273438 C 102.24850463867188 203.9801788330078 53.800655364990234 274.6897277832031 86.1727294921875 203.16822814941406 C 126.11673736572266 206.0836181640625 108.84356689453125 182.4301300048828 123.93848419189453 193.78277587890625 L 128.74169921875 206.7010498046875" fill="rgb(250, 163, 14)" opacity="0.36888433" stroke-width="2.0"/>
    <path d="M 72.92242431640625 150.29702758789062 C 47.431758880615234 167.30953979492188 49.68256759643555 207.2759246826172 50.028377532958984 143.47642517089844 C 27.849369049072266 158.51524353027344 24.28425407409668 178.44015502929688 29.051786422729492 140.5008087158203 C 25.59012222290039 123.9626693725586 19.1539363861084 136.07171630859375 41.064491271972656 130.2305450439453 C 20.316730499267578 112.95074462890625 30.919925689697266 77.38671112060547 71.46869659423828 108.8812255859375 L 72.92242431640625 150.29702758789062" fill="rgb(90, 161, 146)" opacity="0.45434368" stroke-width="2.0"/>
    <path d="M 226.95826721191406 146.82357788085938 C 199.87132263183594 145.99827575683594 220.9689178466797 141.0364532470703 209.07763671875 174.448974609375 C 160.3580780029297 183.2892303466797 190.87716674804688 193.362548828125 184.57302856445312 129.85861206054688 C 175.3055419921875 128.10365295410156 179.33990478515625 129.4788818359375 179.18922424316406 130.09072875976562 C 190.2409210205078 127.0431137084961 201.40362548828125 122.76313781738281 219.5227813720703 116.42847442626953 L 226.95826721191406 146.82357788085938" fill="rgb(109, 0, 73)" opacity="0.62167245" stroke-width="2.0"/>
    <path d="M 202.50473022460938 16.984649658203125 C 201.6636962890625 16.857030868530273 203.77499389648438 17.916589736938477 202.0035400390625 16.893068313598633 C 201.6166534423828 17.232988357543945 200.86300659179688 17.07078742980957 202.02308654785156 17.030517578125 C 202.33755493164062 16.58284568786621 201.8396453857422 15.943541526794434 202.2457275390625 16.893213272094727 C 201.8145294189453 15.985283851623535 202.8600311279297 17.16482162475586 200.99745178222656 17.127174377441406 L 202.50473022460938 16.984649658203125" fill="rgb(153, 65, 101)" opacity="0.024209803" stroke-width="2.0"/>
    <path d="M 161.03053283691406 74.17886352539062 C 200.18898010253906 40.95231628417969 221.4971160888672 22.02847671508789 164.56085205078125 112.31302642822266 C 134.91712951660156 112.55908966064453 195.1358642578125 17.79789924621582 176.96751403808594 25.217161178588867 C 142.52780151367188 65.02906799316406 156.6160125732422 50.53042221069336 180.84693908691406 28.26430892944336 C 162.89483642578125 73.05841064453125 177.8128662109375 62.567867279052734 129.4996337890625 28.526691436767578 L 161.03053283691406 74.17886352539062" fill="rgb(251, 223, 174)" opacity="1.0" stroke-width="2.0"/>
    <path d="M 182.82015991210938 101.98008728027344 C 215.36119079589844 89.62349700927734 187.70777893066406 98.69100189208984 189.43869018554688 120.53076171875 C 172.61798095703125 80.61814880371094 193.8795623779297 95.35745239257812 215.31507873535156 44.674163818359375 C 177.3181610107422 98.2428207397461 167.80780029296875 100.95862579345703 180.1226043701172 98.54979705810547 C 197.63108825683594 107.95221710205078 237.30606079101562 65.31092834472656 225.91456604003906 55.918670654296875 L 182.82015991210938 101.98008728027344" fill="rgb(112, 154, 146)" opacity="1.0" stroke-width="2.0"/>
    <path d="M 115.91742706298828 180.93080139160156 C 108.47809600830078 183.92494201660156 154.2138671875 178.20542907714844 135.45970153808594 187.11257934570312 C 75.20787811279297 186.94131469726562 103.27291107177734 175.249267578125 80.36978149414062 162.27105712890625 C 68.99913787841797 164.98855590820312 63.14793014526367 147.54745483398438 88.46227264404297 168.42149353027344 C 86.22386932373047 119.51841735839844 129.16717529296875 127.7056655883789 89.77951049804688 151.93072509765625 L 115.91742706298828 180.93080139160156" fill="rgb(249, 107, 103)" opacity="0.6481493" stroke-width="2.0"/>
    <path d="M 108.15782165527344 193.09732055664062 C 100.26140594482422 191.4249725341797 97.55785369873047 193.07643127441406 100.96283721923828 194.89854431152344 C 91.75623321533203 192.84640502929688 92.2303695678711 193.7884979248047 97.50581359863281 193.6261444091797 C 82.9695816040039 194.38389587402344 92.82556915283203 198.66197204589844 98.1726303100586 211.63214111328125 C 98.5600814819336 196.861083984375 99.47938537597656 197.9418487548828 103.6919174194336 197.3334197998047 L 108.15782165527344 193.09732055664062" fill="rgb(98, 57, 65)" opacity="0.0" stroke-width="2.0"/>
    <path d="M 215.51351928710938 118.60350036621094 C 169.9969024658203 134.61105346679688 209.63397216796875 180.17918395996094 179.86643981933594 181.04348754882812 C 142.21946716308594 175.51905822753906 171.4507598876953 197.8605499267578 167.57232666015625 121.50698852539062 C 127.51665496826172 122.14085388183594 184.68702697753906 93.67877197265625 169.38302612304688 137.8074951171875 C 181.32839965820312 134.85963439941406 165.22239685058594 150.70370483398438 170.0286407470703 133.51119995117188 L 215.51351928710938 118.60350036621094" fill="rgb(0, 32, 49)" opacity="0.4222163" stroke-width="2.0"/>
    <path d="M 46.9578971862793 66.48067474365234 C 50.62061309814453 114.9915542602539 41.82618713378906 67.41038513183594 37.43596649169922 87.49162292480469 C 42.022605895996094 86.69970703125 68.67261505126953 97.94790649414062 22.59375762939453 92.04780578613281 C -1.0680291652679443 49.82036590576172 -31.26766014099121 81.77197265625 -2.449714422225952 48.47550964355469 C 72.25083923339844 61.574729919433594 37.27434539794922 71.63541412353516 17.94137954711914 81.06391143798828 L 46.9578971862793 66.48067474365234" fill="rgb(97, 170, 141)" opacity="0.24603102" stroke-width="2.0"/>
    <path d="M 119.35226440429688 106.13866424560547 C 118.39283752441406 101.22789001464844 119.13063049316406 111.19886016845703 115.9001235961914 111.20455932617188 C 120.38280487060547 109.72671508789062 110.39380645751953 117.73957824707031 110.88375091552734 104.2503662109375 C 109.40055084228516 106.4872055053711 110.22183227539062 106.39359283447266 111.15611267089844 103.55226135253906 C 109.86231994628906 97.72322082519531 116.12814331054688 92.14476013183594 118.145751953125 101.20195770263672 L 119.35226440429688 106.13866424560547" fill="rgb(38, 0, 43)" opacity="0.8553951" stroke-width="2.0"/>
    <path d="M 61.556968688964844 144.5460968017578 C 45.486663818359375 120.37873840332031 7.122793674468994 174.92784118652344 73.16638946533203 127.08504486083984 C 37.962303161621094 128.0832977294922 65.10661315917969 195.04827880859375 47.42275619506836 149.18296813964844 C 38.64469528198242 51.239585876464844 26.928741455078125 133.64773559570312 32.20109558105469 94.3759765625 C 57.40019607543945 102.3992919921875 93.17058563232422 122.96685791015625 60.745880126953125 110.16594696044922 L 61.556968688964844 144.5460968017578" fill="rgb(136, 138, 127)" opacity="1.0" stroke-width="2.0"/>
    <path d="M 225.2336883544922 175.0692596435547 C 215.36610412597656 187.0002899169922 230.47032165527344 184.76025390625 216.16099548339844 181.36004638671875 C 160.8140411376953 178.2420196533203 170.60433959960938 179.98011779785156 154.03121948242188 179.89503479003906 C 207.70797729492188 167.57371520996094 185.94651794433594 192.24685668945312 192.63250732421875 132.9592742919922 C 233.1857147216797 135.14663696289062 222.49105834960938 128.09352111816406 216.47076416015625 163.08326721191406 L 225.2336883544922 175.0692596435547" fill="rgb(226, 0, 0)" opacity="0.3472888" stroke-width="2.0"/>
    <path d="M 84.7108154296875 106.60517883300781 C 19.768381118774414 108.76496124267578 88.09943389892578 40.20561599731445 -6.849292278289795 23.474422454833984 C -17.04361915588379 -9.755232810974121 -7.131412982940674 -16.325878143310547 37.58920669555664 -11.759757041931152 C 18.83176612854004 -3.2588553428649902 20.801288604736328 -8.594500541687012 53.664146423339844 -7.722105503082275 C 55.66140365600586 0.7227235436439514 66.70860290527344 -22.173553466796875 60.43294143676758 6.104641437530518 L 84.7108154296875 106.60517883300781" fill="rgb(255, 227, 178)" opacity="0.99236155" stroke-width="2.0"/>
    <path d="M 260.63970947265625 68.26823425292969 C 260.25640869140625 69.97755432128906 243.9767608642578 76.0351333618164 198.39801025390625 75.34119415283203 C 181.0201873779297 97.57608032226562 175.16473388671875 108.63286590576172 203.92848205566406 78.00716400146484 C 191.23583984375 64.27176666259766 214.40419006347656 58.00131607055664 214.63539123535156 38.130401611328125 C 264.52142333984375 35.22576904296875 232.51834106445312 41.997047424316406 244.27755737304688 65.56008911132812 L 260.63970947265625 68.26823425292969" fill="rgb(95, 153, 152)" opacity="0.7968963" stroke-width="2.0"/>
    <path d="M 45.60639190673828 194.63323974609375 C 47.8577766418457 193.6031951904297 46.83363723754883 195.30401611328125 46.78386306762695 194.12911987304688 C 47.1696891784668 195.14593505859375 46.036048889160156 193.3447265625 45.94886779785156 196.05010986328125 C 46.70083236694336 193.75698852539062 46.40509033203125 194.89549255371094 45.22941207885742 193.59999084472656 C 45.83559799194336 194.52452087402344 45.08018112182617 194.9412078857422 47.820613861083984 194.34771728515625 L 45.60639190673828 194.63323974609375" fill="rgb(111, 187, 109)" opacity="0.0" stroke-width="2.0"/>
    <path d="M 155.02029418945312 57.94034957885742 C 180.3984375 105.16046905517578 73.33149719238281 53.37879943847656 100.08100128173828 118.81085205078125 C 83.30844116210938 112.12290954589844 92.26628112792969 147.29974365234375 64.51817321777344 102.86432647705078 C 52.693572998046875 79.66744995117188 68.97978973388672 55.947811126708984 71.80105590820312 53.438968658447266 C 92.59848022460938 134.3491668701172 70.44477844238281 55.50148010253906 131.842041015625 54.59599685668945 L 155.02029418945312 57.94034957885742" fill="rgb(86, 0, 38)" opacity="0.7502994" stroke-width="2.0"/>
    <path d="M 210.52081298828125 48.607051849365234 C 191.59469604492188 33.357872009277344 202.5146484375 46.433162689208984 206.54391479492188 48.430503845214844 C 199.4268798828125 50.92652893066406 208.02696228027344 44.46245574951172 180.58154296875 61.221458435058594 C 169.16925048828125 64.22071838378906 184.27000427246094 99.28319549560547 184.99961853027344 78.5160903930664 C 187.0026397705078 81.35052490234375 180.09625244140625 87.57710266113281 187.84364318847656 79.95761108398438 L 210.52081298828125 48.607051849365234" fill="rgb(254, 206, 104)" opacity="0.6467739" stroke-width="2.0"/>
    <path d="M 248.14845275878906 167.82957458496094 C 245.95359802246094 170.8197021484375 246.14376831054688 172.7930145263672 255.93280029296875 166.6896209716797 C 249.1495819091797 156.09011840820312 277.88720703125 188.73597717285156 233.88230895996094 179.01663208007812 C 206.789306640625 114.54413604736328 228.9242401123047 180.5335693359375 220.0283966064453 116.06538391113281 C 243.5123748779297 94.56226348876953 273.9662780761719 123.2474594116211 251.63973999023438 140.25401306152344 L 248.14845275878906 167.82957458496094" fill="rgb(202, 255, 207)" opacity="0.6352726" stroke-width="2.0"/>
    <path d="M 75.30474090576172 179.18104553222656 C 28.880998611450195 181.6910858154297 3.0880231857299805 182.12579345703125 -17.234098434448242 181.82440185546875 C -5.36448860168457 183.09754943847656 -9.380744934082031 180.40652465820312 -11.602230072021484 177.7203369140625 C -11.486936569213867 173.15472412109375 -11.379351615905762 158.75991821289062 4.436273097991943 161.20237731933594 C 42.25352096557617 180.5889892578125 39.839744567871094 115.5269546508789 40.55864715576172 173.65127563476562 L 75.30474090576172 179.18104553222656" fill="rgb(102, 255, 243)" opacity="0.7640782" stroke-width="2.0"/>
    <path d="M 142.5314178466797 178.3663330078125 C 129.06968688964844 193.01260375976562 129.46092224121094 190.5509796142578 133.8651580810547 178.94129943847656 C 114.23773956298828 184.85963439941406 122.94010925292969 196.4521484375 93.03150939941406 180.9270477294922 C 72.88652801513672 132.81057739257812 118.2774429321289 137.37741088867188 95.65794372558594 122.92145538330078 C 145.13075256347656 140.5456085205078 152.0371856689453 120.57706451416016 131.2178955078125 143.91317749023438 L 142.5314178466797 178.3663330078125" fill="rgb(239, 0, 18)" opacity="0.40365645" stroke-width="2.0"/>
    <path d="M 36.019569396972656 102.2470932006836 C 38.98175811767578 110.98258209228516 33.94115447998047 64.86517333984375 36.75925064086914 106.79871368408203 C 43.92214584350586 107.84880065917969 40.199851989746094 109.083984375 40.1334114074707 108.36711883544922 C 41.622276306152344 107.11438751220703 40.988529205322266 122.85614776611328 40.69343566894531 120.63286590576172 C 40.51228713989258 120.33706665039062 41.50603485107422 122.1170654296875 36.01143264770508 120.15656280517578 L 36.019569396972656 102.2470932006836" fill="rgb(148, 72, 78)" opacity="0.94806856" stroke-width="2.0"/>
    <path d="M 149.6651153564453 33.846336364746094 C 148.3909912109375 34.24781036376953 148.4529266357422 34.2646598815918 147.89794921875 34.4194450378418 C 146.67214965820312 34.802101135253906 147.54730224609375 34.533790588378906 149.26583862304688 33.98952102661133 C 147.26113891601562 34.58307647705078 149.19949340820312 34.05183792114258 147.4657440185547 34.56132507324219 C 148.78553771972656 34.18510437011719 148.2095947265625 34.27324295043945 146.9313507080078 34.73658752441406 L 149.6651153564453 33.846336364746094" fill="rgb(255, 123, 90)" opacity="0.0055557964" stroke-width="2.0"/>
    <path d="M 136.09230041503906 192.74302673339844 C 143.39694213867188 183.3336944580078 138.9665985107422 233.4999542236328 137.8688201904297 186.42361450195312 C 92.50511932373047 198.66468811035156 134.44174194335938 203.2323455810547 65.53639221191406 205.83729553222656 C 92.82267761230469 156.6029510498047 120.65787506103516 236.09884643554688 90.89476776123047 163.00758361816406 C 108.73815155029297 171.64305114746094 114.91407012939453 197.11647033691406 144.90133666992188 169.99020385742188 L 136.09230041503906 192.74302673339844" fill="rgb(107, 0, 47)" opacity="0.3456752" stroke-width="2.0"/>
    <path d="M 156.8282012939453 160.40557861328125 C 145.3870391845703 162.21682739257812 140.5542449951172 183.21356201171875 129.05181884765625 142.7706756591797 C 111.71266174316406 137.1689910888672 125.75556945800781 147.5755157470703 113.37996673583984 162.83096313476562 C 89.0698471069336 166.1895294189453 113.11804962158203 194.62408447265625 110.23612976074219 136.47293090820312 C 156.17599487304688 127.56592559814453 164.51629638671875 110.10755157470703 132.39317321777344 136.14120483398438 L 156.8282012939453 160.40557861328125" fill="rgb(110, 30, 65)" opacity="0.6102494" stroke-width="2.0"/>
    <path d="M 226.40675354003906 165.543701171875 C 233.08877563476562 263.2218322753906 125.26104736328125 121.10182189941406 141.06187438964844 205.6951446533203 C 164.3433837890625 208.27655029296875 151.2030792236328 217.51258850097656 143.5594024658203 229.0439910888672 C 162.18582153320312 205.46224975585938 119.8542709350586 254.12899780273438 124.9615249633789 198.23133850097656 C 54.85445022583008 201.58258056640625 54.4357795715332 297.58441162109375 278.5223083496094 234.7598419189453 L 226.40675354003906 165.543701171875" fill="rgb(252, 205, 107)" opacity="1.0" stroke-width="2.0"/>
    <path d="M 145.4139862060547 209.59352111816406 C 90.99706268310547 231.56448364257812 105.09679412841797 223.1840057373047 79.6554183959961 218.88304138183594 C 82.39089965820312 228.42100524902344 76.7256851196289 227.7318572998047 57.35506057739258 223.57345581054688 C 54.403160095214844 220.18380737304688 66.01628112792969 221.89910888671875 80.38842010498047 219.58489990234375 C 89.30294799804688 216.0957794189453 76.23320007324219 221.42320251464844 127.73779296875 226.2191162109375 L 145.4139862060547 209.59352111816406" fill="rgb(255, 132, 75)" opacity="0.5507288" stroke-width="2.0"/>
    <path d="M 106.62462615966797 19.37535858154297 C 106.39482116699219 19.663860321044922 106.11689758300781 20.159452438354492 106.41976165771484 19.661693572998047 C 106.95277404785156 19.162395477294922 105.99596405029297 18.942005157470703 108.01020812988281 21.266843795776367 C 106.33731842041016 19.455902099609375 106.81974029541016 18.983436584472656 103.83275604248047 15.287148475646973 C 105.43968200683594 17.186613082885742 106.77403259277344 19.639663696289062 106.58766174316406 19.288991928100586 L 106.62462615966797 19.37535858154297" fill="rgb(155, 254, 103)" opacity="0.087885275" stroke-width="2.0"/>
    <path d="M 189.8052215576172 176.9871063232422 C 133.7979736328125 177.15101623535156 215.5039520263672 180.18577575683594 178.8319091796875 179.95767211914062 C 157.40151977539062 176.67539978027344 134.93455505371094 184.28262329101562 156.7293701171875 169.27259826660156 C 138.5507049560547 100.43415832519531 167.68975830078125 212.98292541503906 156.88282775878906 100.87737274169922 C 183.3077392578125 140.1114501953125 148.36856079101562 153.05484008789062 190.6703338623047 130.38815307617188 L 189.8052215576172 176.9871063232422" fill="rgb(144, 189, 163)" opacity="0.6131872" stroke-width="2.0"/>
    <path d="M 58.787986755371094 171.1212615966797 C 82.1042251586914 170.08932495117188 53.63621139526367 172.1660614013672 87.7168197631836 180.2153778076172 C -27.37336540222168 184.4590301513672 38.682098388671875 181.23670959472656 9.378739356994629 173.64808654785156 C 24.599782943725586 154.03823852539062 15.287405014038086 134.17483520507812 9.245281219482422 119.66596984863281 C 17.24323844909668 138.74801635742188 58.23434066772461 128.40455627441406 60.49699020385742 153.01284790039062 L 58.787986755371094 171.1212615966797" fill="rgb(0, 20, 81)" opacity="0.30340636" stroke-width="2.0"/>
    <path d="M 179.05702209472656 129.7197723388672 C 225.70669555664062 141.6571502685547 186.9218292236328 125.49639892578125 172.35711669921875 132.4973907470703 C 168.30816650390625 90.98992156982422 178.83485412597656 122.07695770263672 158.18701171875 120.97714233398438 C 147.5242156982422 22.733924865722656 169.40110778808594 70.60258483886719 155.12486267089844 102.17877197265625 C 213.75079345703125 137.52120971679688 157.8690185546875 97.33161926269531 205.55935668945312 102.61176300048828 L 179.05702209472656 129.7197723388672" fill="rgb(8, 0, 21)" opacity="0.49188787" stroke-width="2.0"/>
    <path d="M 216.65084838867188 125.91957092285156 C 225.3368377685547 95.07514190673828 227.93008422851562 128.64222717285156 226.05758666992188 107.45381164550781 C 228.7380828857422 109.80143737792969 218.81430053710938 113.5031509399414 180.005859375 126.7518539428711 C 206.2835693359375 112.70294952392578 204.23143005371094 69.54606628417969 203.25628662109375 92.4056625366211 C 236.05120849609375 61.78314208984375 200.7400360107422 90.75888061523438 227.733642578125 115.98094177246094 L 216.65084838867188 125.91957092285156" fill="rgb(99, 78, 98)" opacity="0.7984295" stroke-width="2.0"/>
    <path d="M 47.635093688964844 53.90792465209961 C -0.8206742405891418 2.8614680767059326 16.411922454833984 -5.453089237213135 47.086875915527344 46.34410858154297 C 108.90558624267578 -3.04337477684021 136.42910766601562 -28.935087203979492 172.4423828125 31.45183753967285 C 34.3037223815918 -29.32048797607422 -14.131951332092285 -74.89347076416016 -2.9553017616271973 42.606361389160156 C 71.99771881103516 81.84953308105469 32.07305145263672 40.84980773925781 33.03462219238281 43.3521614074707 L 47.635093688964844 53.90792465209961" fill="rgb(253, 209, 119)" opacity="1.0" stroke-width="2.0"/>
    <path d="M 229.7082977294922 191.4872589111328 C 220.86807250976562 125.44805145263672 232.58518981933594 128.02096557617188 206.56503295898438 136.95025634765625 C 197.33468627929688 154.78140258789062 206.2740020751953 139.7308349609375 198.73211669921875 132.39654541015625 C 183.0322723388672 131.88877868652344 185.562255859375 169.7083740234375 185.2237548828125 94.62501525878906 C 198.89674377441406 133.9604949951172 155.4993896484375 137.92771911621094 227.05712890625 115.78321075439453 L 229.7082977294922 191.4872589111328" fill="rgb(115, 172, 158)" opacity="0.713583" stroke-width="2.0"/>
    <path d="M 250.26214599609375 183.2434539794922 C 242.13685607910156 184.4811248779297 250.8084716796875 183.26370239257812 236.5836181640625 182.08197021484375 C 187.75106811523438 180.2539825439453 118.37206268310547 176.2449188232422 202.14683532714844 174.80068969726562 C 200.24041748046875 116.7121353149414 209.38392639160156 102.0240478515625 207.66329956054688 160.45504760742188 C 244.04139709472656 162.59043884277344 193.1326904296875 147.02545166015625 254.3623504638672 147.03887939453125 L 250.26214599609375 183.2434539794922" fill="rgb(108, 165, 154)" opacity="0.8525367" stroke-width="2.0"/>
    <path d="M 248.74234008789062 145.11073303222656 C 249.53054809570312 150.34861755371094 251.14964294433594 154.9786834716797 274.29937744140625 150.9027862548828 C 180.44859313964844 145.63461303710938 226.8619384765625 140.14622497558594 207.74301147460938 166.65628051757812 C 197.82765197753906 116.7871322631836 186.15806579589844 130.60458374023438 220.11627197265625 115.84823608398438 C 224.18043518066406 109.20539855957031 250.38333129882812 104.55311584472656 248.4165496826172 109.015625 L 248.74234008789062 145.11073303222656" fill="rgb(52, 104, 119)" opacity="0.41440457" stroke-width="2.0"/>
    <path d="M 58.210296630859375 243.2359619140625 C 5.221499919891357 216.5043182373047 -37.52922058105469 193.9436798095703 93.49586486816406 177.90310668945312 C 48.95363998413086 194.68312072753906 130.3173065185547 290.46343994140625 93.94841003417969 261.9902038574219 C -21.191377639770508 204.7330780029297 2.3731017112731934 204.8529052734375 33.833770751953125 208.22865295410156 C 40.42261505126953 173.53338623046875 -51.841732025146484 190.3567352294922 -30.56580352783203 241.15834045410156 L 58.210296630859375 243.2359619140625" fill="rgb(255, 206, 99)" opacity="0.8689075" stroke-width="2.0"/>
    <path d="M 138.49595642089844 206.3657989501953 C 131.68350219726562 210.1762237548828 149.88633728027344 200.87452697753906 136.51803588867188 218.77520751953125 C 183.11697387695312 195.42723083496094 123.83491516113281 226.0373992919922 125.90035247802734 209.65921020507812 C 130.870361328125 177.90162658691406 78.65276336669922 188.9796142578125 134.94390869140625 185.76585388183594 C 144.01828002929688 199.8393096923828 139.0714569091797 206.07667541503906 139.59486389160156 210.92611694335938 L 138.49595642089844 206.3657989501953" fill="rgb(0, 22, 131)" opacity="0.3982624" stroke-width="2.0"/>
    <path d="M 51.79689407348633 182.37278747558594 C 76.32613372802734 95.44975280761719 72.7195053100586 224.53639221191406 -24.359195709228516 181.6995391845703 C 12.643651962280273 166.6598358154297 29.47220230102539 155.16554260253906 -37.91623306274414 163.54173278808594 C 1.6550014019012451 168.8013916015625 12.87922191619873 184.6412811279297 9.514942169189453 131.5974578857422 C 51.74287796020508 134.48170471191406 5.640536308288574 193.85948181152344 50.36063003540039 134.8846893310547 L 51.79689407348633 182.37278747558594" fill="rgb(144, 0, 0)" opacity="0.27625427" stroke-width="2.0"/>
    <path d="M 156.69895935058594 97.38863372802734 C 170.7991485595703 145.18658447265625 81.51998901367188 130.43453979492188 114.89544677734375 128.45530700683594 C 140.39601135253906 136.27809143066406 132.5341796875 133.5741424560547 104.9185562133789 130.15733337402344 C 132.88211059570312 127.82403564453125 130.2198028564453 137.88926696777344 116.23464965820312 129.434326171875 C 73.33940887451172 124.19298553466797 151.0984344482422 141.39598083496094 154.39309692382812 114.1407470703125 L 156.69895935058594 97.38863372802734" fill="rgb(58, 0, 39)" opacity="0.8705589" stroke-width="2.0"/>
    <path d="M 101.27449035644531 224.8172149658203 C 99.20686340332031 232.5167236328125 54.6893310546875 224.8726348876953 100.3302993774414 225.48158264160156 C 98.67382049560547 230.84866333007812 68.51164245605469 227.1565399169922 68.8139419555664 227.1604766845703 C 52.75587844848633 224.5169677734375 54.687076568603516 224.27159118652344 56.38479232788086 221.98606872558594 C 93.70870208740234 214.6451416015625 100.00211334228516 221.0584716796875 100.99270629882812 229.3533172607422 L 101.27449035644531 224.8172149658203" fill="rgb(171, 6, 77)" opacity="0.6397588" stroke-width="2.0"/>
    <path d="M 149.73562622070312 218.98619079589844 C 220.89334106445312 226.42808532714844 92.26319885253906 231.666259765625 131.28402709960938 229.4232635498047 C 99.78592681884766 231.1532440185547 81.13963317871094 227.95826721191406 81.92132568359375 229.0703125 C 68.17559051513672 216.32595825195312 119.28582763671875 226.37303161621094 84.01582336425781 218.07171630859375 C 145.75633239746094 218.62408447265625 123.02748107910156 215.37001037597656 134.54098510742188 225.70297241210938 L 149.73562622070312 218.98619079589844" fill="rgb(167, 0, 72)" opacity="0.6186256" stroke-width="2.0"/>
    <path d="M 128.3009033203125 239.3615264892578 C 128.99375915527344 237.5843048095703 130.46279907226562 238.3883514404297 129.63841247558594 236.6882781982422 C 128.43832397460938 237.6341552734375 126.85948181152344 237.00399780273438 128.83230590820312 239.52638244628906 C 127.55979919433594 239.30128479003906 128.76751708984375 238.61376953125 128.03366088867188 238.6595458984375 C 129.8499755859375 236.85061645507812 128.70980834960938 235.9014129638672 128.2086639404297 236.19033813476562 L 128.3009033203125 239.3615264892578" fill="rgb(65, 99, 104)" opacity="0.0" stroke-width="2.0"/>
    <path d="M 125.14991760253906 187.68600463867188 C 104.27024841308594 204.31533813476562 113.26762390136719 201.62652587890625 80.82231903076172 205.31484985351562 C 120.48632049560547 180.55853271484375 85.2209243774414 166.79051208496094 74.39788818359375 175.1998748779297 C 91.61992645263672 163.1320343017578 88.72843933105469 190.3557891845703 87.76748657226562 142.79830932617188 C 90.38865661621094 179.42115783691406 95.18447875976562 144.58189392089844 91.7540054321289 181.33204650878906 L 125.14991760253906 187.68600463867188" fill="rgb(32, 32, 78)" opacity="0.48811847" stroke-width="2.0"/>
  </g>
</svg>
