<?xml version="1.0" ?>
<svg xmlns="http://www.w3.org/2000/svg" version="1.1" width="240" height="240">
  <defs/>
  <g>
    <path d="M -10.0 -10.0 C -9.0 -10.0 240.0 0.0 241.0 -5.972866058349609 C 238.2220001220703 5.97286319732666 243.7779998779297 234.0271453857422 246.9683074951172 246.05404663085938 C 234.88462829589844 250.97433471679688 7.064629077911377 253.98898315429688 5.956995487213135 240.64111328125 C -2.4470558166503906 248.8861083984375 -6.0484232902526855 247.1056365966797 -20.631328582763672 1.314532995223999 L -10.0 -10.0" stroke-width="2.0" fill="rgb(249, 195, 100)" opacity="0.91962475"/>
    <path d="M 143.64122009277344 69.11814880371094 C 150.45310974121094 75.89851379394531 142.1033172607422 84.93172454833984 118.37034606933594 80.73365783691406 C 109.37937927246094 77.64798736572266 104.24423217773438 73.50745391845703 102.27584075927734 67.67929077148438 C 109.76017761230469 59.1760139465332 106.25663757324219 51.607852935791016 82.27277374267578 61.5455207824707 C 106.61882781982422 33.75595474243164 145.36083984375 41.484107971191406 149.9298553466797 52.77059555053711 L 143.64122009277344 69.11814880371094" stroke-width="2.0" fill="rgb(55, 18, 53)" opacity="0.9731232"/>
    <path d="M 102.2562255859375 91.65750122070312 C 90.76139068603516 95.75630187988281 88.79389953613281 111.53071594238281 75.44788360595703 115.50209045410156 C 34.97453308105469 100.87798309326172 36.57182312011719 96.66925048828125 69.51136016845703 109.89832305908203 C 52.70539093017578 90.79581451416016 60.20720291137695 60.26556396484375 81.4860610961914 42.67144012451172 C 83.19786834716797 51.96874237060547 72.70326232910156 76.3328628540039 88.61483764648438 84.18534088134766 L 102.2562255859375 91.65750122070312" stroke-width="2.0" fill="rgb(99, 17, 51)" opacity="0.90178865"/>
    <path d="M 171.36672973632812 223.86929321289062 C 168.095703125 227.21449279785156 127.94532012939453 230.8672332763672 103.4249496459961 229.82640075683594 C 99.4285888671875 229.9536895751953 59.30025100708008 227.46096801757812 54.130916595458984 223.70132446289062 C 61.03159713745117 219.13230895996094 81.81558990478516 219.4354705810547 88.60679626464844 218.00013732910156 C 105.93181610107422 218.34788513183594 148.13282775878906 216.66012573242188 170.39048767089844 222.1445770263672 L 171.36672973632812 223.86929321289062" stroke-width="2.0" fill="rgb(198, 62, 83)" opacity="0.92572415"/>
    <path d="M 138.89385986328125 53.65692901611328 C 111.85218811035156 52.97727966308594 106.6680679321289 60.43418884277344 90.28749084472656 75.94361114501953 C 81.64297485351562 68.96236419677734 73.59879302978516 63.93368148803711 79.27685546875 47.345767974853516 C 60.333858489990234 34.03231430053711 71.15245056152344 14.084128379821777 94.8479232788086 25.229900360107422 C 89.84635162353516 35.21530532836914 100.60151672363281 41.98161315917969 136.23574829101562 37.54562759399414 L 138.89385986328125 53.65692901611328" stroke-width="2.0" fill="rgb(235, 39, 91)" opacity="0.39745107"/>
    <path d="M 58.60649871826172 131.58558654785156 C 40.46626663208008 183.7137908935547 30.010517120361328 180.8727569580078 28.484983444213867 128.18113708496094 C 25.47296714782715 133.95973205566406 3.735741138458252 147.01571655273438 4.5961174964904785 183.5736541748047 C -17.689653396606445 117.05026245117188 -8.76823902130127 103.2016372680664 13.946733474731445 109.94493865966797 C 28.689212799072266 107.55039978027344 36.69430160522461 119.67564392089844 41.109474182128906 123.71636962890625 L 58.60649871826172 131.58558654785156" stroke-width="2.0" fill="rgb(227, 252, 237)" opacity="0.8021027"/>
    <path d="M 114.6400375366211 132.57296752929688 C 81.80709838867188 146.983642578125 81.78929901123047 147.89407348632812 133.51724243164062 198.10870361328125 C 82.91077423095703 174.12869262695312 71.33172607421875 151.35183715820312 38.85398864746094 163.96266174316406 C 49.165218353271484 153.50796508789062 62.29439926147461 152.3010711669922 78.1873779296875 141.21524047851562 C 83.52452850341797 123.85075378417969 109.40806579589844 124.66814422607422 112.70333862304688 155.2048797607422 L 114.6400375366211 132.57296752929688" stroke-width="2.0" fill="rgb(118, 0, 59)" opacity="0.6462068"/>
    <path d="M 133.85401916503906 161.34243774414062 C 136.37872314453125 143.8731231689453 163.2928924560547 143.8433837890625 165.72206115722656 152.89999389648438 C 140.0671844482422 142.72598266601562 143.79991149902344 126.31659698486328 170.13015747070312 128.50706481933594 C 150.7071075439453 125.1393814086914 151.76150512695312 115.45099639892578 156.4424591064453 103.18970489501953 C 207.52261352539062 129.02890014648438 222.0150909423828 135.35581970214844 207.6965789794922 182.33726501464844 L 133.85401916503906 161.34243774414062" stroke-width="2.0" fill="rgb(103, 124, 140)" opacity="0.70134425"/>
    <path d="M 91.04927062988281 129.28292846679688 C 76.65142822265625 133.9506378173828 78.30164337158203 146.142333984375 74.67390441894531 149.13739013671875 C 59.361839294433594 155.3180389404297 54.41730880737305 149.61619567871094 64.14920043945312 139.8926544189453 C 67.5067367553711 118.56491088867188 75.4903335571289 108.17726135253906 151.7607879638672 134.4947509765625 C 91.55952453613281 121.81729125976562 85.88310241699219 131.0688018798828 80.36868286132812 138.81996154785156 L 91.04927062988281 129.28292846679688" stroke-width="2.0" fill="rgb(218, 247, 255)" opacity="0.39330438"/>
    <path d="M 53.76500701904297 159.2909698486328 C 62.4393196105957 151.95294189453125 69.27183532714844 159.46144104003906 44.5366325378418 186.8867950439453 C 60.71692657470703 160.385986328125 76.30810546875 169.4767608642578 83.04422760009766 179.56370544433594 C 37.34611511230469 185.0570526123047 29.938199996948242 175.5511016845703 36.685272216796875 147.9628143310547 C 49.602264404296875 116.42229461669922 66.79016876220703 123.04866790771484 65.7492904663086 152.01609802246094 L 53.76500701904297 159.2909698486328" stroke-width="2.0" fill="rgb(112, 156, 147)" opacity="0.68371636"/>
    <path d="M 48.68185806274414 135.34303283691406 C 56.60081481933594 140.30068969726562 53.555973052978516 152.0690155029297 54.08643341064453 176.3024444580078 C 36.35480880737305 159.42965698242188 22.559246063232422 140.04005432128906 -4.92405891418457 159.37698364257812 C -9.320025444030762 90.99919891357422 -1.9896963834762573 90.25057983398438 18.220487594604492 128.9931640625 C 47.12879180908203 136.95492553710938 55.74417495727539 139.18771362304688 56.98562240600586 146.22024536132812 L 48.68185806274414 135.34303283691406" stroke-width="2.0" fill="rgb(37, 60, 93)" opacity="0.6200081"/>
    <path d="M 152.8465118408203 81.40133666992188 C 150.29344177246094 76.12466430664062 146.83639526367188 75.00374603271484 147.9165496826172 57.485267639160156 C 113.76372528076172 45.94559097290039 100.28632354736328 72.60688781738281 81.2267074584961 65.03633880615234 C 108.64665222167969 29.717361450195312 146.85769653320312 46.75399398803711 149.72789001464844 53.57530212402344 C 151.3003692626953 62.60503005981445 165.8624267578125 60.850738525390625 175.34402465820312 33.667598724365234 L 152.8465118408203 81.40133666992188" stroke-width="2.0" fill="rgb(239, 148, 104)" opacity="1.0"/>
    <path d="M 173.0488739013672 98.91568756103516 C 200.7188720703125 105.36339569091797 199.12950134277344 112.2470474243164 100.5269775390625 103.26112365722656 C 105.62321472167969 82.27619934082031 130.0885772705078 86.52264404296875 147.7288818359375 81.56888580322266 C 155.30572509765625 79.46250915527344 157.38015747070312 75.575439453125 160.67774963378906 72.15035247802734 C 146.9045867919922 55.27721405029297 157.25311279296875 43.10588455200195 180.45521545410156 22.268169403076172 L 173.0488739013672 98.91568756103516" stroke-width="2.0" fill="rgb(251, 254, 255)" opacity="0.42159224"/>
    <path d="M 36.686851501464844 123.31147003173828 C 21.821083068847656 116.18113708496094 4.687319278717041 104.32130432128906 -7.4042582511901855 115.8878402709961 C 0.8456092476844788 85.44943237304688 -14.367520332336426 65.25440216064453 -16.74590492248535 24.012521743774414 C -12.525994300842285 27.99374771118164 -8.240935325622559 38.62098693847656 16.200014114379883 57.623695373535156 C 20.973419189453125 63.6861572265625 29.350624084472656 67.30097961425781 37.20137405395508 78.79620361328125 L 36.686851501464844 123.31147003173828" stroke-width="2.0" fill="rgb(107, 148, 142)" opacity="1.0"/>
    <path d="M 124.82006072998047 82.79204559326172 C 89.73110961914062 67.07850646972656 82.355224609375 68.4863510131836 80.70532989501953 100.52628326416016 C 95.27960205078125 96.22782135009766 90.69306182861328 78.46256256103516 63.62953567504883 68.62849426269531 C 90.65094757080078 97.6417007446289 116.54448699951172 83.15016174316406 151.88656616210938 87.80044555664062 C 138.13058471679688 70.11814880371094 105.58716583251953 92.70614624023438 89.01016998291016 90.0389175415039 L 124.82006072998047 82.79204559326172" stroke-width="2.0" fill="rgb(241, 54, 120)" opacity="0.265552"/>
    <path d="M 183.1575469970703 87.4464111328125 C 77.1467056274414 77.25645446777344 68.14945983886719 102.51446533203125 165.69482421875 158.89361572265625 C 169.29673767089844 107.17414855957031 94.39208984375 101.06639099121094 85.05851745605469 77.54331970214844 C 100.32671356201172 96.30332946777344 121.77519989013672 81.98809051513672 136.27175903320312 90.03489685058594 C 98.4276351928711 75.7236328125 92.36089324951172 85.76094055175781 116.36388397216797 106.19810485839844 L 183.1575469970703 87.4464111328125" stroke-width="2.0" fill="rgb(254, 226, 197)" opacity="0.5991548"/>
    <path d="M 185.9009552001953 82.37699890136719 C 230.47601318359375 17.846330642700195 239.79225158691406 24.57798957824707 228.75064086914062 92.9012680053711 C 163.41131591796875 67.1326904296875 175.9774932861328 99.27130126953125 189.73440551757812 122.9935073852539 C 240.8536376953125 107.0601577758789 240.77589416503906 101.27349853515625 219.16961669921875 79.19223022460938 C 223.70700073242188 77.42684173583984 231.42758178710938 93.83991241455078 240.37057495117188 92.28135681152344 L 185.9009552001953 82.37699890136719" stroke-width="2.0" fill="rgb(57, 80, 123)" opacity="0.72582334"/>
    <path d="M 177.42266845703125 144.50778198242188 C 101.22461700439453 152.2445831298828 95.26676940917969 161.9259033203125 128.86331176757812 192.47779846191406 C 143.70034790039062 135.04933166503906 123.87312316894531 115.39784240722656 104.68832397460938 123.04222106933594 C 85.55256652832031 111.17961883544922 97.44961547851562 88.9249267578125 81.83877563476562 80.00856018066406 C 87.26821899414062 121.7715072631836 122.32170867919922 131.3827362060547 138.322509765625 99.87056732177734 L 177.42266845703125 144.50778198242188" stroke-width="2.0" fill="rgb(237, 217, 185)" opacity="0.5431644"/>
    <path d="M 108.6604232788086 201.47015380859375 C 70.80427551269531 192.51585388183594 91.29133605957031 218.05320739746094 93.8089599609375 216.7272186279297 C 89.2021255493164 206.7505340576172 83.49407958984375 201.9703369140625 80.17192840576172 187.9992218017578 C 75.05451965332031 217.5507049560547 86.10148620605469 220.16844177246094 115.44599914550781 195.4192657470703 C 74.52271270751953 183.46426391601562 71.89043426513672 185.91500854492188 81.86141204833984 217.27891540527344 L 108.6604232788086 201.47015380859375" stroke-width="2.0" fill="rgb(130, 89, 92)" opacity="0.95831746"/>
    <path d="M 102.64665985107422 89.5770034790039 C 68.0590591430664 107.13660430908203 68.55696105957031 113.17092895507812 92.37186431884766 125.29814910888672 C 71.59902954101562 93.3467788696289 56.94416046142578 99.70542907714844 61.33872604370117 125.49057006835938 C 49.09397506713867 125.30284881591797 47.6822395324707 105.8682861328125 82.01838684082031 99.75252532958984 C 84.81267547607422 93.34352111816406 87.055908203125 72.31427001953125 106.50346374511719 61.36220932006836 L 102.64665985107422 89.5770034790039" stroke-width="2.0" fill="rgb(61, 18, 52)" opacity="0.991655"/>
    <path d="M 155.04611206054688 132.9225311279297 C 158.25474548339844 58.791873931884766 155.08355712890625 58.000892639160156 121.29222106933594 77.72134399414062 C 170.32200622558594 78.91055297851562 170.76809692382812 55.68632507324219 122.15404510498047 55.31304168701172 C 158.66883850097656 84.84098052978516 171.40896606445312 69.7135238647461 143.71627807617188 46.39346694946289 C 143.0551300048828 50.33964157104492 157.53477478027344 54.379798889160156 160.32595825195312 75.54650115966797 L 155.04611206054688 132.9225311279297" stroke-width="2.0" fill="rgb(61, 25, 58)" opacity="0.9140962"/>
    <path d="M 51.67551040649414 139.05760192871094 C 14.711997032165527 117.27894592285156 28.357215881347656 94.08551788330078 22.329429626464844 72.46298217773438 C 17.992454528808594 102.0946273803711 21.93294334411621 108.48736572265625 12.129783630371094 114.94409942626953 C 3.736388683319092 99.71033477783203 19.460926055908203 74.52689361572266 -2.737942695617676 38.1486701965332 C 6.094418048858643 47.89453887939453 14.695474624633789 102.72245788574219 50.78046798706055 98.15595245361328 L 51.67551040649414 139.05760192871094" stroke-width="2.0" fill="rgb(153, 91, 95)" opacity="1.0"/>
    <path d="M 67.45289611816406 163.32635498046875 C 39.0012092590332 81.55667877197266 36.194419860839844 82.5041732788086 44.65719985961914 186.5936737060547 C 64.18048858642578 92.67418670654297 42.48733901977539 86.42457580566406 31.811613082885742 123.66439819335938 C 26.70701026916504 61.51172637939453 48.63625717163086 60.5682258605957 51.36642837524414 129.1053466796875 C 32.169254302978516 98.4337158203125 54.81437301635742 84.36665344238281 73.9138412475586 116.02242279052734 L 67.45289611816406 163.32635498046875" stroke-width="2.0" fill="rgb(126, 170, 156)" opacity="0.650207"/>
    <path d="M 118.22209167480469 155.8163604736328 C 111.54991149902344 165.18634033203125 113.70269012451172 166.6879425048828 113.80987548828125 170.76634216308594 C 114.93192291259766 156.59703063964844 101.08175659179688 154.291015625 100.20462036132812 148.11904907226562 C 109.1323471069336 150.596435546875 108.34951782226562 157.75904846191406 90.36080169677734 179.10400390625 C 109.28132629394531 165.42832946777344 100.13225555419922 150.43727111816406 120.6155776977539 133.25294494628906 L 118.22209167480469 155.8163604736328" stroke-width="2.0" fill="rgb(7, 9, 86)" opacity="0.6284895"/>
    <path d="M 83.09115600585938 37.18450927734375 C 61.02592086791992 68.1935043334961 70.56193542480469 75.95758819580078 85.09632110595703 60.914451599121094 C 88.62823486328125 42.83285903930664 68.92381286621094 35.01725387573242 69.87696075439453 29.35463523864746 C 64.11287689208984 40.76502990722656 72.3670654296875 47.19866180419922 74.80608367919922 52.03987503051758 C 74.01434326171875 44.72336196899414 108.97472381591797 30.58987045288086 121.33174896240234 36.710819244384766 L 83.09115600585938 37.18450927734375" stroke-width="2.0" fill="rgb(212, 79, 78)" opacity="1.0"/>
    <path d="M 117.7189712524414 109.8877182006836 C 111.86309051513672 119.11521911621094 106.24248504638672 98.67066955566406 115.59359741210938 95.91217041015625 C 117.97142791748047 87.97396087646484 114.40835571289062 85.95138549804688 106.63448333740234 92.47637939453125 C 107.64937591552734 84.2288589477539 116.13645935058594 84.38399505615234 116.59606170654297 88.58055114746094 C 117.2706298828125 90.59563446044922 114.21734619140625 93.22860717773438 119.02688598632812 103.35871124267578 L 117.7189712524414 109.8877182006836" stroke-width="2.0" fill="rgb(37, 0, 43)" opacity="0.85725904"/>
    <path d="M 100.67000579833984 114.90234375 C 94.02669525146484 124.74810791015625 70.3869400024414 109.99996948242188 70.0814437866211 109.41493225097656 C 77.04553985595703 128.8394775390625 91.28973388671875 129.14016723632812 129.34210205078125 139.32655334472656 C 80.19527435302734 122.70051574707031 78.63019561767578 117.2418212890625 86.69524383544922 86.6065902709961 C 86.39076232910156 113.87071990966797 100.47321319580078 116.55772399902344 105.62657165527344 107.1284408569336 L 100.67000579833984 114.90234375" stroke-width="2.0" fill="rgb(60, 16, 51)" opacity="0.9786982"/>
    <path d="M 81.68721771240234 106.77664184570312 C 68.00447082519531 103.62004089355469 63.83083724975586 120.7421875 108.51307678222656 134.93885803222656 C 85.38005828857422 122.38945007324219 84.60906982421875 120.23060607910156 82.57778930664062 104.51910400390625 C 69.07239532470703 115.01543426513672 49.4177131652832 91.35478210449219 71.45541381835938 55.247108459472656 C 94.97286987304688 53.80319595336914 97.75187683105469 70.47356414794922 86.51588439941406 83.73125457763672 L 81.68721771240234 106.77664184570312" stroke-width="2.0" fill="rgb(221, 56, 70)" opacity="0.8380458"/>
    <path d="M 220.30638122558594 116.09652709960938 C 167.96658325195312 129.1223907470703 168.26893615722656 136.49136352539062 237.8887481689453 179.06764221191406 C 228.79360961914062 154.28269958496094 197.69480895996094 164.34738159179688 187.08692932128906 141.06678771972656 C 180.27764892578125 189.77133178710938 184.594970703125 191.0359344482422 223.6086883544922 132.83096313476562 C 235.96067810058594 117.0992660522461 229.97537231445312 107.04924774169922 182.9241180419922 129.52207946777344 L 220.30638122558594 116.09652709960938" stroke-width="2.0" fill="rgb(98, 130, 134)" opacity="0.9683181"/>
    <path d="M 199.3915252685547 133.23170471191406 C 205.17276000976562 141.90260314941406 198.51165771484375 170.3329315185547 204.75978088378906 173.27601623535156 C 190.92453002929688 179.26446533203125 189.3713836669922 175.4673309326172 190.83724975585938 156.01292419433594 C 189.5118865966797 136.5074005126953 192.45828247070312 132.2267608642578 199.14027404785156 133.049560546875 C 196.55322265625 139.03712463378906 192.01942443847656 143.61468505859375 189.4771728515625 148.45814514160156 L 199.3915252685547 133.23170471191406" stroke-width="2.0" fill="rgb(179, 42, 62)" opacity="0.9803416"/>
    <path d="M 71.74650573730469 128.87660217285156 C 48.0681037902832 141.8042449951172 49.981109619140625 150.51246643066406 51.24043273925781 174.88735961914062 C 37.14421844482422 176.42144775390625 36.41451644897461 175.061767578125 43.99660873413086 122.19084930419922 C 53.071529388427734 124.2052230834961 63.45738983154297 130.38436889648438 72.9725341796875 124.36018371582031 C 47.86905288696289 151.9123077392578 36.82114791870117 145.77908325195312 44.49726104736328 122.93135833740234 L 71.74650573730469 128.87660217285156" stroke-width="2.0" fill="rgb(179, 11, 42)" opacity="0.71985954"/>
    <path d="M 145.7854461669922 83.11675262451172 C 139.91375732421875 91.43855285644531 156.0660400390625 103.11027526855469 143.8654327392578 111.94901275634766 C 136.14144897460938 102.13198852539062 151.17422485351562 90.87418365478516 142.78048706054688 79.97379302978516 C 154.5049285888672 80.12836456298828 160.9225616455078 70.31934356689453 150.53457641601562 58.95256042480469 C 140.29638671875 82.85653686523438 143.42974853515625 87.93208312988281 152.0121307373047 88.1375961303711 L 145.7854461669922 83.11675262451172" stroke-width="2.0" fill="rgb(69, 27, 58)" opacity="0.8909949"/>
    <path d="M 149.39849853515625 125.09332275390625 C 125.26945495605469 132.99586486816406 139.65225219726562 151.86166381835938 142.7693634033203 174.59054565429688 C 147.99209594726562 144.2065887451172 132.40330505371094 141.3533477783203 110.50492858886719 128.33958435058594 C 144.59861755371094 144.04006958007812 141.48846435546875 151.9308624267578 90.9088363647461 130.8068084716797 C 106.16568756103516 120.9428482055664 136.13473510742188 142.3340606689453 156.53805541992188 115.21432495117188 L 149.39849853515625 125.09332275390625" stroke-width="2.0" fill="rgb(112, 35, 66)" opacity="0.95893854"/>
    <path d="M 111.61996459960938 52.169281005859375 C 102.75825500488281 68.51378631591797 98.8535385131836 68.58556365966797 84.95833587646484 39.09190368652344 C 73.92727661132812 63.9050407409668 48.66550827026367 54.272972106933594 20.90209197998047 66.47953796386719 C 70.2418212890625 87.75292205810547 101.27281188964844 77.11388397216797 113.26484680175781 45.67877197265625 C 108.00379943847656 53.73427200317383 97.34872436523438 55.23747634887695 93.81388092041016 49.17790985107422 L 111.61996459960938 52.169281005859375" stroke-width="2.0" fill="rgb(246, 68, 59)" opacity="0.18722354"/>
    <path d="M 88.88428497314453 152.97561645507812 C 89.5539779663086 157.66600036621094 87.65184783935547 186.2248077392578 117.94104766845703 191.05926513671875 C 117.90727233886719 166.6896514892578 91.63177490234375 163.7852783203125 90.424072265625 146.5229034423828 C 113.01522827148438 157.80718994140625 113.99185180664062 157.31008911132812 111.7700424194336 135.22637939453125 C 97.56685638427734 127.33739471435547 87.84934997558594 141.79498291015625 102.16331481933594 154.48011779785156 L 88.88428497314453 152.97561645507812" stroke-width="2.0" fill="rgb(255, 60, 73)" opacity="0.62952983"/>
    <path d="M 112.19100952148438 163.3508758544922 C 98.12798309326172 179.75958251953125 86.77461242675781 197.9388427734375 135.21372985839844 187.49000549316406 C 116.56673431396484 189.02655029296875 112.66258239746094 166.12022399902344 88.457763671875 167.06785583496094 C 96.75444793701172 150.10643005371094 102.89484405517578 140.37197875976562 101.51001739501953 132.08700561523438 C 83.42719268798828 152.24179077148438 87.27621459960938 157.91282653808594 99.3833236694336 153.22511291503906 L 112.19100952148438 163.3508758544922" stroke-width="2.0" fill="rgb(247, 82, 84)" opacity="0.6589742"/>
    <path d="M 116.1187973022461 169.2880096435547 C 113.30402374267578 152.3966827392578 105.64430236816406 152.0819854736328 94.91454315185547 205.5071258544922 C 136.27224731445312 194.33970642089844 131.233642578125 166.30250549316406 82.12290954589844 173.89114379882812 C 82.46583557128906 162.9859161376953 92.62361907958984 156.58901977539062 128.7395782470703 194.22476196289062 C 111.74537658691406 176.142578125 122.82410430908203 164.73309326171875 123.79521179199219 156.48593139648438 L 116.1187973022461 169.2880096435547" stroke-width="2.0" fill="rgb(113, 0, 45)" opacity="0.36759725"/>
    <path d="M 138.86532592773438 39.240943908691406 C 118.38548278808594 36.350379943847656 100.79427337646484 29.288908004760742 72.17288208007812 47.673526763916016 C 105.10125732421875 37.6048698425293 102.44161987304688 26.41708755493164 78.01285552978516 21.705219268798828 C 85.38276672363281 25.539358139038086 86.98182678222656 21.899524688720703 87.20458221435547 18.40411376953125 C 87.20025634765625 24.207307815551758 94.56075286865234 26.901273727416992 97.26982879638672 36.3615837097168 L 138.86532592773438 39.240943908691406" stroke-width="2.0" fill="rgb(62, 4, 50)" opacity="0.609726"/>
    <path d="M 223.46466064453125 -26.20500946044922 C 244.2187957763672 13.591373443603516 222.05592346191406 34.19169235229492 190.09701538085938 76.90438842773438 C 145.10000610351562 57.084896087646484 143.59197998046875 28.313692092895508 44.710018157958984 15.370955467224121 C 139.0506134033203 -37.03834915161133 172.82171630859375 -11.5403470993042 193.44558715820312 -0.006054716184735298 C 184.22972106933594 3.2530691623687744 171.2837371826172 18.45041275024414 164.00967407226562 22.796092987060547 L 223.46466064453125 -26.20500946044922" stroke-width="2.0" fill="rgb(255, 213, 115)" opacity="0.62270856"/>
    <path d="M 145.92193603515625 223.801513671875 C 127.94969177246094 228.1112060546875 123.09184265136719 209.3340606689453 126.8858413696289 196.4658660888672 C 137.04286193847656 211.7106475830078 149.11009216308594 204.6650390625 153.32908630371094 208.51132202148438 C 115.14652252197266 206.4151153564453 114.14315032958984 183.84043884277344 145.11746215820312 173.8183135986328 C 122.755615234375 204.87063598632812 128.18289184570312 214.6444549560547 154.30056762695312 211.14105224609375 L 145.92193603515625 223.801513671875" stroke-width="2.0" fill="rgb(130, 83, 94)" opacity="0.9296784"/>
    <path d="M 83.4837875366211 138.69618225097656 C 88.54727172851562 156.5693817138672 89.32295989990234 170.77618408203125 115.0054702758789 169.9812774658203 C 82.24388122558594 174.74923706054688 75.21653747558594 176.81382751464844 69.30040740966797 160.65028381347656 C 73.29149627685547 168.46612548828125 87.71427917480469 165.03045654296875 122.80086517333984 193.90553283691406 C 102.48672485351562 186.52435302734375 91.47164154052734 181.9700469970703 91.60031127929688 177.42764282226562 L 83.4837875366211 138.69618225097656" stroke-width="2.0" fill="rgb(153, 43, 65)" opacity="1.0"/>
    <path d="M 116.43067169189453 186.81332397460938 C 99.66854858398438 177.47763061523438 81.25532531738281 203.8649444580078 79.34800720214844 204.68763732910156 C 109.28842163085938 204.88577270507812 111.18042755126953 199.31394958496094 119.85987091064453 191.67050170898438 C 117.08119201660156 187.18780517578125 115.52033996582031 186.07968139648438 113.71952056884766 182.2178497314453 C 133.5587615966797 179.6852569580078 142.9480743408203 184.77194213867188 139.93994140625 216.85415649414062 L 116.43067169189453 186.81332397460938" stroke-width="2.0" fill="rgb(43, 60, 105)" opacity="0.67294365"/>
    <path d="M 256.00634765625 38.29519271850586 C 260.8763427734375 65.08293151855469 234.03875732421875 87.87422943115234 218.7095947265625 186.5012969970703 C 226.21670532226562 65.73430633544922 210.38348388671875 49.22883987426758 215.04122924804688 38.35662078857422 C 248.63177490234375 35.038082122802734 273.1268310546875 42.35618209838867 268.95306396484375 54.42127227783203 C 266.3377685546875 64.69132995605469 255.1374969482422 72.82272338867188 257.09002685546875 78.14856719970703 L 256.00634765625 38.29519271850586" stroke-width="2.0" fill="rgb(109, 160, 152)" opacity="0.9200716"/>
    <path d="M 240.07704162597656 141.93312072753906 C 257.699951171875 157.3296356201172 256.3300476074219 168.82247924804688 243.43357849121094 181.26513671875 C 193.50961303710938 185.9410400390625 190.91380310058594 163.08627319335938 222.30975341796875 159.27011108398438 C 220.83474731445312 137.55743408203125 222.91885375976562 103.34010314941406 234.02613830566406 98.52897644042969 C 266.11492919921875 101.95305633544922 286.6387023925781 138.0660400390625 260.3549499511719 154.93695068359375 L 240.07704162597656 141.93312072753906" stroke-width="2.0" fill="rgb(139, 255, 203)" opacity="0.98421353"/>
    <path d="M 44.62446212768555 225.0857391357422 C 71.42958068847656 217.95989990234375 75.24699401855469 218.38839721679688 105.91625213623047 222.94546508789062 C 82.88660430908203 219.74655151367188 66.6973648071289 226.3126678466797 60.42559814453125 221.17433166503906 C 82.5518569946289 217.920166015625 95.89373016357422 221.4391632080078 99.6285629272461 222.660888671875 C 91.32535552978516 231.4659423828125 79.8917236328125 220.7725830078125 54.85281753540039 222.53404235839844 L 44.62446212768555 225.0857391357422" stroke-width="2.0" fill="rgb(94, 8, 61)" opacity="0.34341127"/>
    <path d="M 27.4331111907959 130.96836853027344 C 45.34223556518555 128.64154052734375 56.69819259643555 157.3899688720703 69.86337280273438 184.05270385742188 C 21.236263275146484 190.48487854003906 -26.632966995239258 197.82615661621094 -45.07371139526367 180.1230010986328 C 0.46113571524620056 139.89625549316406 42.287628173828125 144.86917114257812 40.971134185791016 178.9388427734375 C 62.638668060302734 163.1596221923828 47.55141067504883 139.3037109375 63.02383041381836 125.54122924804688 L 27.4331111907959 130.96836853027344" stroke-width="2.0" fill="rgb(53, 88, 134)" opacity="0.26470983"/>
    <path d="M 251.0876007080078 150.84983825683594 C 254.755615234375 160.73170471191406 268.4038391113281 173.87721252441406 277.25469970703125 185.78018188476562 C 198.1100311279297 177.2344512939453 162.21041870117188 188.07237243652344 156.09996032714844 168.9919891357422 C 248.99740600585938 189.85980224609375 273.0096435546875 180.84840393066406 292.0400390625 196.22500610351562 C 248.62632751464844 175.2164764404297 246.62564086914062 173.59954833984375 246.7977752685547 167.6356201171875 L 251.0876007080078 150.84983825683594" stroke-width="2.0" fill="rgb(99, 95, 105)" opacity="0.98766243"/>
    <path d="M 128.27743530273438 227.26748657226562 C 137.47561645507812 224.2916259765625 143.2385711669922 226.7169189453125 170.33758544921875 199.33261108398438 C 142.07337951660156 227.6095733642578 134.07566833496094 227.83856201171875 129.4724884033203 224.75924682617188 C 142.424560546875 214.15635681152344 150.35321044921875 211.9393768310547 152.5142822265625 208.71255493164062 C 156.62969970703125 213.3523712158203 151.4873046875 219.62098693847656 148.05128479003906 220.8047332763672 L 128.27743530273438 227.26748657226562" stroke-width="2.0" fill="rgb(100, 119, 123)" opacity="1.0"/>
    <path d="M 226.76454162597656 186.48707580566406 C 221.57806396484375 170.2244415283203 164.83226013183594 184.68731689453125 152.45501708984375 178.19935607910156 C 178.5968780517578 163.13998413085938 162.21835327148438 132.80804443359375 174.9031982421875 120.25402069091797 C 135.7083740234375 183.52772521972656 144.9001922607422 190.26478576660156 164.748779296875 167.02056884765625 C 201.6259307861328 187.98153686523438 216.19935607910156 163.98719787597656 222.3713836669922 155.44317626953125 L 226.76454162597656 186.48707580566406" stroke-width="2.0" fill="rgb(161, 195, 163)" opacity="0.66853017"/>
    <path d="M 79.42807006835938 28.23476791381836 C 124.15980529785156 23.41068458557129 136.36370849609375 39.12459182739258 114.9380874633789 90.55953979492188 C 87.36270141601562 69.03072357177734 96.95499420166016 46.88935089111328 91.73175811767578 43.33126449584961 C 108.05213165283203 39.742252349853516 109.72456359863281 29.23404884338379 127.41819763183594 20.61800193786621 C 117.40145874023438 34.34560775756836 115.64832305908203 61.60749816894531 98.98773956298828 77.82902526855469 L 79.42807006835938 28.23476791381836" stroke-width="2.0" fill="rgb(139, 62, 34)" opacity="0.0"/>
    <path d="M 83.78317260742188 211.74365234375 C 98.21995544433594 235.27249145507812 125.48734283447266 241.63491821289062 124.9942626953125 273.8121032714844 C 90.48796081542969 214.16061401367188 88.44944763183594 211.62583923339844 67.90066528320312 221.26564025878906 C 100.25360107421875 194.60430908203125 110.67974090576172 201.27980041503906 104.09510040283203 219.76531982421875 C 108.05986785888672 208.86068725585938 117.67852020263672 207.910400390625 126.56300354003906 218.72195434570312 L 83.78317260742188 211.74365234375" stroke-width="2.0" fill="rgb(255, 208, 104)" opacity="0.60252947"/>
    <path d="M 75.7925796508789 46.784122467041016 C 75.06066131591797 50.588565826416016 50.994754791259766 73.52545928955078 64.2734375 102.63865661621094 C 24.649465560913086 91.42160034179688 24.576276779174805 44.56475830078125 16.676546096801758 11.862528800964355 C 57.90171813964844 20.622480392456055 62.39703369140625 25.9440860748291 72.53231811523438 48.87380599975586 C 58.446292877197266 43.30531311035156 47.17290115356445 46.477210998535156 31.62192153930664 45.6053466796875 L 75.7925796508789 46.784122467041016" stroke-width="2.0" fill="rgb(249, 255, 236)" opacity="0.5348408"/>
    <path d="M 103.97274780273438 -4.679386138916016 C -7.174461364746094 -22.982114791870117 -11.244621276855469 -12.790992736816406 49.68573760986328 56.99701690673828 C 14.787604331970215 78.35981750488281 -21.135848999023438 21.851146697998047 -12.892125129699707 -26.147035598754883 C -2.7221646308898926 -14.873261451721191 7.435926914215088 -2.815438747406006 8.976889610290527 4.337252140045166 C 19.795618057250977 5.766042232513428 24.333391189575195 13.424895286560059 49.275447845458984 48.183895111083984 L 103.97274780273438 -4.679386138916016" stroke-width="2.0" fill="rgb(254, 209, 115)" opacity="0.81228614"/>
    <path d="M 214.744140625 172.02371215820312 C 217.91067504882812 183.21266174316406 224.2545928955078 193.475341796875 223.1644744873047 200.15296936035156 C 187.5023193359375 200.7386932373047 185.1153106689453 199.44009399414062 198.3549346923828 196.41445922851562 C 202.68014526367188 190.83370971679688 208.52915954589844 191.58865356445312 211.47120666503906 188.07028198242188 C 219.27114868164062 190.03042602539062 224.6125030517578 194.39649963378906 227.10313415527344 204.72312927246094 L 214.744140625 172.02371215820312" stroke-width="2.0" fill="rgb(21, 113, 160)" opacity="0.5798585"/>
    <path d="M 221.46849060058594 227.61953735351562 C 228.73548889160156 235.22161865234375 229.86026000976562 239.0067596435547 225.82562255859375 242.152099609375 C 212.54861450195312 240.0372772216797 212.49264526367188 235.87478637695312 217.64443969726562 235.61691284179688 C 220.50729370117188 227.15267944335938 224.63365173339844 228.46351623535156 225.35826110839844 228.63816833496094 C 230.69375610351562 223.19854736328125 233.52967834472656 225.7835693359375 238.75587463378906 240.3710174560547 L 221.46849060058594 227.61953735351562" stroke-width="2.0" fill="rgb(22, 44, 98)" opacity="0.0"/>
    <path d="M 267.5229187011719 177.5657196044922 C 252.66941833496094 182.37989807128906 233.98251342773438 182.3384552001953 202.90371704101562 182.24551391601562 C 197.4706573486328 178.07220458984375 202.0694580078125 162.9173583984375 207.94598388671875 155.0835723876953 C 201.98019409179688 148.84722900390625 211.0764923095703 127.29950714111328 232.59873962402344 98.98121643066406 C 267.62286376953125 98.93046569824219 270.4201354980469 122.62918090820312 256.81048583984375 168.6695098876953 L 267.5229187011719 177.5657196044922" stroke-width="2.0" fill="rgb(80, 32, 80)" opacity="0.38917035"/>
    <path d="M -3.0767011642456055 257.63818359375 C 12.678399085998535 251.63868713378906 26.297954559326172 252.47500610351562 24.830215454101562 265.044189453125 C -8.690775871276855 248.64234924316406 -9.64538288116455 242.30239868164062 -52.88663101196289 215.1575469970703 C -13.59742546081543 219.191162109375 20.78619956970215 203.4423828125 56.86051559448242 207.4207305908203 C 43.96654510498047 223.025146484375 46.562686920166016 236.36293029785156 180.44259643554688 231.9474334716797 L -3.0767011642456055 257.63818359375" stroke-width="2.0" fill="rgb(255, 217, 99)" opacity="0.4118542"/>
    <path d="M 107.79569244384766 114.84225463867188 C 115.05311584472656 123.8279037475586 123.40276336669922 141.47918701171875 142.52212524414062 132.10362243652344 C 131.5041046142578 147.77850341796875 109.98808288574219 133.66622924804688 82.4203872680664 116.39976501464844 C 103.56426239013672 117.08445739746094 126.54390716552734 144.16473388671875 144.0799560546875 130.72694396972656 C 115.77499389648438 137.93153381347656 110.79573059082031 122.69373321533203 118.04141235351562 114.47348022460938 L 107.79569244384766 114.84225463867188" stroke-width="2.0" fill="rgb(255, 103, 87)" opacity="0.5767615"/>
    <path d="M -5.814827919006348 47.56840133666992 C -5.982193470001221 81.94049072265625 39.49752426147461 100.05731201171875 47.2616081237793 85.1080093383789 C 25.678390502929688 66.39822387695312 20.73290252685547 54.96417236328125 -37.66532516479492 71.89861297607422 C -29.931591033935547 37.928245544433594 -13.00898265838623 37.37672805786133 -2.402038335800171 56.900146484375 C 2.714768409729004 65.2960205078125 18.77180290222168 64.64346313476562 45.58977508544922 84.62736511230469 L -5.814827919006348 47.56840133666992" stroke-width="2.0" fill="rgb(92, 123, 130)" opacity="1.0"/>
    <path d="M -46.522483825683594 192.65521240234375 C -23.788188934326172 172.26856994628906 -4.537875652313232 178.5274200439453 15.119325637817383 188.1946563720703 C 1.6541869640350342 179.9154510498047 -45.537872314453125 193.57688903808594 -65.32445526123047 129.1048126220703 C -12.567743301391602 134.60862731933594 8.110827445983887 168.33299255371094 40.7082633972168 149.08251953125 C 39.84980773925781 185.22203063964844 43.36800003051758 188.0347137451172 74.47482299804688 174.8426513671875 L -46.522483825683594 192.65521240234375" stroke-width="2.0" fill="rgb(97, 131, 136)" opacity="0.7729068"/>
    <path d="M -28.633426666259766 22.09842872619629 C 22.71715545654297 64.17447662353516 30.48948097229004 73.89808654785156 46.20966339111328 84.43302917480469 C 29.397066116333008 68.6499252319336 18.73834991455078 61.33671569824219 9.531394958496094 52.48624801635742 C 15.893178939819336 44.552093505859375 21.87137794494629 46.16364288330078 25.20062828063965 61.34073257446289 C 40.11916732788086 50.94878387451172 56.78872299194336 74.35277557373047 43.750911712646484 87.02179718017578 L -28.633426666259766 22.09842872619629" stroke-width="2.0" fill="rgb(169, 189, 157)" opacity="0.71114224"/>
    <path d="M 199.58120727539062 46.666778564453125 C 195.88674926757812 44.36818313598633 175.27810668945312 61.523712158203125 170.97042846679688 63.97396469116211 C 131.63504028320312 47.75687789916992 78.39389038085938 18.233692169189453 73.54156494140625 16.735172271728516 C 86.41382598876953 8.443089485168457 124.42753601074219 3.86214542388916 140.9366455078125 14.700088500976562 C 162.0155029296875 28.665681838989258 182.71693420410156 49.60940170288086 172.0797119140625 102.61980438232422 L 199.58120727539062 46.666778564453125" stroke-width="2.0" fill="rgb(249, 250, 255)" opacity="0.27858755"/>
    <path d="M 112.03662109375 182.64614868164062 C 118.85517120361328 119.99639892578125 140.3119354248047 122.10585021972656 140.14926147460938 185.5877685546875 C 107.82884216308594 189.32791137695312 106.58596801757812 183.51766967773438 132.79937744140625 175.5433349609375 C 140.6760711669922 174.9198760986328 142.21742248535156 169.9618682861328 129.60581970214844 132.96044921875 C 141.6064910888672 157.75070190429688 140.35980224609375 171.4474334716797 136.93978881835938 174.6816864013672 L 112.03662109375 182.64614868164062" stroke-width="2.0" fill="rgb(239, 63, 74)" opacity="0.5928547"/>
    <path d="M 214.76861572265625 82.28865814208984 C 192.3936004638672 97.34148406982422 190.2279510498047 109.14500427246094 188.56704711914062 165.2490692138672 C 176.315673828125 132.5855712890625 193.9925994873047 102.47169494628906 213.91957092285156 102.67475128173828 C 187.53045654296875 115.2870864868164 172.08477783203125 86.80972290039062 224.46310424804688 60.42875671386719 C 203.30938720703125 104.18144226074219 207.2877197265625 116.36585998535156 199.96885681152344 124.41845703125 L 214.76861572265625 82.28865814208984" stroke-width="2.0" fill="rgb(102, 181, 169)" opacity="0.43816254"/>
  </g>
</svg>
