<?xml version="1.0" ?>
<svg height="240" version="1.1" width="240" xmlns="http://www.w3.org/2000/svg">
  <defs/>
  <g>
    <path d="M -10.0 -10.0 C -9.0 -10.0 240.0 0.0 241.0 0.0 C 242.0 0.0 240.0 240.0 241.0 240.0 C 241.0 241.0 0.0 240.0 0.0 241.0 C 0.0 240.0 0.0 241.0 -10.0 -10.0 L -10.0 -10.0" fill="rgb(188, 134, 82)" opacity="0.7882394" stroke-width="2.0"/>
    <path d="M 252.4868927001953 101.12051391601562 C 221.7629852294922 110.5350570678711 192.21945190429688 88.79910278320312 209.56227111816406 131.29348754882812 C 269.52142333984375 78.48486328125 273.2070617675781 57.037715911865234 171.70884704589844 55.83894729614258 C 227.60418701171875 92.92537689208984 267.8364562988281 76.89596557617188 239.0338134765625 154.67181396484375 C 203.9778289794922 130.3192901611328 221.70343017578125 93.65371704101562 248.9762420654297 111.97969055175781 L 252.4868927001953 101.12051391601562" fill="rgb(91, 70, 33)" opacity="0.29862577" stroke-width="2.0"/>
    <path d="M 165.4834747314453 1.5893546342849731 C 151.36453247070312 -30.42603874206543 137.58563232421875 -36.536277770996094 143.692626953125 26.253995895385742 C 176.0623321533203 -0.6662220358848572 176.08729553222656 -43.11886215209961 152.0375213623047 -18.913166046142578 C 169.73040771484375 31.115428924560547 170.5162353515625 54.91796112060547 163.52850341796875 -4.1517229080200195 C 155.428955078125 27.656694412231445 143.83079528808594 10.412372589111328 165.71099853515625 23.23484992980957 L 165.4834747314453 1.5893546342849731" fill="rgb(57, 62, 76)" opacity="0.5960536" stroke-width="2.0"/>
    <path d="M 82.06826782226562 143.4850311279297 C 84.65332794189453 129.26309204101562 99.58418273925781 133.0415496826172 73.16854095458984 138.481689453125 C 84.84229278564453 158.02403259277344 84.27897644042969 134.22906494140625 76.632568359375 142.33102416992188 C 78.89198303222656 158.50755310058594 59.86132049560547 162.49632263183594 59.06585693359375 166.10255432128906 C 92.18741607666016 185.25686645507812 74.3298110961914 143.11102294921875 83.43795776367188 139.83871459960938 L 82.06826782226562 143.4850311279297" fill="rgb(0, 0, 0)" opacity="1.0" stroke-width="2.0"/>
    <path d="M -0.17279043793678284 115.92426300048828 C -4.380794048309326 108.03369140625 -26.360668182373047 85.6181869506836 29.11896514892578 74.70606994628906 C 8.422465324401855 115.4088134765625 6.2545881271362305 115.99029541015625 10.927618980407715 115.52870178222656 C -0.010930676013231277 127.63861083984375 13.795470237731934 118.75892639160156 28.4182071685791 83.80817413330078 C 6.744459629058838 104.10089874267578 14.009105682373047 115.96531677246094 0.4932140111923218 137.5277099609375 L -0.17279043793678284 115.92426300048828" fill="rgb(138, 88, 36)" opacity="0.8617031" stroke-width="2.0"/>
    <path d="M 174.7605438232422 33.33504104614258 C 137.5270233154297 13.059484481811523 151.80592346191406 17.017995834350586 139.90086364746094 48.48334503173828 C 87.31169891357422 67.14986419677734 145.46633911132812 42.67848205566406 141.80606079101562 12.014419555664062 C 121.20063018798828 15.453736305236816 97.80716705322266 11.624055862426758 73.71747589111328 37.94676208496094 C 175.4228515625 53.41917419433594 116.90872192382812 1.48756742477417 161.1244354248047 20.13517189025879 L 174.7605438232422 33.33504104614258" fill="rgb(247, 224, 198)" opacity="0.8684294" stroke-width="2.0"/>
    <path d="M 145.71400451660156 118.09467315673828 C 112.71714782714844 50.43659210205078 166.8176727294922 -20.48735237121582 131.27389526367188 161.88002014160156 C 74.5220718383789 156.72801208496094 62.167144775390625 155.06092834472656 75.3711166381836 101.47174072265625 C 86.16329956054688 101.46546173095703 118.40665435791016 99.86490631103516 104.33226013183594 75.58740997314453 C 121.88923645019531 80.73532104492188 118.83162689208984 83.55142974853516 116.70492553710938 83.4327163696289 L 145.71400451660156 118.09467315673828" fill="rgb(254, 227, 193)" opacity="0.7738649" stroke-width="2.0"/>
    <path d="M -5.571685791015625 98.19025421142578 C 4.646762847900391 100.3398666381836 -6.168877124786377 127.96266174316406 42.8322639465332 156.68934631347656 C 51.50715637207031 89.77025604248047 46.0540771484375 88.48014831542969 -5.4011101722717285 87.4271011352539 C 1.2609106302261353 109.63970947265625 3.5262694358825684 119.57001495361328 12.20184326171875 130.55467224121094 C 25.43453598022461 149.7947998046875 48.640098571777344 149.4103546142578 0.48775923252105713 171.18946838378906 L -5.571685791015625 98.19025421142578" fill="rgb(19, 146, 253)" opacity="0.5848339" stroke-width="2.0"/>
    <path d="M 21.311233520507812 149.24124145507812 C 10.081582069396973 148.1470184326172 -9.976866722106934 146.70411682128906 -10.472829818725586 146.55050659179688 C 40.617610931396484 150.6595001220703 34.537506103515625 150.24539184570312 31.67679214477539 149.3874969482422 C -10.51161003112793 196.6839141845703 34.82504653930664 169.59048461914062 67.57604217529297 165.8726043701172 C -11.320563316345215 159.13467407226562 -24.588422775268555 177.9771728515625 14.28470230102539 177.13406372070312 L 21.311233520507812 149.24124145507812" fill="rgb(161, 223, 255)" opacity="1.0" stroke-width="2.0"/>
    <path d="M 179.2028350830078 227.28326416015625 C 156.4620819091797 226.4726104736328 201.1708221435547 230.56077575683594 271.46966552734375 213.85385131835938 C 131.20211791992188 193.3416748046875 250.7645263671875 220.96022033691406 157.75115966796875 226.66163635253906 C 134.3508758544922 236.02944946289062 196.94085693359375 224.01197814941406 229.0952606201172 225.4912109375 C 200.34376525878906 220.48831176757812 174.6631622314453 234.96084594726562 177.7396240234375 221.76388549804688 L 179.2028350830078 227.28326416015625" fill="rgb(92, 47, 3)" opacity="0.5679941" stroke-width="2.0"/>
    <path d="M 172.2925262451172 33.3651008605957 C 175.87245178222656 57.56515121459961 162.15667724609375 53.0753173828125 199.2584686279297 52.364776611328125 C 213.4811553955078 53.11383819580078 215.27374267578125 51.493629455566406 184.26541137695312 55.579078674316406 C 180.32981872558594 55.83421325683594 164.76295471191406 53.50940704345703 189.3155059814453 56.88206100463867 C 179.22911071777344 52.42189025878906 207.23245239257812 69.78851318359375 227.81576538085938 42.383575439453125 L 172.2925262451172 33.3651008605957" fill="rgb(82, 175, 244)" opacity="0.6807544" stroke-width="2.0"/>
    <path d="M -10.236674308776855 70.4651870727539 C -3.2764298915863037 77.29662322998047 -36.0366325378418 71.20896911621094 28.2641658782959 17.78407859802246 C 73.823486328125 29.468168258666992 52.430423736572266 61.37049865722656 28.711761474609375 79.73011779785156 C 10.029239654541016 89.4564208984375 12.090104103088379 91.18860626220703 19.251605987548828 84.96815490722656 C -24.267318725585938 87.18817901611328 -4.760756015777588 112.57987213134766 -11.353687286376953 116.46823120117188 L -10.236674308776855 70.4651870727539" fill="rgb(20, 0, 16)" opacity="0.7775372" stroke-width="2.0"/>
    <path d="M 188.81781005859375 114.5890121459961 C 188.64634704589844 114.37097930908203 186.9038543701172 111.73967742919922 185.55628967285156 111.1497573852539 C 185.69607543945312 110.63275909423828 185.42526245117188 110.71379852294922 186.499755859375 111.72254180908203 C 187.6516571044922 113.90936279296875 189.1711883544922 113.85929107666016 187.4370574951172 112.60987854003906 C 189.39376831054688 114.18694305419922 186.88511657714844 113.04518127441406 187.75750732421875 113.10546112060547 L 188.81781005859375 114.5890121459961" fill="rgb(140, 157, 145)" opacity="0.19606282" stroke-width="2.0"/>
    <path d="M 239.3092803955078 128.56192016601562 C 223.35330200195312 116.84391784667969 220.78500366210938 112.64703369140625 173.0307159423828 101.96705627441406 C 149.16004943847656 59.72984313964844 162.5311737060547 68.76506805419922 156.81463623046875 179.98497009277344 C 158.10752868652344 -11.519535064697266 153.57183837890625 27.678110122680664 165.8881378173828 32.89848327636719 C 235.365966796875 42.75168991088867 248.4023895263672 49.80019760131836 243.6338348388672 49.04117202758789 L 239.3092803955078 128.56192016601562" fill="rgb(72, 34, 15)" opacity="0.44163725" stroke-width="2.0"/>
    <path d="M 135.703125 205.24916076660156 C 136.5045928955078 196.55023193359375 140.57298278808594 168.0899200439453 136.25457763671875 194.95726013183594 C 129.18934631347656 200.6035919189453 119.91018676757812 205.5125274658203 103.66413116455078 207.49118041992188 C 112.81603240966797 205.11695861816406 130.7073211669922 198.79238891601562 115.9063720703125 182.63575744628906 C 154.61111450195312 183.73251342773438 144.38832092285156 192.9110870361328 116.9599609375 205.74176025390625 L 135.703125 205.24916076660156" fill="rgb(47, 23, 2)" opacity="0.86121774" stroke-width="2.0"/>
    <path d="M 105.84236907958984 181.1248779296875 C 102.43801879882812 187.87962341308594 87.99535369873047 157.588134765625 83.74112701416016 169.6067352294922 C 69.38490295410156 191.0153045654297 44.4299430847168 176.04750061035156 69.93578338623047 204.1684112548828 C 36.76071548461914 100.88516235351562 13.336551666259766 109.82768249511719 69.23865509033203 124.66670227050781 C 82.80978393554688 170.14414978027344 85.68331909179688 151.38023376464844 98.58487701416016 155.1806640625 L 105.84236907958984 181.1248779296875" fill="rgb(139, 204, 255)" opacity="0.87011737" stroke-width="2.0"/>
    <path d="M 74.13491821289062 206.70655822753906 C 16.27607536315918 203.43653869628906 28.418201446533203 194.1194305419922 30.583599090576172 217.2255401611328 C -45.36910629272461 227.3420867919922 -21.599153518676758 240.33250427246094 -14.339289665222168 252.8240966796875 C -13.79569149017334 183.88058471679688 -8.429566383361816 197.79937744140625 35.79429626464844 190.76803588867188 C 83.80608367919922 186.4536590576172 56.566322326660156 203.0560302734375 71.77987670898438 194.42031860351562 L 74.13491821289062 206.70655822753906" fill="rgb(255, 208, 154)" opacity="0.84329915" stroke-width="2.0"/>
    <path d="M 139.4068145751953 16.238956451416016 C 111.8653793334961 11.268254280090332 99.4321060180664 19.68098258972168 91.32975769042969 23.341552734375 C 47.6735725402832 49.53410339355469 71.44310760498047 74.18997192382812 45.41044616699219 66.47480773925781 C 42.51756286621094 -39.366119384765625 46.59498596191406 -26.617826461791992 58.50248336791992 -11.307304382324219 C 111.63518524169922 -10.474963188171387 112.24360656738281 -10.092750549316406 143.9590301513672 -21.4180908203125 L 139.4068145751953 16.238956451416016" fill="rgb(57, 86, 116)" opacity="0.7298017" stroke-width="2.0"/>
    <path d="M 255.9656982421875 149.29464721679688 C 209.85125732421875 173.56817626953125 191.70062255859375 147.68655395507812 231.87391662597656 102.4509048461914 C 272.5257263183594 162.4416046142578 240.21368408203125 160.87905883789062 149.55104064941406 168.5616455078125 C 199.4803924560547 186.38893127441406 248.09487915039062 180.00830078125 219.3076629638672 182.78379821777344 C 151.4267578125 177.5075225830078 167.52728271484375 171.9669647216797 243.9229278564453 187.0997772216797 L 255.9656982421875 149.29464721679688" fill="rgb(50, 49, 51)" opacity="0.16970763" stroke-width="2.0"/>
    <path d="M -5.281169414520264 90.98021697998047 C 39.4312858581543 39.47773361206055 102.77266693115234 5.6953535079956055 48.28761291503906 86.3207015991211 C 29.09236717224121 93.87693786621094 67.00743865966797 91.30619812011719 65.3752212524414 103.25424194335938 C 17.41399383544922 128.17880249023438 64.30169677734375 130.31443786621094 68.20590209960938 97.52981567382812 C 29.838510513305664 130.1494598388672 58.58052062988281 118.0663070678711 -1.9213999509811401 139.1956024169922 L -5.281169414520264 90.98021697998047" fill="rgb(110, 116, 120)" opacity="0.8379614" stroke-width="2.0"/>
    <path d="M 119.19123840332031 202.70965576171875 C 121.2933578491211 190.18399047851562 94.97026824951172 200.34446716308594 137.09866333007812 213.53878784179688 C -3.8123269081115723 197.0397186279297 125.92430114746094 217.07229614257812 82.23211669921875 189.57855224609375 C 144.36181640625 195.43788146972656 100.4701156616211 222.4341583251953 125.36495208740234 182.76878356933594 C 139.64125061035156 185.85421752929688 75.9844970703125 178.5010986328125 129.98272705078125 180.78610229492188 L 119.19123840332031 202.70965576171875" fill="rgb(255, 229, 166)" opacity="1.0" stroke-width="2.0"/>
    <path d="M 92.25354766845703 130.40460205078125 C 50.64484786987305 184.2426300048828 52.51045227050781 186.36534118652344 26.778812408447266 89.805908203125 C 82.1846694946289 97.8326416015625 67.78120422363281 93.28372192382812 56.91554641723633 119.81686401367188 C 68.78519439697266 124.61038970947266 84.58753204345703 115.844482421875 62.41915512084961 139.89303588867188 C 2.2541983127593994 141.760498046875 16.870973587036133 166.0441131591797 29.426959991455078 166.26055908203125 L 92.25354766845703 130.40460205078125" fill="rgb(112, 124, 134)" opacity="0.9037139" stroke-width="2.0"/>
    <path d="M 214.8656005859375 105.14122772216797 C 172.0291290283203 99.38214874267578 189.5345001220703 106.23976135253906 168.5186309814453 137.0535430908203 C 211.73289489746094 109.36276245117188 203.98974609375 120.8801498413086 159.47923278808594 181.08839416503906 C 198.90113830566406 162.50949096679688 214.4092559814453 158.7340087890625 211.47752380371094 119.5250244140625 C 158.7919464111328 137.5873565673828 159.011962890625 125.92276000976562 165.70298767089844 172.71295166015625 L 214.8656005859375 105.14122772216797" fill="rgb(71, 130, 218)" opacity="0.09967264" stroke-width="2.0"/>
    <path d="M 255.7682647705078 57.90232467651367 C 256.3695068359375 56.62006378173828 259.1477355957031 45.190162658691406 171.14501953125 33.73518371582031 C 146.32644653320312 -12.884626388549805 158.7993621826172 -19.30751609802246 186.1293182373047 -11.50166130065918 C 188.79257202148438 -5.560894012451172 214.2080078125 -9.536890029907227 180.7456817626953 -14.186010360717773 C 169.82810974121094 -7.861911773681641 171.87350463867188 -5.661567211151123 251.8923797607422 -19.89618682861328 L 255.7682647705078 57.90232467651367" fill="rgb(3, 51, 102)" opacity="0.5708943" stroke-width="2.0"/>
    <path d="M 223.380615234375 32.06169509887695 C 264.0810546875 51.76638412475586 208.60787963867188 49.509830474853516 168.75140380859375 29.963056564331055 C 138.4287109375 74.75785827636719 128.92225646972656 41.49436569213867 155.16746520996094 46.54330825805664 C 186.295166015625 15.141524314880371 157.2032928466797 33.738487243652344 129.28012084960938 -8.688921928405762 C 205.87554931640625 -9.733052253723145 148.6783447265625 12.81130599975586 172.69557189941406 15.869516372680664 L 223.380615234375 32.06169509887695" fill="rgb(94, 103, 114)" opacity="0.8631625" stroke-width="2.0"/>
    <path d="M 194.95265197753906 97.82858276367188 C 192.99288940429688 87.30355072021484 195.87564086914062 88.46698760986328 195.8733367919922 93.00540161132812 C 204.21519470214844 92.07487487792969 198.6058807373047 90.81684112548828 192.00607299804688 91.64311981201172 C 196.644287109375 88.98210144042969 194.3803253173828 91.03805541992188 198.0164337158203 89.76277923583984 C 196.08900451660156 89.7977523803711 196.1251220703125 91.67516326904297 197.0705108642578 88.70256042480469 L 194.95265197753906 97.82858276367188" fill="rgb(195, 174, 131)" opacity="0.24665" stroke-width="2.0"/>
    <path d="M 134.5041961669922 186.97364807128906 C 122.28620910644531 209.5210418701172 133.62245178222656 201.01145935058594 104.79783630371094 202.1088104248047 C 86.61693572998047 157.32733154296875 102.99884796142578 164.8182830810547 105.43460083007812 180.50189208984375 C 59.72001647949219 180.28883361816406 132.9062042236328 161.73916625976562 85.861328125 159.53688049316406 C 103.27144622802734 143.7637481689453 125.50709533691406 150.90882873535156 88.39209747314453 156.60926818847656 L 134.5041961669922 186.97364807128906" fill="rgb(179, 126, 71)" opacity="0.4063187" stroke-width="2.0"/>
    <path d="M 100.2563705444336 203.165283203125 C 99.91997528076172 203.5065155029297 99.11087799072266 203.37733459472656 99.79185485839844 202.66744995117188 C 102.73738098144531 196.2737274169922 97.64698791503906 194.34420776367188 101.13312530517578 202.45327758789062 C 98.43716430664062 209.61386108398438 100.52603149414062 213.63623046875 100.93183135986328 212.82626342773438 C 93.91386413574219 199.2062225341797 126.37052154541016 179.37416076660156 100.1479263305664 183.00682067871094 L 100.2563705444336 203.165283203125" fill="rgb(124, 75, 27)" opacity="0.87407374" stroke-width="2.0"/>
    <path d="M 157.01626586914062 75.46783447265625 C 196.20968627929688 124.45288848876953 163.940673828125 139.3804473876953 164.92234802246094 153.33645629882812 C 168.05262756347656 141.30165100097656 167.02748107910156 128.75003051757812 175.22885131835938 105.55387878417969 C 178.69290161132812 128.5325469970703 171.7572021484375 143.85618591308594 174.4037628173828 107.82518005371094 C 152.58790588378906 180.02110290527344 179.40682983398438 218.98854064941406 157.32362365722656 196.43336486816406 L 157.01626586914062 75.46783447265625" fill="rgb(56, 17, 0)" opacity="0.3756145" stroke-width="2.0"/>
    <path d="M -8.910901069641113 17.15500831604004 C -21.601903915405273 119.4457015991211 4.677544593811035 76.48997497558594 67.52412414550781 97.98776245117188 C 69.46835327148438 94.68145751953125 72.0291748046875 99.92877197265625 48.95232009887695 75.49437713623047 C 44.32382583618164 71.41954040527344 42.21709060668945 68.92388916015625 -17.601890563964844 8.228479385375977 C 83.9304428100586 18.06422996520996 44.80564880371094 44.16987228393555 73.0956039428711 100.22085571289062 L -8.910901069641113 17.15500831604004" fill="rgb(102, 117, 129)" opacity="0.8742757" stroke-width="2.0"/>
    <path d="M 114.62648010253906 97.10440063476562 C 114.787353515625 95.74222564697266 114.61283111572266 96.61033630371094 114.28669738769531 96.49054718017578 C 113.57923889160156 96.58165740966797 114.35518646240234 96.66824340820312 114.38984680175781 96.08999633789062 C 114.16603088378906 96.81568908691406 113.94586944580078 96.33863067626953 114.27632141113281 96.54032897949219 C 113.99681091308594 96.45983123779297 114.43679809570312 96.63555145263672 114.68306732177734 96.30243682861328 L 114.62648010253906 97.10440063476562" fill="rgb(162, 106, 133)" opacity="0.00037668753" stroke-width="2.0"/>
    <path d="M 56.05312728881836 118.57171630859375 C 28.18359375 127.84580993652344 22.007410049438477 132.8852996826172 42.518524169921875 128.50796508789062 C 38.76981735229492 128.91293334960938 37.68767166137695 128.64239501953125 39.65723419189453 128.8737335205078 C 38.0979118347168 128.31350708007812 42.90647888183594 124.27886199951172 10.375055313110352 161.72523498535156 C -21.84396743774414 145.8447723388672 73.50513458251953 208.69583129882812 74.74161529541016 133.52938842773438 L 56.05312728881836 118.57171630859375" fill="rgb(103, 164, 211)" opacity="0.8963449" stroke-width="2.0"/>
    <path d="M 261.64996337890625 175.20797729492188 C 190.66500854492188 178.1680145263672 174.7882537841797 168.35330200195312 172.0690155029297 176.8491668701172 C 196.68798828125 174.72544860839844 196.7154998779297 170.8843536376953 196.64097595214844 175.67221069335938 C 193.9196014404297 171.2896270751953 194.9590301513672 173.73094177246094 195.10903930664062 172.3812713623047 C 173.6499786376953 180.20654296875 167.23431396484375 173.53021240234375 175.2682342529297 167.06663513183594 L 261.64996337890625 175.20797729492188" fill="rgb(142, 106, 71)" opacity="0.5394057" stroke-width="2.0"/>
    <path d="M -16.66069793701172 43.40998840332031 C -6.114139556884766 50.81649398803711 4.3262529373168945 35.12369918823242 22.32866859436035 30.62845802307129 C 13.85327434539795 32.069091796875 11.462785720825195 38.112361907958984 -0.07646122574806213 35.84347152709961 C 11.207447052001953 33.66192626953125 4.1041059494018555 41.212772369384766 -18.989500045776367 38.624691009521484 C 29.605085372924805 24.367298126220703 53.41078186035156 11.502585411071777 37.870506286621094 8.021906852722168 L -16.66069793701172 43.40998840332031" fill="rgb(255, 255, 255)" opacity="1.0" stroke-width="2.0"/>
    <path d="M 271.5574645996094 113.38104248046875 C 245.01922607421875 63.650360107421875 239.11329650878906 68.12093353271484 247.85328674316406 65.44915771484375 C 260.95428466796875 57.73819351196289 270.8680114746094 46.37537384033203 225.8665008544922 44.72494125366211 C 202.0222930908203 62.146888732910156 195.71969604492188 32.61953353881836 174.842041015625 54.20217514038086 C 233.82058715820312 73.37027740478516 259.39788818359375 49.02614974975586 256.4073181152344 97.13572692871094 L 271.5574645996094 113.38104248046875" fill="rgb(100, 112, 122)" opacity="1.0" stroke-width="2.0"/>
    <path d="M 39.7337532043457 200.7959747314453 C 79.47826385498047 204.77964782714844 39.19459533691406 156.50067138671875 75.7419662475586 181.2749481201172 C 58.73967742919922 175.8051300048828 71.49211120605469 206.07504272460938 65.878173828125 166.73208618164062 C 63.10881423950195 161.46759033203125 68.47103118896484 164.40301513671875 67.38421630859375 195.57626342773438 C 68.25247955322266 195.62474060058594 66.645263671875 200.5035858154297 25.689128875732422 202.3376007080078 L 39.7337532043457 200.7959747314453" fill="rgb(157, 168, 177)" opacity="0.9224261" stroke-width="2.0"/>
    <path d="M 115.2112045288086 80.88504028320312 C 91.87034606933594 78.2898941040039 88.20862579345703 77.00738525390625 71.97473907470703 83.71302032470703 C 68.15816497802734 58.383148193359375 82.33625793457031 133.07923889160156 58.91524887084961 119.38583374023438 C 84.81777954101562 71.12706756591797 52.31649398803711 110.16435241699219 68.54447174072266 60.00137710571289 C 94.30928802490234 38.613059997558594 88.27378845214844 58.64684295654297 93.43850708007812 63.111846923828125 L 115.2112045288086 80.88504028320312" fill="rgb(253, 227, 197)" opacity="0.8978516" stroke-width="2.0"/>
    <path d="M 189.9090118408203 7.609432697296143 C 245.9467315673828 25.913911819458008 257.1765441894531 22.083087921142578 219.83724975585938 78.25188446044922 C 198.87744140625 82.1787338256836 191.66094970703125 63.47644805908203 184.45704650878906 78.18130493164062 C 211.3836669921875 93.96833038330078 201.71875 80.74938201904297 190.3135223388672 7.547239303588867 C 134.2151336669922 -8.305283546447754 168.07919311523438 62.38079071044922 201.85108947753906 73.14576721191406 L 189.9090118408203 7.609432697296143" fill="rgb(121, 137, 149)" opacity="0.16358912" stroke-width="2.0"/>
    <path d="M 232.9724578857422 157.2061309814453 C 234.05862426757812 159.64828491210938 234.0320281982422 159.22190856933594 232.85081481933594 155.11016845703125 C 234.54510498046875 159.50912475585938 239.4925994873047 155.0113983154297 251.5041046142578 164.085205078125 C 233.55784606933594 175.14529418945312 233.06103515625 161.91683959960938 183.81114196777344 164.79837036132812 C 216.06983947753906 157.8655548095703 230.80369567871094 160.40013122558594 245.25802612304688 157.9469451904297 L 232.9724578857422 157.2061309814453" fill="rgb(79, 46, 11)" opacity="0.37581936" stroke-width="2.0"/>
    <path d="M 58.2165412902832 198.1767578125 C 25.239431381225586 205.7421875 27.198511123657227 193.3124237060547 29.842817306518555 217.34410095214844 C -20.923309326171875 225.72384643554688 -13.438556671142578 227.93418884277344 -12.265205383300781 219.42567443847656 C -11.118826866149902 162.8380126953125 -9.050965309143066 159.7164764404297 7.900239944458008 163.2880096435547 C 75.46417236328125 151.47024536132812 94.6094741821289 106.56552124023438 59.296531677246094 175.6283721923828 L 58.2165412902832 198.1767578125" fill="rgb(112, 166, 217)" opacity="0.5828844" stroke-width="2.0"/>
    <path d="M 152.22943115234375 170.30018615722656 C 107.51659393310547 164.3837890625 86.49221801757812 177.5511932373047 177.71771240234375 177.3795166015625 C 74.28800964355469 196.6050567626953 144.38668823242188 152.9881134033203 105.87442016601562 169.29566955566406 C 86.11692810058594 146.67433166503906 101.11455535888672 148.4535675048828 122.38575744628906 160.67276000976562 C 143.06210327148438 173.4747772216797 138.09303283691406 51.51902389526367 151.37380981445312 36.437461853027344 L 152.22943115234375 170.30018615722656" fill="rgb(99, 39, 0)" opacity="0.45493737" stroke-width="2.0"/>
    <path d="M 39.98835754394531 119.54326629638672 C 39.31459426879883 120.1061782836914 39.30192947387695 119.17224884033203 38.98732376098633 120.54534149169922 C 37.87567901611328 122.16487121582031 37.998600006103516 120.34004211425781 39.70588684082031 119.85641479492188 C 40.31459426879883 117.96403503417969 39.6652946472168 119.78177642822266 39.8089599609375 118.71932220458984 C 39.4631233215332 119.5527572631836 39.02843475341797 120.3613510131836 39.751319885253906 118.8138656616211 L 39.98835754394531 119.54326629638672" fill="rgb(168, 180, 73)" opacity="0.0010073873" stroke-width="2.0"/>
    <path d="M 172.60748291015625 40.64152908325195 C 144.29066467285156 35.05317687988281 159.4581756591797 -6.937195777893066 156.79193115234375 80.55270385742188 C 22.304086685180664 101.73048400878906 105.14215850830078 115.91123962402344 92.00711059570312 24.696308135986328 C 92.85847473144531 19.058826446533203 111.8147964477539 33.67692565917969 106.80828857421875 16.452367782592773 C 138.61326599121094 11.315463066101074 171.2926483154297 18.688861846923828 171.9857940673828 35.36969757080078 L 172.60748291015625 40.64152908325195" fill="rgb(255, 229, 191)" opacity="0.24102174" stroke-width="2.0"/>
    <path d="M 114.43598175048828 203.2496337890625 C 116.08698272705078 216.66403198242188 129.66390991210938 182.16073608398438 130.9879150390625 161.7357940673828 C 126.456298828125 186.4547576904297 128.24093627929688 183.35580444335938 104.61389923095703 192.73196411132812 C 132.18063354492188 178.21421813964844 126.82518005371094 182.89183044433594 164.4487762451172 183.34010314941406 C 109.11822509765625 184.1492919921875 130.79934692382812 181.435546875 120.75929260253906 189.14874267578125 L 114.43598175048828 203.2496337890625" fill="rgb(255, 255, 203)" opacity="1.0" stroke-width="2.0"/>
    <path d="M 124.43016052246094 157.8726806640625 C 92.49472045898438 165.67633056640625 95.5254898071289 149.38555908203125 105.91957092285156 149.401611328125 C 98.22059631347656 149.21951293945312 107.0609130859375 152.8999786376953 132.7891082763672 129.29444885253906 C 116.6153564453125 200.0568084716797 139.51710510253906 127.39009857177734 133.57168579101562 127.22666931152344 C 129.16006469726562 158.64816284179688 123.37627410888672 160.10086059570312 121.7475814819336 158.2465057373047 L 124.43016052246094 157.8726806640625" fill="rgb(134, 84, 48)" opacity="1.0" stroke-width="2.0"/>
    <path d="M 246.86990356445312 216.06805419921875 C 196.8707275390625 223.7232666015625 163.092041015625 229.97796630859375 157.0445098876953 229.74853515625 C 147.44430541992188 229.0517120361328 152.1094970703125 235.27284240722656 149.46755981445312 214.5100860595703 C 236.7197723388672 199.318115234375 144.07510375976562 216.76580810546875 158.83737182617188 203.16148376464844 C 185.58216857910156 192.643798828125 132.0748748779297 206.572509765625 242.79336547851562 203.19284057617188 L 246.86990356445312 216.06805419921875" fill="rgb(30, 8, 5)" opacity="0.601351" stroke-width="2.0"/>
    <path d="M 211.61721801757812 220.02268981933594 C 325.9234619140625 254.82354736328125 222.09634399414062 226.65025329589844 106.17391204833984 259.6684265136719 C 61.852970123291016 251.55789184570312 59.528778076171875 251.84381103515625 68.00357818603516 274.8992004394531 C 92.04420471191406 228.95147705078125 66.28233337402344 216.94732666015625 102.48837280273438 228.40017700195312 C 64.35050201416016 219.61705017089844 57.17909622192383 219.60400390625 151.7628631591797 230.09226989746094 L 211.61721801757812 220.02268981933594" fill="rgb(160, 209, 255)" opacity="0.54170954" stroke-width="2.0"/>
    <path d="M 105.76449584960938 22.210105895996094 C 102.75758361816406 23.21192169189453 120.31978607177734 16.855880737304688 118.49166107177734 24.0404052734375 C 122.63253021240234 16.058753967285156 47.64076232910156 30.566844940185547 61.84306716918945 77.03787994384766 C 71.73133850097656 34.87849426269531 71.99920654296875 46.73854446411133 129.7882080078125 28.83629035949707 C 107.37052917480469 17.01003074645996 71.7532958984375 43.82394027709961 108.0174560546875 20.693471908569336 L 105.76449584960938 22.210105895996094" fill="rgb(220, 181, 143)" opacity="1.0" stroke-width="2.0"/>
    <path d="M 159.75755310058594 175.06431579589844 C 146.3856201171875 215.76541137695312 184.0265655517578 223.39727783203125 171.5412139892578 170.12681579589844 C 161.92738342285156 176.04901123046875 160.6002197265625 168.6993408203125 138.8109588623047 170.1018524169922 C 166.927001953125 148.3133087158203 152.5020294189453 191.84609985351562 172.80540466308594 111.94793701171875 C 176.16673278808594 187.15719604492188 167.87513732910156 160.8098602294922 180.72802734375 166.70953369140625 L 159.75755310058594 175.06431579589844" fill="rgb(136, 101, 72)" opacity="0.77775365" stroke-width="2.0"/>
    <path d="M -0.527664065361023 138.41302490234375 C 103.73147583007812 103.47007751464844 18.43244171142578 124.83733367919922 96.39192962646484 128.80361938476562 C 72.49085998535156 147.39112854003906 74.91397857666016 170.80224609375 27.415712356567383 176.280029296875 C 75.9451675415039 155.34207153320312 76.49305725097656 214.11170959472656 81.31387329101562 139.95114135742188 C 66.1971435546875 132.55758666992188 92.48360443115234 185.60256958007812 -10.483718872070312 175.60678100585938 L -0.527664065361023 138.41302490234375" fill="rgb(134, 76, 31)" opacity="0.38399166" stroke-width="2.0"/>
    <path d="M 200.95924377441406 136.23414611816406 C 130.79100036621094 80.27616119384766 174.9836883544922 59.14406967163086 164.9770050048828 148.00686645507812 C 185.6544189453125 118.69570922851562 190.3170623779297 107.77433776855469 177.73268127441406 116.50554656982422 C 160.29672241210938 87.09829711914062 167.36758422851562 126.22860717773438 164.58224487304688 35.89930725097656 C 192.06166076660156 40.72909164428711 140.37738037109375 80.70709991455078 224.87448120117188 89.53553009033203 L 200.95924377441406 136.23414611816406" fill="rgb(149, 127, 104)" opacity="0.5144881" stroke-width="2.0"/>
    <path d="M 173.37307739257812 52.213653564453125 C 175.879150390625 46.841949462890625 158.24795532226562 60.25300216674805 242.91188049316406 65.0310287475586 C 246.343017578125 132.5076904296875 252.36318969726562 122.5967788696289 249.97132873535156 74.3216323852539 C 243.26431274414062 138.841064453125 245.329345703125 155.5164031982422 261.12115478515625 155.07066345214844 C 253.6712646484375 166.55447387695312 239.45458984375 152.49314880371094 173.4302978515625 166.3446807861328 L 173.37307739257812 52.213653564453125" fill="rgb(100, 128, 152)" opacity="0.75628227" stroke-width="2.0"/>
    <path d="M 79.63445281982422 -7.555154323577881 C 64.71044921875 -8.239869117736816 53.37873840332031 -1.906668782234192 50.04560470581055 6.186005115509033 C 36.212371826171875 29.990371704101562 90.6624984741211 -3.9598944187164307 122.25751495361328 3.083580732345581 C 50.31941223144531 -5.440496921539307 52.663429260253906 -8.328478813171387 45.25089645385742 23.06743621826172 C -8.911282539367676 48.406925201416016 -11.895359992980957 67.58125305175781 -18.046401977539062 0.8528667092323303 L 79.63445281982422 -7.555154323577881" fill="rgb(88, 98, 109)" opacity="1.0" stroke-width="2.0"/>
    <path d="M 206.61196899414062 124.32466888427734 C 204.6826171875 129.1432342529297 202.6392364501953 131.27322387695312 206.42404174804688 135.1816864013672 C 209.0466766357422 128.4667205810547 208.1687774658203 127.87649536132812 209.44509887695312 128.74395751953125 C 209.05258178710938 129.57150268554688 210.2328338623047 129.8249969482422 208.9844970703125 133.62635803222656 C 206.11309814453125 128.769287109375 206.87989807128906 128.5094757080078 208.0886688232422 127.51901245117188 L 206.61196899414062 124.32466888427734" fill="rgb(122, 158, 188)" opacity="0.0" stroke-width="2.0"/>
    <path d="M 272.4739685058594 231.95425415039062 C 165.94564819335938 224.76522827148438 239.4361114501953 203.4705352783203 193.66387939453125 204.3448028564453 C 166.563720703125 199.54623413085938 179.25889587402344 212.91249084472656 178.79833984375 173.96484375 C 179.34695434570312 198.42529296875 171.3817901611328 228.68995666503906 173.68667602539062 165.812744140625 C 211.1971893310547 160.0871124267578 190.84959411621094 159.97994995117188 257.5691223144531 159.558837890625 L 272.4739685058594 231.95425415039062" fill="rgb(113, 170, 221)" opacity="0.52520525" stroke-width="2.0"/>
    <path d="M 226.95645141601562 139.77235412597656 C 203.03846740722656 155.9486083984375 198.27786254882812 174.48910522460938 172.94322204589844 95.11293029785156 C 267.1452331542969 98.81974792480469 262.22454833984375 122.06239318847656 191.3949737548828 163.1665496826172 C 135.11605834960938 169.69378662109375 263.8144836425781 170.06761169433594 265.3306884765625 179.1503143310547 C 247.57872009277344 111.46698760986328 242.5863800048828 127.31631469726562 239.36770629882812 129.7816162109375 L 226.95645141601562 139.77235412597656" fill="rgb(117, 130, 141)" opacity="0.62780076" stroke-width="2.0"/>
    <path d="M 83.33196258544922 239.22291564941406 C 67.44718933105469 251.47158813476562 65.3929443359375 250.87554931640625 61.7731819152832 250.93983459472656 C 21.007431030273438 251.2465057373047 19.540742874145508 251.1111602783203 -9.405165672302246 248.78700256347656 C -7.639753818511963 219.5447998046875 -5.203861236572266 222.66156005859375 16.192123413085938 219.48977661132812 C 40.0806770324707 214.70785522460938 35.59164810180664 218.30084228515625 80.05182647705078 222.02230834960938 L 83.33196258544922 239.22291564941406" fill="rgb(184, 199, 216)" opacity="0.8156198" stroke-width="2.0"/>
    <path d="M 143.36074829101562 200.7375030517578 C 159.3958282470703 201.1314697265625 172.19171142578125 203.3274383544922 133.35525512695312 201.90679931640625 C 169.92855834960938 211.3276824951172 154.36044311523438 219.63047790527344 119.29511260986328 208.40992736816406 C 144.62144470214844 211.6060028076172 129.16636657714844 210.1980438232422 146.19375610351562 162.65304565429688 C 137.89158630371094 194.3893585205078 146.2516632080078 173.14422607421875 141.42884826660156 198.6743927001953 L 143.36074829101562 200.7375030517578" fill="rgb(255, 243, 180)" opacity="1.0" stroke-width="2.0"/>
    <path d="M 23.602806091308594 167.9844512939453 C 21.519319534301758 163.16940307617188 22.569852828979492 162.887451171875 24.194782257080078 162.03004455566406 C 26.59541893005371 163.18911743164062 28.754383087158203 165.6447296142578 35.116180419921875 150.5133514404297 C 26.358728408813477 146.6801300048828 15.351571083068848 141.03599548339844 -2.0948987007141113 170.49098205566406 C 43.20847702026367 184.6984405517578 28.039594650268555 123.85813903808594 62.967376708984375 144.7764892578125 L 23.602806091308594 167.9844512939453" fill="rgb(114, 127, 138)" opacity="0.5096543" stroke-width="2.0"/>
    <path d="M 118.10847473144531 131.3448028564453 C 116.67430877685547 130.80055236816406 118.15225982666016 131.36773681640625 117.3862533569336 131.39036560058594 C 118.43788146972656 131.04034423828125 117.0755615234375 131.2876739501953 117.70781707763672 130.5848388671875 C 117.21739959716797 131.30514526367188 117.92731475830078 131.28042602539062 117.19246673583984 131.2180938720703 C 118.78145599365234 131.0260467529297 117.88636779785156 131.95176696777344 118.42982482910156 130.7843017578125 L 118.10847473144531 131.3448028564453" fill="rgb(87, 250, 108)" opacity="0.040493555" stroke-width="2.0"/>
    <path d="M 163.31996154785156 237.7771759033203 C 112.19232177734375 265.9095153808594 100.1538314819336 250.1371612548828 94.96135711669922 250.96434020996094 C 61.04278564453125 251.1299285888672 28.050180435180664 266.4593811035156 15.248200416564941 231.87960815429688 C 42.28091049194336 222.7826690673828 54.946571350097656 227.88308715820312 81.06287384033203 226.3855743408203 C 79.3927230834961 222.55636596679688 71.33269500732422 221.22789001464844 144.27719116210938 229.82371520996094 L 163.31996154785156 237.7771759033203" fill="rgb(200, 201, 205)" opacity="0.72904086" stroke-width="2.0"/>
    <path d="M 153.8521728515625 230.31983947753906 C 112.44564056396484 227.77919006347656 93.50636291503906 222.2025146484375 98.67259216308594 225.33993530273438 C 114.11558532714844 224.21990966796875 116.4455795288086 227.79522705078125 29.940534591674805 216.6663055419922 C 19.993471145629883 190.7300567626953 65.833251953125 206.96302795410156 72.78878021240234 192.32664489746094 C 160.4473114013672 174.04263305664062 153.50155639648438 193.12893676757812 152.53358459472656 175.7716827392578 L 153.8521728515625 230.31983947753906" fill="rgb(105, 24, 0)" opacity="0.34832197" stroke-width="2.0"/>
    <path d="M 130.12564086914062 237.10635375976562 C 129.01478576660156 235.19776916503906 129.14776611328125 235.2666473388672 129.08038330078125 235.62158203125 C 131.01611328125 237.15513610839844 129.968994140625 236.67420959472656 128.82823181152344 236.02154541015625 C 128.8208465576172 236.01548767089844 129.10089111328125 236.24485778808594 128.78843688964844 235.82449340820312 C 130.39544677734375 236.66490173339844 131.4328155517578 238.0627899169922 128.9779052734375 234.83396911621094 L 130.12564086914062 237.10635375976562" fill="rgb(56, 85, 195)" opacity="0.0" stroke-width="2.0"/>
    <path d="M 102.53018188476562 169.6570587158203 C 66.87809753417969 164.83834838867188 77.74885559082031 199.60714721679688 79.85419464111328 152.46041870117188 C 121.48143768310547 182.2208709716797 137.76461791992188 138.78953552246094 87.47181701660156 155.2713165283203 C 84.09864807128906 184.24049377441406 70.03501892089844 167.4543914794922 105.06478118896484 168.7929229736328 C 79.04948425292969 139.05917358398438 78.21273040771484 185.69857788085938 106.42391967773438 182.804931640625 L 102.53018188476562 169.6570587158203" fill="rgb(102, 65, 42)" opacity="0.43609002" stroke-width="2.0"/>
  </g>
</svg>
