<?xml version="1.0" ?>
<svg xmlns="http://www.w3.org/2000/svg" version="1.1" width="240" height="240">
  <defs/>
  <g>
    <path d="M -10.0 -10.0 C -9.0 -10.0 240.0 0.0 241.0 -5.972866058349609 C 238.2220001220703 5.97286319732666 243.7779998779297 234.0271453857422 257.1293029785156 243.57139587402344 C 239.18077087402344 247.1778564453125 9.026861190795898 246.37472534179688 4.13023567199707 243.8303680419922 C -4.299039840698242 248.40740966796875 -10.839953422546387 244.69808959960938 -3.617969274520874 -11.660222053527832 L -10.0 -10.0" stroke-width="2.0" fill="rgb(102, 113, 124)" opacity="1.0"/>
    <path d="M 156.6770477294922 143.1891326904297 C 158.00706481933594 157.79879760742188 155.91790771484375 161.2999725341797 109.4659652709961 148.04904174804688 C 77.77210235595703 164.42706298828125 69.07608795166016 150.78395080566406 96.46238708496094 128.5447540283203 C 64.18553924560547 130.48812866210938 48.29897689819336 118.82084655761719 103.90846252441406 16.593101501464844 C 188.89646911621094 8.234028816223145 191.26083374023438 33.170440673828125 156.59263610839844 30.218029022216797 L 156.6770477294922 143.1891326904297" stroke-width="2.0" fill="rgb(245, 217, 184)" opacity="0.9973569"/>
    <path d="M 172.36868286132812 203.7237091064453 C 212.66481018066406 199.9530029296875 214.58160400390625 208.5171661376953 209.6680450439453 219.99339294433594 C 127.21905517578125 237.77780151367188 119.35005950927734 229.51995849609375 145.95944213867188 202.75071716308594 C 110.66029357910156 210.86590576171875 109.67324829101562 203.6378936767578 118.47903442382812 180.53228759765625 C 160.1051483154297 166.86585998535156 170.03883361816406 188.0365753173828 145.09571838378906 214.29196166992188 L 172.36868286132812 203.7237091064453" stroke-width="2.0" fill="rgb(61, 23, 5)" opacity="0.74326587"/>
    <path d="M 128.5249481201172 133.65045166015625 C 170.9741973876953 150.27377319335938 172.84115600585938 156.84780883789062 139.89356994628906 183.2545928955078 C 102.2435073852539 188.8338623046875 92.46024322509766 174.3317108154297 133.3961639404297 143.45899963378906 C 127.4244155883789 152.40484619140625 105.32329559326172 158.63165283203125 94.35619354248047 152.9493408203125 C 145.85140991210938 135.14208984375 151.65452575683594 145.34097290039062 131.5791473388672 158.48094177246094 L 128.5249481201172 133.65045166015625" stroke-width="2.0" fill="rgb(168, 79, 13)" opacity="0.5576438"/>
    <path d="M 111.22968292236328 76.59456634521484 C 155.17330932617188 77.353759765625 157.29110717773438 86.37618255615234 118.12274169921875 107.54150390625 C 115.8210678100586 104.33658599853516 124.95569610595703 95.3362808227539 123.55561828613281 91.84973907470703 C 123.41907501220703 79.08859252929688 111.96665954589844 78.31011962890625 108.52607727050781 75.48893737792969 C 132.95428466796875 71.43761444091797 144.5303497314453 96.04827117919922 166.54490661621094 85.68453216552734 L 111.22968292236328 76.59456634521484" stroke-width="2.0" fill="rgb(143, 75, 23)" opacity="0.7111578"/>
    <path d="M 123.47002410888672 67.94486999511719 C 133.39813232421875 62.562747955322266 154.67416381835938 67.59902954101562 153.75787353515625 80.57173156738281 C 131.9708251953125 94.32811737060547 117.2551040649414 88.09407043457031 116.73616790771484 79.68638610839844 C 119.22900390625 76.20731353759766 123.90945434570312 63.7757682800293 145.94610595703125 59.332881927490234 C 146.9229736328125 82.6181411743164 133.07489013671875 87.71627044677734 104.40394592285156 68.82169342041016 L 123.47002410888672 67.94486999511719" stroke-width="2.0" fill="rgb(203, 155, 110)" opacity="1.0"/>
    <path d="M 103.52367401123047 54.35649871826172 C 107.31856536865234 49.23728942871094 124.26165771484375 53.397071838378906 152.92892456054688 62.18623733520508 C 125.46563720703125 44.20947265625 86.10680389404297 64.76811981201172 69.3170166015625 59.34008026123047 C 117.45584106445312 49.50870895385742 125.91322326660156 47.14307403564453 129.5463409423828 48.29930877685547 C 129.40692138671875 50.37759017944336 119.69125366210938 51.07276153564453 119.2347183227539 61.626258850097656 L 103.52367401123047 54.35649871826172" stroke-width="2.0" fill="rgb(170, 110, 59)" opacity="0.89304495"/>
    <path d="M 134.40956115722656 130.91673278808594 C 153.9379119873047 111.01931762695312 158.84445190429688 113.99362182617188 146.23483276367188 170.63587951660156 C 137.79066467285156 139.89276123046875 119.34541320800781 134.2811737060547 102.55599975585938 157.77386474609375 C 120.59082794189453 133.84376525878906 138.42796325683594 133.77505493164062 145.83447265625 116.21853637695312 C 139.854736328125 137.46975708007812 150.8092498779297 141.3474884033203 152.2620086669922 144.67083740234375 L 134.40956115722656 130.91673278808594" stroke-width="2.0" fill="rgb(109, 55, 16)" opacity="0.770887"/>
    <path d="M 108.69061279296875 90.62300109863281 C 68.91495513916016 121.91252899169922 61.554141998291016 118.57141876220703 89.82060241699219 45.47986602783203 C 67.82764434814453 81.96600341796875 56.56788635253906 78.21890258789062 60.43544387817383 64.34402465820312 C 60.2126350402832 51.935794830322266 68.67550659179688 39.88961410522461 86.32549285888672 26.02638053894043 C 99.33920288085938 31.627086639404297 92.80686950683594 68.84268951416016 63.30344772338867 80.00423431396484 L 108.69061279296875 90.62300109863281" stroke-width="2.0" fill="rgb(209, 167, 128)" opacity="1.0"/>
    <path d="M 104.44698333740234 186.0214385986328 C 123.92172241210938 183.96974182128906 153.6747589111328 183.46673583984375 173.1427459716797 182.13548278808594 C 178.82354736328125 219.77081298828125 159.4190216064453 228.9596405029297 77.60585021972656 185.9568328857422 C 171.16226196289062 181.0973663330078 175.95065307617188 167.93670654296875 157.17921447753906 85.43331146240234 C 140.89752197265625 136.6177978515625 182.5438690185547 149.9827117919922 172.58981323242188 181.8417205810547 L 104.44698333740234 186.0214385986328" stroke-width="2.0" fill="rgb(121, 52, 1)" opacity="0.61833876"/>
    <path d="M 94.81969451904297 70.11774444580078 C 155.69395446777344 63.82767105102539 156.58314514160156 68.29317474365234 113.00051879882812 78.9412612915039 C 160.5244140625 73.38642120361328 159.5782012939453 59.7835693359375 88.65109252929688 64.02322387695312 C 112.12569427490234 76.51874542236328 122.23906707763672 57.270626068115234 131.75111389160156 56.282352447509766 C 128.69219970703125 49.99179458618164 119.38848876953125 49.617916107177734 111.5816650390625 74.7110595703125 L 94.81969451904297 70.11774444580078" stroke-width="2.0" fill="rgb(164, 97, 39)" opacity="0.5857038"/>
    <path d="M 120.96630096435547 128.40631103515625 C 121.69835662841797 134.91452026367188 130.7558135986328 146.8388214111328 112.30821228027344 189.52276611328125 C 118.36089324951172 156.69021606445312 106.76211547851562 153.8911895751953 80.12736511230469 153.5589599609375 C 106.71687316894531 139.74964904785156 127.65489196777344 149.45318603515625 154.8183135986328 118.995849609375 C 102.47328186035156 152.877685546875 107.14620971679688 162.00442504882812 157.1983642578125 162.79762268066406 L 120.96630096435547 128.40631103515625" stroke-width="2.0" fill="rgb(250, 199, 143)" opacity="0.5928442"/>
    <path d="M 157.1996307373047 190.2267303466797 C 148.6373291015625 165.90744018554688 122.78042602539062 173.34573364257812 139.99429321289062 311.55230712890625 C 158.59373474121094 183.67205810546875 154.3865203857422 173.0343780517578 113.0491943359375 182.45509338378906 C 154.05242919921875 188.7560577392578 156.59185791015625 179.28005981445312 138.57159423828125 171.4762725830078 C 146.5911102294922 182.92433166503906 139.5491180419922 196.57089233398438 147.13385009765625 211.00238037109375 L 157.1996307373047 190.2267303466797" stroke-width="2.0" fill="rgb(255, 227, 194)" opacity="0.7196437"/>
    <path d="M 125.10446166992188 159.17835998535156 C 113.33554077148438 184.42062377929688 96.10231018066406 201.57762145996094 119.3425064086914 230.91375732421875 C 117.00271606445312 202.50331115722656 100.52011108398438 198.8793182373047 91.19524383544922 190.47840881347656 C 101.75196075439453 171.5457763671875 116.35771179199219 164.2840118408203 155.31903076171875 182.4594268798828 C 113.21781158447266 177.86663818359375 106.48722839355469 184.46597290039062 120.1143798828125 202.12353515625 L 125.10446166992188 159.17835998535156" stroke-width="2.0" fill="rgb(119, 66, 26)" opacity="1.0"/>
    <path d="M 147.99667358398438 88.56729888916016 C 136.3328399658203 93.5186767578125 124.51531219482422 106.13220977783203 136.37998962402344 119.79631042480469 C 172.50257873535156 91.3473129272461 167.67161560058594 83.38154602050781 66.35950469970703 105.19219970703125 C 120.29106140136719 160.57150268554688 154.35401916503906 148.42164611816406 141.40489196777344 4.21714973449707 C 126.27487182617188 92.4710922241211 136.79840087890625 115.14036560058594 128.47207641601562 126.2276840209961 L 147.99667358398438 88.56729888916016" stroke-width="2.0" fill="rgb(246, 218, 185)" opacity="0.97712547"/>
    <path d="M 116.95323944091797 162.39987182617188 C 120.01641845703125 180.41636657714844 116.9837417602539 188.20521545410156 101.5498275756836 200.7571258544922 C 117.7243881225586 179.5019073486328 115.1806640625 174.318603515625 99.68517303466797 179.82205200195312 C 106.84757995605469 161.29104614257812 112.79037475585938 154.23887634277344 156.93101501464844 161.95071411132812 C 99.54988861083984 161.3765869140625 99.3706283569336 167.2265625 167.69961547851562 167.25320434570312 L 116.95323944091797 162.39987182617188" stroke-width="2.0" fill="rgb(255, 212, 162)" opacity="0.85002935"/>
    <path d="M 65.41658782958984 181.6140594482422 C 83.92868041992188 209.66580200195312 82.85709381103516 240.49050903320312 67.40880584716797 258.4360046386719 C 95.84522247314453 206.53575134277344 74.97852325439453 184.8723602294922 45.00322341918945 204.9141387939453 C 105.01390075683594 216.08335876464844 113.80232238769531 177.73590087890625 83.9273452758789 164.63644409179688 C 66.90010070800781 208.50662231445312 139.5143585205078 248.75013732910156 155.0443115234375 221.02676391601562 L 65.41658782958984 181.6140594482422" stroke-width="2.0" fill="rgb(145, 61, 0)" opacity="0.58381546"/>
    <path d="M 129.6500244140625 141.5688934326172 C 132.8288116455078 138.01918029785156 153.37347412109375 127.68335723876953 171.82760620117188 140.11326599121094 C 155.3888702392578 145.89576721191406 144.51596069335938 150.28306579589844 126.84375 135.52455139160156 C 141.4779815673828 133.1943817138672 163.444580078125 136.83175659179688 170.86099243164062 130.3983917236328 C 178.57936096191406 140.00157165527344 173.56256103515625 150.85049438476562 164.81942749023438 149.46243286132812 L 129.6500244140625 141.5688934326172" stroke-width="2.0" fill="rgb(161, 121, 94)" opacity="0.46350607"/>
    <path d="M 153.0343017578125 168.05421447753906 C 152.65655517578125 174.36170959472656 159.82130432128906 178.95921325683594 148.16067504882812 206.76043701171875 C 142.7457733154297 187.9930419921875 161.56747436523438 179.0971221923828 158.356201171875 147.0753631591797 C 166.64109802246094 165.3916473388672 175.5826416015625 165.38336181640625 178.116943359375 150.08856201171875 C 131.189697265625 217.537841796875 146.4684295654297 239.3389434814453 209.57298278808594 223.2852783203125 L 153.0343017578125 168.05421447753906" stroke-width="2.0" fill="rgb(229, 187, 142)" opacity="0.13576742"/>
    <path d="M 152.83860778808594 120.75353240966797 C 136.09521484375 108.72265625 134.30885314941406 110.88471984863281 146.1067352294922 131.20562744140625 C 139.83297729492188 118.23016357421875 135.2889404296875 118.85704803466797 137.85882568359375 145.5758819580078 C 152.90028381347656 122.2579345703125 135.3857879638672 107.00078582763672 108.6189956665039 127.45259857177734 C 126.98302459716797 121.56143951416016 143.42593383789062 118.79749298095703 152.89625549316406 111.50990295410156 L 152.83860778808594 120.75353240966797" stroke-width="2.0" fill="rgb(105, 46, 5)" opacity="0.7781574"/>
    <path d="M 172.2146453857422 28.07298469543457 C 147.45042419433594 26.15743637084961 128.7366485595703 135.45037841796875 146.99688720703125 139.01670837402344 C 158.45211791992188 100.03353118896484 145.89654541015625 95.67691802978516 124.32581329345703 131.8938751220703 C 121.75401306152344 123.98028564453125 143.11756896972656 112.13253021240234 147.30030822753906 103.38521575927734 C 145.93991088867188 112.70316314697266 161.60809326171875 118.5427017211914 173.46994018554688 92.8111343383789 L 172.2146453857422 28.07298469543457" stroke-width="2.0" fill="rgb(154, 109, 72)" opacity="0.84157556"/>
    <path d="M 144.9501953125 125.6412124633789 C 150.5871124267578 129.24325561523438 156.9995880126953 137.62100219726562 154.06015014648438 142.62570190429688 C 142.3241424560547 148.88705444335938 135.58279418945312 159.93203735351562 121.82592010498047 157.076416015625 C 143.58450317382812 148.2698516845703 160.19886779785156 144.46034240722656 155.91827392578125 124.21141815185547 C 153.87823486328125 134.97767639160156 143.35281372070312 141.45687866210938 137.35585021972656 132.51136779785156 L 144.9501953125 125.6412124633789" stroke-width="2.0" fill="rgb(251, 213, 166)" opacity="0.86333"/>
    <path d="M 113.72808837890625 188.4453887939453 C 102.77754974365234 206.15036010742188 15.702298164367676 258.8038024902344 75.55927276611328 364.89556884765625 C 187.8445587158203 258.1416015625 124.32476043701172 190.98068237304688 108.85508728027344 197.1677703857422 C 108.9360122680664 182.83799743652344 125.23162078857422 182.23341369628906 130.88755798339844 173.28651428222656 C 126.6244888305664 183.61439514160156 118.83768463134766 192.81744384765625 124.93988800048828 214.93446350097656 L 113.72808837890625 188.4453887939453" stroke-width="2.0" fill="rgb(255, 195, 145)" opacity="0.36964062"/>
    <path d="M 102.91268157958984 11.980355262756348 C 91.09813690185547 31.484378814697266 103.01725006103516 39.62051773071289 86.23509216308594 37.93965148925781 C 103.18306732177734 21.740440368652344 98.05947875976562 18.209932327270508 76.33204650878906 42.169857025146484 C 80.1480941772461 31.484752655029297 97.15536499023438 25.076210021972656 118.47480010986328 20.576662063598633 C 113.29606628417969 22.039283752441406 105.6909408569336 17.231143951416016 81.05149841308594 37.66361618041992 L 102.91268157958984 11.980355262756348" stroke-width="2.0" fill="rgb(173, 130, 93)" opacity="0.7913453"/>
    <path d="M 120.28115844726562 28.9844970703125 C 87.58724975585938 30.18329429626465 85.22379302978516 42.7827033996582 77.94853973388672 58.73238754272461 C 109.39147186279297 46.2618522644043 109.03807067871094 40.79694747924805 78.93059539794922 37.93667984008789 C 93.43409729003906 62.59120559692383 102.45805358886719 57.77872085571289 89.59474182128906 29.301565170288086 C 136.00686645507812 20.346359252929688 137.8413543701172 29.204139709472656 78.0620346069336 42.507450103759766 L 120.28115844726562 28.9844970703125" stroke-width="2.0" fill="rgb(166, 103, 50)" opacity="0.4483014"/>
    <path d="M 101.90621185302734 50.39300537109375 C 91.36644744873047 49.73581314086914 88.04373931884766 63.51705551147461 85.587890625 71.67239379882812 C 83.26397705078125 36.46186065673828 72.3607406616211 36.13010025024414 62.32100296020508 72.22225189208984 C 80.3297348022461 41.795005798339844 102.31588745117188 42.03960418701172 131.02334594726562 28.391490936279297 C 74.19695281982422 52.77566909790039 76.62579345703125 59.218658447265625 132.76983642578125 37.58631896972656 L 101.90621185302734 50.39300537109375" stroke-width="2.0" fill="rgb(191, 139, 92)" opacity="1.0"/>
    <path d="M 119.58892059326172 59.24217987060547 C 136.1691131591797 63.251590728759766 141.35763549804688 66.34011840820312 158.8794403076172 99.41690826416016 C 142.6486053466797 68.08602905273438 134.06033325195312 55.594722747802734 104.95542907714844 62.683692932128906 C 130.89584350585938 67.73961639404297 138.97666931152344 63.60822296142578 135.73263549804688 53.384735107421875 C 130.28793334960938 60.47248840332031 120.3032455444336 63.28094482421875 92.15811920166016 56.314239501953125 L 119.58892059326172 59.24217987060547" stroke-width="2.0" fill="rgb(200, 154, 108)" opacity="1.0"/>
    <path d="M 119.99027252197266 123.04039764404297 C 94.92897033691406 122.85093688964844 80.2246322631836 142.40121459960938 72.55937194824219 136.99281311035156 C 97.33857727050781 124.65084075927734 93.8079833984375 117.72191619873047 70.54814147949219 129.83737182617188 C 83.5209732055664 128.85890197753906 94.93549346923828 133.82994079589844 103.4324722290039 116.22979736328125 C 57.198883056640625 128.5528564453125 59.51416778564453 137.9452362060547 109.31597900390625 128.12640380859375 L 119.99027252197266 123.04039764404297" stroke-width="2.0" fill="rgb(255, 210, 159)" opacity="0.8104102"/>
    <path d="M 129.548828125 130.89483642578125 C 105.0166015625 145.20419311523438 101.0826187133789 165.56739807128906 98.55149841308594 183.94033813476562 C 127.21085357666016 179.32485961914062 130.31634521484375 168.1457977294922 99.61344909667969 152.58670043945312 C 127.70268249511719 162.2322998046875 138.2584228515625 159.04586791992188 133.5550994873047 112.19993591308594 C 134.05384826660156 141.7487335205078 127.99002075195312 161.40550231933594 106.07213592529297 154.47091674804688 L 129.548828125 130.89483642578125" stroke-width="2.0" fill="rgb(178, 130, 82)" opacity="0.77063704"/>
    <path d="M 151.3871612548828 123.52080535888672 C 151.28128051757812 144.9800262451172 150.87216186523438 159.09352111816406 155.86138916015625 160.9692840576172 C 149.50439453125 152.85617065429688 125.6813735961914 168.239990234375 89.53820037841797 157.43052673339844 C 153.03843688964844 173.19728088378906 158.4298858642578 161.81541442871094 135.2519073486328 144.90716552734375 C 126.11042785644531 164.073974609375 139.0898895263672 173.12509155273438 150.33412170410156 157.23443603515625 L 151.3871612548828 123.52080535888672" stroke-width="2.0" fill="rgb(87, 33, 0)" opacity="0.58976644"/>
    <path d="M 106.60624694824219 152.02049255371094 C 110.1502914428711 152.3951873779297 113.88062286376953 163.40875244140625 137.41744995117188 162.3675994873047 C 99.62442779541016 168.50657653808594 93.15943908691406 164.90830993652344 89.78555297851562 158.9226531982422 C 140.7100372314453 160.5251007080078 140.23785400390625 150.37405395507812 139.6298065185547 146.21453857421875 C 127.4126205444336 160.15245056152344 100.36187744140625 159.40798950195312 89.18755340576172 158.31959533691406 L 106.60624694824219 152.02049255371094" stroke-width="2.0" fill="rgb(91, 20, 0)" opacity="0.41808313"/>
    <path d="M 150.72998046875 155.66184997558594 C 146.8668975830078 167.47637939453125 157.24806213378906 172.91136169433594 152.05615234375 214.83787536621094 C 165.8704376220703 166.15664672851562 148.16871643066406 159.93560791015625 138.59445190429688 185.22891235351562 C 155.3291778564453 167.78062438964844 159.883544921875 166.2539520263672 154.52764892578125 137.6145782470703 C 145.88079833984375 174.6876678466797 151.16249084472656 176.44972229003906 155.84071350097656 165.05831909179688 L 150.72998046875 155.66184997558594" stroke-width="2.0" fill="rgb(255, 224, 186)" opacity="0.6991387"/>
    <path d="M 151.72193908691406 203.813232421875 C 132.213623046875 205.8594207763672 131.7842254638672 211.57147216796875 151.01278686523438 219.65737915039062 C 148.44406127929688 194.9984588623047 140.31272888183594 195.3046875 136.65597534179688 214.10821533203125 C 152.9185791015625 213.96945190429688 162.0757293701172 186.2197265625 141.3021697998047 171.23838806152344 C 146.92684936523438 187.61949157714844 138.4716339111328 191.95401000976562 144.48509216308594 205.34738159179688 L 151.72193908691406 203.813232421875" stroke-width="2.0" fill="rgb(130, 79, 43)" opacity="0.87317157"/>
    <path d="M 156.15768432617188 180.61524963378906 C 150.5645294189453 216.60450744628906 153.0607452392578 216.45025634765625 159.01797485351562 201.04811096191406 C 149.38265991210938 206.19308471679688 137.01434326171875 199.19139099121094 135.2313690185547 199.0822296142578 C 159.94349670410156 204.6521759033203 164.82884216308594 198.85450744628906 145.74386596679688 182.26100158691406 C 152.59024047851562 182.6524200439453 160.89146423339844 209.9984130859375 156.1779327392578 213.1283416748047 L 156.15768432617188 180.61524963378906" stroke-width="2.0" fill="rgb(240, 196, 151)" opacity="0.9274563"/>
    <path d="M 139.99546813964844 39.082305908203125 C 100.37019348144531 37.56458282470703 88.66317749023438 48.15890121459961 100.83778381347656 75.66062927246094 C 84.40162658691406 62.52252197265625 97.17341613769531 34.23334884643555 84.86346435546875 27.003856658935547 C 87.15017700195312 26.076143264770508 109.4212875366211 10.851872444152832 100.66901397705078 23.845727920532227 C 94.82130432128906 39.57168197631836 90.86248779296875 41.45820617675781 90.55793762207031 49.009769439697266 L 139.99546813964844 39.082305908203125" stroke-width="2.0" fill="rgb(219, 180, 141)" opacity="1.0"/>
    <path d="M 89.86638641357422 74.57374572753906 C 108.26079559326172 56.2595100402832 94.42510986328125 40.45219421386719 61.08216857910156 66.2408218383789 C 117.79309844970703 39.908447265625 113.82719421386719 31.49942398071289 80.94813537597656 47.00983428955078 C 103.33622741699219 40.3779411315918 107.0307846069336 35.67106628417969 128.47193908691406 41.72267150878906 C 123.09968566894531 43.445247650146484 114.85686492919922 37.02252197265625 104.59698486328125 39.047794342041016 L 89.86638641357422 74.57374572753906" stroke-width="2.0" fill="rgb(156, 88, 33)" opacity="0.48516887"/>
    <path d="M 169.00552368164062 51.89996337890625 C 105.0857925415039 58.08528137207031 80.26387786865234 54.025020599365234 62.057273864746094 85.01905059814453 C 109.78972625732422 53.54924774169922 106.73755645751953 48.65890884399414 87.19845581054688 51.27629470825195 C 98.6574935913086 56.519935607910156 111.08771514892578 47.438743591308594 157.04437255859375 56.35350799560547 C 113.49261474609375 35.82558059692383 102.71381378173828 63.96613693237305 76.81880187988281 62.5731086730957 L 169.00552368164062 51.89996337890625" stroke-width="2.0" fill="rgb(231, 193, 154)" opacity="1.0"/>
    <path d="M 125.68550109863281 91.13052368164062 C 91.88722229003906 62.94359588623047 83.31977844238281 66.87025451660156 58.136322021484375 120.18492889404297 C 75.43638610839844 123.21498107910156 77.88715362548828 120.20455932617188 59.63567352294922 60.79214859008789 C 71.16319274902344 80.81656646728516 75.42628479003906 79.31170654296875 74.21672058105469 57.215328216552734 C 82.19668579101562 49.45552444458008 91.89297485351562 50.875396728515625 90.76116180419922 60.311424255371094 L 125.68550109863281 91.13052368164062" stroke-width="2.0" fill="rgb(247, 217, 183)" opacity="0.9477918"/>
    <path d="M 156.90908813476562 98.6059341430664 C 151.84539794921875 53.74940490722656 149.33688354492188 54.04950714111328 155.8429718017578 149.33685302734375 C 159.984375 65.9419937133789 150.70407104492188 52.759376525878906 131.59371948242188 58.86308670043945 C 139.8491973876953 52.47068786621094 150.6298065185547 57.33381652832031 148.4442596435547 81.85027313232422 C 143.66937255859375 51.10947036743164 134.8910369873047 28.163888931274414 156.57398986816406 14.388031959533691 L 156.90908813476562 98.6059341430664" stroke-width="2.0" fill="rgb(234, 203, 170)" opacity="1.0"/>
    <path d="M 135.02011108398438 64.59860229492188 C 103.3328857421875 80.36605834960938 104.74967956542969 84.36199188232422 129.58932495117188 77.69405364990234 C 118.36554718017578 88.06806945800781 79.55916595458984 67.03099060058594 65.87705993652344 92.17526245117188 C 91.56803131103516 74.60846710205078 101.63729095458984 86.45753479003906 111.89690399169922 78.87911987304688 C 116.4640121459961 72.54002380371094 126.15398406982422 78.8938217163086 141.12155151367188 56.72042465209961 L 135.02011108398438 64.59860229492188" stroke-width="2.0" fill="rgb(166, 110, 66)" opacity="1.0"/>
    <path d="M 165.54696655273438 68.52001953125 C 160.5687713623047 73.77426147460938 152.61570739746094 83.31275939941406 151.82254028320312 83.12397766113281 C 147.70716857910156 72.84162902832031 132.9474639892578 77.53483581542969 134.02122497558594 144.56939697265625 C 136.30101013183594 73.48228454589844 152.21946716308594 70.04725646972656 146.01673889160156 19.174440383911133 C 158.6787109375 53.66072463989258 148.53872680664062 72.47732543945312 146.78121948242188 89.11473083496094 L 165.54696655273438 68.52001953125" stroke-width="2.0" fill="rgb(195, 152, 114)" opacity="0.9143986"/>
    <path d="M 129.64793395996094 124.78392028808594 C 138.35557556152344 139.85707092285156 130.88037109375 151.26123046875 124.4726791381836 152.7797393798828 C 124.334716796875 116.20719909667969 102.79434967041016 113.22432708740234 81.1521224975586 145.83802795410156 C 134.8715057373047 169.0386505126953 152.939697265625 137.45591735839844 118.42037963867188 110.82086944580078 C 109.01725006103516 129.62521362304688 120.074462890625 143.35604858398438 138.33993530273438 132.41664123535156 L 129.64793395996094 124.78392028808594" stroke-width="2.0" fill="rgb(245, 212, 172)" opacity="0.9859496"/>
    <path d="M 298.2147216796875 213.51287841796875 C 136.51614379882812 313.0587463378906 118.92475128173828 288.7314758300781 162.7625274658203 232.48854064941406 C 157.1588592529297 236.4399871826172 80.31197357177734 193.44056701660156 -38.91911315917969 172.7282257080078 C 29.06691551208496 333.4128112792969 113.15979766845703 302.53741455078125 162.26315307617188 233.05633544921875 C 134.81353759765625 223.68601989746094 130.2595977783203 237.20079040527344 147.36961364746094 231.05384826660156 L 298.2147216796875 213.51287841796875" stroke-width="2.0" fill="rgb(199, 204, 210)" opacity="0.8578381"/>
    <path d="M 97.29133605957031 207.36888122558594 C 131.95928955078125 172.84153747558594 134.7689971923828 175.2659454345703 112.7416000366211 214.44479370117188 C 120.74018859863281 190.7187957763672 105.56257629394531 179.82351684570312 100.87136840820312 170.1542510986328 C 106.75243377685547 179.09727478027344 106.26084899902344 180.41859436035156 112.71886444091797 190.93345642089844 C 103.7376480102539 177.15682983398438 106.75422668457031 169.12289428710938 124.6280288696289 168.80435180664062 L 97.29133605957031 207.36888122558594" stroke-width="2.0" fill="rgb(217, 169, 118)" opacity="1.0"/>
    <path d="M 86.62168884277344 120.04389953613281 C 83.56063079833984 120.50093078613281 68.43753051757812 122.05740356445312 66.99540710449219 127.41094970703125 C 79.05255889892578 119.82218933105469 77.16354370117188 115.4740219116211 61.979469299316406 123.0311279296875 C 86.34996032714844 120.59416198730469 86.47307586669922 113.55142974853516 68.70262908935547 113.78365325927734 C 80.8987045288086 109.51970672607422 84.82398986816406 116.47823333740234 80.63549041748047 120.7728500366211 L 86.62168884277344 120.04389953613281" stroke-width="2.0" fill="rgb(181, 130, 85)" opacity="1.0"/>
    <path d="M 174.2604217529297 93.92426300048828 C 147.37034606933594 116.40120697021484 152.95765686035156 136.50860595703125 151.92869567871094 137.84800720214844 C 147.8655242919922 123.69037628173828 140.82766723632812 123.53898620605469 136.6162872314453 143.91070556640625 C 157.94497680664062 128.95806884765625 151.13076782226562 118.95127868652344 158.6095428466797 113.2182388305664 C 158.7722930908203 126.38314819335938 147.71890258789062 152.5025177001953 173.8994903564453 163.6199493408203 L 174.2604217529297 93.92426300048828" stroke-width="2.0" fill="rgb(149, 110, 75)" opacity="0.87249094"/>
    <path d="M 84.77494049072266 107.19918823242188 C 113.0685043334961 133.48085021972656 128.76512145996094 145.0712127685547 129.62881469726562 166.12518310546875 C 139.66433715820312 130.64112854003906 130.37986755371094 124.19766235351562 99.64814758300781 153.28646850585938 C 109.38778686523438 142.2823944091797 126.2468490600586 142.80816650390625 131.54367065429688 123.40062713623047 C 127.41598510742188 136.1602325439453 120.168212890625 145.76223754882812 108.53147888183594 157.10595703125 L 84.77494049072266 107.19918823242188" stroke-width="2.0" fill="rgb(245, 217, 183)" opacity="0.521267"/>
    <path d="M 127.8084487915039 150.87078857421875 C 114.55616760253906 169.9657745361328 93.74402618408203 161.230224609375 66.05732727050781 168.0132293701172 C 112.28823852539062 163.6707763671875 111.6591567993164 155.80494689941406 78.92062377929688 154.8981170654297 C 94.50556945800781 156.6434783935547 103.44511413574219 149.5139923095703 107.01756286621094 148.53892517089844 C 113.0684814453125 144.7211456298828 114.08411407470703 145.325927734375 131.87986755371094 129.9208984375 L 127.8084487915039 150.87078857421875" stroke-width="2.0" fill="rgb(120, 64, 24)" opacity="0.89984936"/>
    <path d="M 97.42951965332031 155.20533752441406 C 89.95110321044922 152.29010009765625 80.735595703125 165.91029357910156 104.62252044677734 182.81785583496094 C 113.05291748046875 167.81138610839844 56.53009033203125 130.26043701171875 -110.53479766845703 217.3262939453125 C 66.18379974365234 238.33030700683594 77.24603271484375 192.75892639160156 82.27924346923828 174.4871368408203 C 88.23094177246094 161.6673583984375 102.83343505859375 165.1428985595703 107.8440170288086 185.5464324951172 L 97.42951965332031 155.20533752441406" stroke-width="2.0" fill="rgb(156, 170, 180)" opacity="0.7007132"/>
    <path d="M 98.26148986816406 177.82034301757812 C 101.7475814819336 193.6654815673828 98.96587371826172 216.89817810058594 104.60332489013672 221.7962188720703 C 68.97088623046875 165.00343322753906 57.52790832519531 169.56448364257812 73.09782409667969 219.41488647460938 C 75.31958770751953 188.2590789794922 78.00830078125 173.04666137695312 91.0965576171875 175.29562377929688 C 88.73140716552734 167.22369384765625 76.34843444824219 170.9585723876953 73.637939453125 183.31365966796875 L 98.26148986816406 177.82034301757812" stroke-width="2.0" fill="rgb(200, 155, 111)" opacity="0.927777"/>
    <path d="M 136.19891357421875 195.84854125976562 C 137.63323974609375 181.142578125 160.9155731201172 178.55836486816406 160.49453735351562 171.01275634765625 C 141.3599090576172 187.5309600830078 136.63934326171875 184.4016571044922 144.53428649902344 169.90821838378906 C 130.372802734375 169.51397705078125 121.65843200683594 165.9174346923828 117.18634033203125 174.4017333984375 C 168.5753631591797 180.6868133544922 169.66119384765625 171.0886993408203 144.32798767089844 169.46234130859375 L 136.19891357421875 195.84854125976562" stroke-width="2.0" fill="rgb(225, 185, 146)" opacity="1.0"/>
    <path d="M 158.097900390625 206.50587463378906 C 121.66585540771484 203.40444946289062 120.9428939819336 208.70838928222656 164.8640594482422 211.73165893554688 C 143.55120849609375 215.59475708007812 140.00953674316406 214.65045166015625 65.35704803466797 203.4534149169922 C 132.03646850585938 196.81063842773438 140.58871459960938 222.09396362304688 197.464111328125 206.07571411132812 C 150.49806213378906 212.9325408935547 147.75877380371094 207.55860900878906 158.0153045654297 197.3326416015625 L 158.097900390625 206.50587463378906" stroke-width="2.0" fill="rgb(228, 164, 104)" opacity="0.8276022"/>
    <path d="M 124.80426788330078 183.13096618652344 C 111.94280242919922 182.06997680664062 107.61131286621094 187.70065307617188 118.01708221435547 196.23992919921875 C 122.54893493652344 186.7933349609375 115.91606140136719 183.08535766601562 106.87852478027344 195.91238403320312 C 119.38378143310547 192.35401916503906 116.1540756225586 175.5425262451172 114.97190856933594 167.2074737548828 C 117.5813980102539 176.33486938476562 113.19365692138672 182.11154174804688 121.04144287109375 189.65890502929688 L 124.80426788330078 183.13096618652344" stroke-width="2.0" fill="rgb(91, 36, 4)" opacity="0.7311196"/>
    <path d="M 141.27330017089844 113.02629089355469 C 163.16604614257812 85.30039978027344 149.1541748046875 74.80137634277344 128.22607421875 100.2571792602539 C 158.7960205078125 99.33949279785156 156.51744079589844 42.830684661865234 140.9270477294922 42.798099517822266 C 149.27279663085938 90.18047332763672 138.41184997558594 95.55534362792969 128.89456176757812 89.02455139160156 C 139.0365447998047 96.22310638427734 144.31539916992188 103.38272857666016 153.6146240234375 112.27493286132812 L 141.27330017089844 113.02629089355469" stroke-width="2.0" fill="rgb(105, 41, 2)" opacity="0.33768857"/>
    <path d="M 135.0595703125 85.70291900634766 C 141.7483367919922 95.14136505126953 133.83518981933594 100.8403549194336 127.30321502685547 101.4823989868164 C 131.1427764892578 94.79102325439453 135.96641540527344 92.53950500488281 139.22036743164062 95.1190185546875 C 145.12469482421875 93.09838104248047 158.6286163330078 94.21246337890625 181.3699188232422 82.46111297607422 C 152.356201171875 94.63262176513672 131.07069396972656 101.92401885986328 123.36111450195312 86.18859100341797 L 135.0595703125 85.70291900634766" stroke-width="2.0" fill="rgb(167, 117, 73)" opacity="0.6438893"/>
    <path d="M 153.39474487304688 141.81700134277344 C 148.45213317871094 130.25650024414062 132.41119384765625 135.30892944335938 126.31224822998047 132.2507781982422 C 138.31698608398438 137.78799438476562 139.244384765625 146.6002197265625 94.5201187133789 162.1039581298828 C 126.31734466552734 141.8768768310547 147.94981384277344 128.8219451904297 147.71629333496094 117.41373443603516 C 133.1150360107422 121.73360443115234 134.44332885742188 129.6616973876953 148.77818298339844 129.65386962890625 L 153.39474487304688 141.81700134277344" stroke-width="2.0" fill="rgb(97, 35, 0)" opacity="0.4204402"/>
    <path d="M 129.4224395751953 139.53768920898438 C 132.12950134277344 147.87045288085938 126.0835952758789 154.76803588867188 123.77642059326172 160.51776123046875 C 139.13229370117188 140.29617309570312 133.74661254882812 135.6185302734375 100.32704162597656 155.41427612304688 C 134.7278594970703 161.05239868164062 135.81893920898438 156.21725463867188 116.9145736694336 148.09164428710938 C 124.79852294921875 157.49241638183594 131.7479705810547 153.06173706054688 128.68716430664062 125.08894348144531 L 129.4224395751953 139.53768920898438" stroke-width="2.0" fill="rgb(106, 50, 10)" opacity="0.69129044"/>
    <path d="M 50.39060974121094 200.94068908691406 C 60.19449234008789 194.1124725341797 88.08979034423828 204.0508575439453 153.74832153320312 230.7045440673828 C 53.7337646484375 219.79429626464844 39.44747543334961 217.6540069580078 35.068275451660156 217.69859313964844 C 14.524824142456055 212.81448364257812 43.257171630859375 183.7927703857422 71.19482421875 212.80502319335938 C 58.326171875 199.49545288085938 48.74829864501953 201.34361267089844 37.02710723876953 194.87838745117188 L 50.39060974121094 200.94068908691406" stroke-width="2.0" fill="rgb(172, 119, 81)" opacity="1.0"/>
    <path d="M 278.2225036621094 180.4858856201172 C 278.6051330566406 204.5913848876953 259.31475830078125 208.1300506591797 251.109130859375 206.21376037597656 C 225.83636474609375 204.0309295654297 180.8725128173828 207.72018432617188 165.8304901123047 197.37498474121094 C 166.0560760498047 121.92851257324219 192.10719299316406 122.30416107177734 184.01051330566406 162.6520538330078 C 200.07421875 148.09759521484375 240.393798828125 174.4467010498047 285.0294494628906 171.13247680664062 L 278.2225036621094 180.4858856201172" stroke-width="2.0" fill="rgb(238, 253, 255)" opacity="0.32259876"/>
    <path d="M 160.61080932617188 53.40595245361328 C 166.74220275878906 60.01272201538086 177.17294311523438 63.42421340942383 180.58200073242188 78.71992492675781 C 175.9295654296875 52.29464340209961 179.23057556152344 20.684988021850586 146.74896240234375 15.866033554077148 C 139.16354370117188 20.834081649780273 130.7293701171875 13.343073844909668 213.6803436279297 -126.4546890258789 C 225.93719482421875 -28.38446807861328 257.166015625 -17.00021743774414 246.2999267578125 127.54586029052734 L 160.61080932617188 53.40595245361328" stroke-width="2.0" fill="rgb(93, 103, 115)" opacity="0.9463546"/>
    <path d="M 88.38630676269531 54.49579620361328 C 94.64097595214844 71.60796356201172 91.05714416503906 82.92018127441406 65.95417022705078 79.0902328491211 C 79.56716918945312 90.32491302490234 75.29020690917969 95.89364624023438 64.57658386230469 88.33174133300781 C 62.18138122558594 60.49095916748047 73.29640197753906 50.53620910644531 89.58149719238281 50.08209991455078 C 90.77429962158203 61.3016357421875 86.48387145996094 72.03276824951172 100.61160278320312 78.55702209472656 L 88.38630676269531 54.49579620361328" stroke-width="2.0" fill="rgb(250, 223, 193)" opacity="0.9705057"/>
    <path d="M 192.32664489746094 39.54917907714844 C 343.9978332519531 96.58416748046875 321.8843994140625 195.0429229736328 178.4549560546875 170.79144287109375 C 172.2171630859375 177.3202667236328 169.51461791992188 176.96839904785156 176.13345336914062 26.77281379699707 C 178.76683044433594 34.99314498901367 186.49197387695312 35.33059310913086 198.44998168945312 56.536102294921875 C 223.5516357421875 43.93827438354492 232.43341064453125 75.93255615234375 246.4877166748047 75.154541015625 L 192.32664489746094 39.54917907714844" stroke-width="2.0" fill="rgb(119, 133, 144)" opacity="0.6767725"/>
    <path d="M 115.07011413574219 179.82693481445312 C 129.6031951904297 179.42385864257812 129.83444213867188 186.33998107910156 96.87870788574219 193.46275329589844 C 119.81649017333984 188.64529418945312 124.90312194824219 180.32542419433594 130.06915283203125 176.33819580078125 C 124.20354461669922 170.192138671875 125.770751953125 167.77540588378906 121.3546371459961 155.57798767089844 C 121.88983154296875 165.26959228515625 131.14797973632812 174.56008911132812 126.55673217773438 186.47903442382812 L 115.07011413574219 179.82693481445312" stroke-width="2.0" fill="rgb(255, 226, 180)" opacity="0.5350757"/>
    <path d="M 132.05499267578125 136.3708038330078 C 132.43429565429688 144.7578582763672 124.43563079833984 156.92105102539062 125.78668212890625 169.24310302734375 C 113.80569458007812 159.27037048339844 101.44927215576172 172.55101013183594 -45.66544723510742 151.28147888183594 C 66.59077453613281 116.22096252441406 120.8267822265625 151.38076782226562 180.3345947265625 137.43637084960938 C 144.16693115234375 148.00296020507812 111.62069702148438 129.1048583984375 96.34638977050781 154.82557678222656 L 132.05499267578125 136.3708038330078" stroke-width="2.0" fill="rgb(199, 211, 207)" opacity="0.15097786"/>
  </g>
</svg>
