<?xml version="1.0" ?>
<svg height="240" version="1.1" width="240" xmlns="http://www.w3.org/2000/svg">
  <defs/>
  <g>
    <path d="M -10.0 -10.0 C -9.0 -10.0 240.0 0.0 241.0 0.0 C 242.0 0.0 240.0 240.0 241.0 240.0 C 241.0 241.0 0.0 240.0 0.0 241.0 C 0.0 240.0 0.0 241.0 -10.0 -10.0 L -10.0 -10.0" fill="rgb(105, 87, 53)" opacity="1.0" stroke-width="2.0"/>
    <path d="M 261.5382995605469 125.53119659423828 C 246.53146362304688 120.7538833618164 236.05697631835938 100.2615737915039 217.17332458496094 105.74235534667969 C 216.48631286621094 118.81653594970703 208.1829833984375 93.13362884521484 199.64524841308594 52.67757797241211 C 251.19137573242188 89.50248718261719 262.66162109375 67.22425079345703 237.00418090820312 115.41171264648438 C 243.7562255859375 117.48554229736328 238.94737243652344 100.56236267089844 210.70338439941406 105.26583862304688 L 261.5382995605469 125.53119659423828" fill="rgb(61, 0, 140)" opacity="0.62606704" stroke-width="2.0"/>
    <path d="M 164.94483947753906 19.84364128112793 C 161.806640625 20.199050903320312 160.05587768554688 17.544132232666016 162.4363250732422 16.508668899536133 C 163.66355895996094 19.20634651184082 164.34115600585938 20.386547088623047 164.40481567382812 19.033472061157227 C 157.72445678710938 9.46503734588623 153.87799072265625 13.69214916229248 166.4187774658203 20.414960861206055 C 148.32583618164062 20.502382278442383 163.01498413085938 36.91719436645508 126.74047088623047 -21.178264617919922 L 164.94483947753906 19.84364128112793" fill="rgb(179, 214, 96)" opacity="0.22375213" stroke-width="2.0"/>
    <path d="M 133.03823852539062 170.82546997070312 C 77.6916732788086 199.18511962890625 97.29042053222656 176.0104522705078 68.69666290283203 152.0465545654297 C 58.46549987792969 149.375 106.95885467529297 126.05001831054688 106.28582000732422 176.64540100097656 C 90.06887817382812 188.96315002441406 101.33565521240234 148.16685485839844 52.416568756103516 107.28571319580078 C 85.51156616210938 128.64312744140625 94.63817596435547 139.02041625976562 138.27658081054688 126.19854736328125 L 133.03823852539062 170.82546997070312" fill="rgb(163, 33, 2)" opacity="0.36454305" stroke-width="2.0"/>
    <path d="M 0.9014353156089783 116.96295928955078 C 2.128729820251465 115.77470397949219 2.2666802406311035 115.09835052490234 4.988183498382568 116.73871612548828 C 5.274588584899902 119.536376953125 0.6020561456680298 122.46721649169922 -1.5514816045761108 122.89647674560547 C 3.6484169960021973 121.8069076538086 2.101562023162842 119.93978118896484 1.06386137008667 117.56729125976562 C 2.6772124767303467 116.93643951416016 1.2958842515945435 114.77161407470703 2.796290636062622 114.60608673095703 L 0.9014353156089783 116.96295928955078" fill="rgb(255, 92, 204)" opacity="0.0" stroke-width="2.0"/>
    <path d="M 154.132568359375 27.608631134033203 C 121.6373519897461 44.94853591918945 139.2222442626953 11.766763687133789 175.32601928710938 25.862899780273438 C 184.1520233154297 55.042869567871094 181.26028442382812 13.209375381469727 133.13751220703125 -20.806461334228516 C 130.46864318847656 27.344697952270508 111.75674438476562 37.04520034790039 95.02964782714844 -8.694302558898926 C 131.81259155273438 72.4647216796875 152.79086303710938 -63.289119720458984 88.13346862792969 9.71949577331543 L 154.132568359375 27.608631134033203" fill="rgb(224, 235, 181)" opacity="0.6000306" stroke-width="2.0"/>
    <path d="M 122.19535064697266 96.2812271118164 C 121.0448989868164 91.37034606933594 113.35408020019531 83.35698699951172 110.12877655029297 78.16023254394531 C 182.8608856201172 82.13133239746094 77.10480499267578 87.69767761230469 56.6920051574707 44.69455337524414 C 161.58477783203125 28.40239715576172 100.98485565185547 43.923736572265625 133.6451416015625 81.05101776123047 C 108.25767517089844 97.43212127685547 105.89266967773438 100.6282730102539 107.9200439453125 74.69083404541016 L 122.19535064697266 96.2812271118164" fill="rgb(254, 204, 141)" opacity="0.8776923" stroke-width="2.0"/>
    <path d="M 3.586589813232422 128.2099609375 C 5.115046977996826 142.18362426757812 12.170791625976562 140.034912109375 -8.851011276245117 132.2994842529297 C -4.845098495483398 118.07027435302734 -4.747701168060303 118.1988754272461 9.663342475891113 119.69686126708984 C 6.270010948181152 120.97339630126953 10.09810733795166 120.14888763427734 8.532578468322754 119.18238067626953 C 11.906777381896973 116.61715698242188 11.724958419799805 126.75444030761719 3.607012987136841 139.7257843017578 L 3.586589813232422 128.2099609375" fill="rgb(184, 251, 215)" opacity="0.3786697" stroke-width="2.0"/>
    <path d="M -1.1069661378860474 171.29495239257812 C 18.188913345336914 147.1272430419922 22.45452308654785 86.71018981933594 1.7710232734680176 152.04824829101562 C -2.5521023273468018 195.7493896484375 -2.2110934257507324 145.35585021972656 6.643008708953857 148.65042114257812 C 27.84796905517578 120.98773193359375 2.3438751697540283 118.79122161865234 18.320974349975586 119.04635620117188 C 4.835287094116211 120.52584838867188 -11.039384841918945 113.68183135986328 -19.683490753173828 130.49037170410156 L -1.1069661378860474 171.29495239257812" fill="rgb(248, 241, 74)" opacity="0.46654755" stroke-width="2.0"/>
    <path d="M 192.19952392578125 265.3614501953125 C 205.19552612304688 249.98817443847656 204.22628784179688 250.302978515625 187.76702880859375 250.04457092285156 C 165.08648681640625 250.29946899414062 163.99655151367188 250.58119201660156 144.69508361816406 248.75595092773438 C 140.0167694091797 195.2479248046875 136.91806030273438 180.8261260986328 153.85389709472656 189.28456115722656 C 201.74644470214844 185.58743286132812 215.13172912597656 181.8767852783203 193.78346252441406 221.13560485839844 L 192.19952392578125 265.3614501953125" fill="rgb(64, 12, 6)" opacity="0.4933494" stroke-width="2.0"/>
    <path d="M 219.5908660888672 38.06574630737305 C 151.0503387451172 -2.4926013946533203 191.0565948486328 12.512653350830078 195.30738830566406 41.532318115234375 C 208.16065979003906 62.51809310913086 205.90675354003906 47.61189270019531 190.0079345703125 38.23781204223633 C 196.68328857421875 27.412870407104492 198.333740234375 69.89859771728516 214.51954650878906 90.67760467529297 C 231.8743438720703 -2.957850933074951 173.87889099121094 50.96135711669922 149.96865844726562 -39.0642204284668 L 219.5908660888672 38.06574630737305" fill="rgb(254, 204, 161)" opacity="0.31977633" stroke-width="2.0"/>
    <path d="M -19.358142852783203 119.08657836914062 C -11.559244155883789 69.052490234375 -5.246255397796631 71.52093505859375 22.93154525756836 57.847328186035156 C 24.187793731689453 62.84343338012695 0.23755678534507751 56.85694885253906 -22.971529006958008 93.3218002319336 C -26.91844940185547 73.04542541503906 2.498631715774536 68.2026596069336 46.998634338378906 59.68583297729492 C 84.95053100585938 26.166955947875977 39.21906280517578 89.45970916748047 91.72348022460938 120.65445709228516 L -19.358142852783203 119.08657836914062" fill="rgb(255, 241, 170)" opacity="0.66292393" stroke-width="2.0"/>
    <path d="M 234.01528930664062 127.71957397460938 C 163.37367248535156 133.56646728515625 227.31202697753906 124.04910278320312 195.83998107910156 149.42013549804688 C 171.29159545898438 154.64280700683594 175.7965545654297 143.02047729492188 179.84454345703125 123.95259857177734 C 175.67103576660156 89.30903625488281 171.3155975341797 83.64363861083984 148.2344207763672 44.71624755859375 C 204.49917602539062 109.2713623046875 196.99917602539062 91.81300354003906 197.6094512939453 108.95896911621094 L 234.01528930664062 127.71957397460938" fill="rgb(251, 234, 211)" opacity="0.8693918" stroke-width="2.0"/>
    <path d="M 195.5331268310547 71.38133239746094 C 193.15078735351562 70.20823669433594 194.29197692871094 68.98433685302734 193.88002014160156 67.29715728759766 C 195.871337890625 67.73091888427734 196.28305053710938 67.07684326171875 193.63487243652344 68.56893920898438 C 193.60289001464844 69.15194702148438 196.62550354003906 66.268310546875 199.85519409179688 66.45143127441406 C 194.75625610351562 68.50972747802734 194.979248046875 71.29251098632812 198.9105987548828 67.97539520263672 L 195.5331268310547 71.38133239746094" fill="rgb(55, 71, 131)" opacity="0.0" stroke-width="2.0"/>
    <path d="M 111.6713638305664 206.45159912109375 C 104.25774383544922 182.97640991210938 146.1248779296875 205.56378173828125 149.4017333984375 185.18922424316406 C 129.4235382080078 193.01809692382812 204.74794006347656 176.47299194335938 181.47567749023438 141.01290893554688 C 112.20686340332031 197.0863494873047 107.86213684082031 188.37986755371094 146.3040771484375 186.31797790527344 C 161.953369140625 245.00575256347656 155.11428833007812 200.29669189453125 125.96723937988281 207.60989379882812 L 111.6713638305664 206.45159912109375" fill="rgb(24, 40, 33)" opacity="0.66366166" stroke-width="2.0"/>
    <path d="M 95.9977798461914 177.0935821533203 C 98.33419036865234 181.41712951660156 122.53857421875 190.29405212402344 95.10796356201172 183.705810546875 C 53.17609786987305 168.6782684326172 79.27601623535156 127.62492370605469 44.480690002441406 198.23138427734375 C 55.171504974365234 126.65169525146484 -21.021724700927734 92.1826171875 65.72179412841797 120.83058166503906 C 77.50450897216797 171.34927368164062 77.35186767578125 159.70367431640625 85.4594497680664 169.02622985839844 L 95.9977798461914 177.0935821533203" fill="rgb(255, 247, 237)" opacity="0.8096684" stroke-width="2.0"/>
    <path d="M 53.157958984375 200.29751586914062 C 54.55717849731445 228.00750732421875 73.15882873535156 219.5855712890625 55.67362976074219 231.1062774658203 C 55.07872772216797 249.63992309570312 47.558448791503906 218.3613739013672 27.263233184814453 199.0517578125 C 32.50088119506836 202.59854125976562 25.408292770385742 190.4742889404297 36.423736572265625 186.5655975341797 C 47.80308151245117 159.2927703857422 -13.554543495178223 174.91513061523438 64.6954116821289 159.88983154296875 L 53.157958984375 200.29751586914062" fill="rgb(255, 209, 121)" opacity="0.63619506" stroke-width="2.0"/>
    <path d="M 98.63874816894531 24.8321590423584 C 86.62252044677734 13.02509593963623 98.84233093261719 -7.994917869567871 99.29239654541016 -9.983952522277832 C 92.08151245117188 -7.0488176345825195 111.43407440185547 -18.55698585510254 21.36946678161621 14.19331169128418 C 109.94387817382812 17.239652633666992 76.03146362304688 61.723854064941406 95.26576232910156 20.170822143554688 C 89.82432556152344 12.379698753356934 94.29034423828125 -21.599552154541016 126.26017761230469 -13.148002624511719 L 98.63874816894531 24.8321590423584" fill="rgb(209, 213, 161)" opacity="1.0" stroke-width="2.0"/>
    <path d="M 215.3011016845703 159.25584411621094 C 180.8509979248047 130.26351928710938 184.06622314453125 158.30152893066406 226.15318298339844 148.21389770507812 C 245.56411743164062 188.50564575195312 247.76332092285156 215.2722625732422 240.4509735107422 206.82691955566406 C 181.5198211669922 198.26759338378906 253.3193359375 199.02133178710938 229.6303253173828 176.748291015625 C 217.0460205078125 171.70709228515625 219.93968200683594 178.6756134033203 220.24154663085938 174.30516052246094 L 215.3011016845703 159.25584411621094" fill="rgb(248, 219, 77)" opacity="0.31885532" stroke-width="2.0"/>
    <path d="M 18.930185317993164 101.04344940185547 C 17.695972442626953 104.71671295166016 15.068359375 106.7506103515625 14.912468910217285 106.96328735351562 C 17.723569869995117 104.54924774169922 19.459440231323242 100.62889099121094 18.66522216796875 100.84473419189453 C 17.677570343017578 99.45787048339844 16.99274444580078 99.16178131103516 12.065860748291016 98.08247375488281 C 18.963476181030273 99.49651336669922 18.067062377929688 100.53080749511719 17.200782775878906 99.27861022949219 L 18.930185317993164 101.04344940185547" fill="rgb(115, 175, 190)" opacity="0.071782626" stroke-width="2.0"/>
    <path d="M 112.96035766601562 214.30186462402344 C 191.1519317626953 217.62261962890625 169.7548065185547 187.22325134277344 164.11566162109375 233.374755859375 C 112.7013931274414 217.96014404296875 110.47124481201172 253.6316375732422 111.05529022216797 185.89154052734375 C 174.68658447265625 167.5110626220703 158.43568420410156 148.3614044189453 172.4417724609375 201.63487243652344 C 91.44609832763672 221.01930236816406 175.51333618164062 178.2754364013672 111.96697998046875 189.35157775878906 L 112.96035766601562 214.30186462402344" fill="rgb(0, 30, 31)" opacity="0.5965209" stroke-width="2.0"/>
    <path d="M 13.93535327911377 121.19699096679688 C 75.62596130371094 105.15457916259766 41.9681396484375 154.7720947265625 102.99534606933594 174.8551483154297 C 66.03900146484375 138.94715881347656 29.257095336914062 30.212329864501953 20.469329833984375 104.10413360595703 C 86.47914123535156 130.72731018066406 37.095027923583984 161.56016540527344 100.118408203125 194.44387817382812 C 20.872156143188477 177.5219268798828 9.629776000976562 193.80657958984375 29.191917419433594 162.77716064453125 L 13.93535327911377 121.19699096679688" fill="rgb(255, 215, 130)" opacity="0.44814572" stroke-width="2.0"/>
    <path d="M 197.6651611328125 160.99537658691406 C 246.29750061035156 115.50423431396484 156.96401977539062 62.65353012084961 187.59127807617188 115.78010559082031 C 181.78868103027344 138.7926483154297 192.0424346923828 134.8794708251953 188.25135803222656 118.64201354980469 C 184.1743927001953 115.76609802246094 187.2427978515625 137.77999877929688 185.88084411621094 128.5526885986328 C 187.14706420898438 144.09727478027344 197.90577697753906 107.1467514038086 173.97669982910156 116.5455551147461 L 197.6651611328125 160.99537658691406" fill="rgb(209, 169, 49)" opacity="0.6955797" stroke-width="2.0"/>
    <path d="M 253.01246643066406 59.033348083496094 C 252.6014404296875 30.93767547607422 197.97372436523438 39.92797088623047 210.0146942138672 30.829296112060547 C 184.896484375 29.410146713256836 203.17762756347656 10.541373252868652 155.2183380126953 -1.6515380144119263 C 184.17044067382812 19.78680419921875 162.7853240966797 11.264577865600586 146.7122802734375 -9.438432693481445 C 215.47784423828125 -11.108428001403809 216.51649475097656 -11.26855754852295 253.6997833251953 -10.910947799682617 L 253.01246643066406 59.033348083496094" fill="rgb(111, 89, 90)" opacity="0.6071975" stroke-width="2.0"/>
    <path d="M 210.1288604736328 111.5595703125 C 173.6606903076172 23.449310302734375 177.03897094726562 16.740032196044922 142.50506591796875 -11.88450813293457 C 187.00624084472656 3.503113031387329 206.1450653076172 55.08254623413086 186.6457977294922 32.53842544555664 C 175.20230102539062 19.73785972595215 174.68478393554688 48.27421951293945 179.8014678955078 33.06959915161133 C 125.25389862060547 3.7395873069763184 168.82701110839844 24.294767379760742 148.85353088378906 51.82735824584961 L 210.1288604736328 111.5595703125" fill="rgb(193, 196, 142)" opacity="0.5592976" stroke-width="2.0"/>
    <path d="M 225.8881378173828 106.12932586669922 C 230.58526611328125 142.00376892089844 214.36724853515625 141.45274353027344 207.1813507080078 111.67137908935547 C 177.70953369140625 126.71990203857422 185.6294403076172 147.7838897705078 173.3192596435547 93.62005615234375 C 150.54051208496094 33.600303649902344 149.91737365722656 87.35812377929688 149.71499633789062 18.518430709838867 C 205.71859741210938 31.17232322692871 185.5858154296875 39.29121017456055 215.09530639648438 73.62418365478516 L 225.8881378173828 106.12932586669922" fill="rgb(236, 222, 145)" opacity="0.606589" stroke-width="2.0"/>
    <path d="M 85.70941162109375 145.568115234375 C 101.92691802978516 140.5240020751953 117.96595764160156 184.392578125 95.10924530029297 179.38414001464844 C 121.12252044677734 182.36135864257812 105.21540832519531 190.79898071289062 69.840087890625 154.3424072265625 C 39.884002685546875 68.74129486083984 72.06733703613281 126.80557250976562 86.71836853027344 147.5165252685547 C 116.31654357910156 167.65731811523438 106.21050262451172 178.1497802734375 108.4358901977539 165.79672241210938 L 85.70941162109375 145.568115234375" fill="rgb(228, 108, 44)" opacity="0.53441066" stroke-width="2.0"/>
    <path d="M 111.13070678710938 227.18093872070312 C 86.22846984863281 229.1238250732422 82.11968231201172 224.3072052001953 77.2679672241211 224.88916015625 C 67.26227569580078 221.3490753173828 63.79694366455078 225.2671356201172 64.68762969970703 203.23683166503906 C 80.71367645263672 217.3941192626953 60.4262580871582 176.17807006835938 83.69155883789062 185.8800811767578 C 62.43024444580078 153.30946350097656 97.80982208251953 209.5990753173828 111.36327362060547 177.61936950683594 L 111.13070678710938 227.18093872070312" fill="rgb(223, 255, 247)" opacity="0.4512413" stroke-width="2.0"/>
    <path d="M 177.96815490722656 152.2464599609375 C 173.03805541992188 94.14227294921875 187.73692321777344 122.17510986328125 165.33236694335938 200.65672302246094 C 149.0855712890625 191.27001953125 146.4834747314453 180.75900268554688 126.51392364501953 111.15164184570312 C 172.51248168945312 73.49627685546875 190.96783447265625 101.78333282470703 138.972900390625 90.44817352294922 C 132.0386962890625 74.00111389160156 182.18692016601562 66.00460815429688 178.80467224121094 137.23745727539062 L 177.96815490722656 152.2464599609375" fill="rgb(22, 5, 0)" opacity="0.7208356" stroke-width="2.0"/>
    <path d="M 39.199974060058594 74.20710754394531 C 37.37588882446289 74.60371398925781 40.75978469848633 72.90391540527344 38.70180130004883 73.88872528076172 C 36.471534729003906 72.847412109375 37.53984832763672 73.37680053710938 40.705875396728516 75.99242401123047 C 38.47394943237305 74.40724182128906 37.19175720214844 74.02088928222656 38.82176208496094 70.28423309326172 C 37.790218353271484 74.94241333007812 38.51995086669922 73.83915710449219 42.97535705566406 71.83240509033203 L 39.199974060058594 74.20710754394531" fill="rgb(86, 172, 181)" opacity="0.10020556" stroke-width="2.0"/>
    <path d="M 147.3721923828125 48.638816833496094 C 186.1540985107422 82.58680725097656 182.94711303710938 154.0970458984375 172.92787170410156 149.2794647216797 C 119.24932861328125 105.87334442138672 103.87216186523438 94.34617614746094 120.79500579833984 111.77703857421875 C 117.05068969726562 95.86157989501953 131.48062133789062 106.63362884521484 119.58213806152344 109.24141693115234 C 89.48155212402344 85.2501449584961 130.08074951171875 124.52650451660156 64.27220916748047 98.20824432373047 L 147.3721923828125 48.638816833496094" fill="rgb(203, 136, 85)" opacity="0.6494669" stroke-width="2.0"/>
    <path d="M 64.10723876953125 144.81895446777344 C 75.53489685058594 160.58595275878906 80.84378814697266 165.31092834472656 80.31893920898438 163.87351989746094 C -34.136444091796875 166.2761993408203 41.727657318115234 178.57269287109375 11.291608810424805 141.2554931640625 C 24.789342880249023 67.2799072265625 2.7388219833374023 149.23556518554688 6.729838848114014 62.95219802856445 C 69.52018737792969 66.49210357666016 84.31217193603516 90.44895935058594 61.1762580871582 77.28662109375 L 64.10723876953125 144.81895446777344" fill="rgb(255, 255, 206)" opacity="0.51053196" stroke-width="2.0"/>
    <path d="M 209.55714416503906 184.53871154785156 C 212.83230590820312 196.08255004882812 195.0688934326172 184.038818359375 191.97439575195312 203.49501037597656 C 204.15646362304688 192.23898315429688 174.0040283203125 199.53814697265625 146.2815704345703 198.3309326171875 C 140.5793914794922 118.09873962402344 138.10670471191406 114.84095001220703 167.80360412597656 130.15359497070312 C 240.01419067382812 156.2561798095703 109.6503677368164 208.2774200439453 203.29129028320312 167.11642456054688 L 209.55714416503906 184.53871154785156" fill="rgb(12, 63, 78)" opacity="0.47728857" stroke-width="2.0"/>
    <path d="M 75.82787322998047 42.85479736328125 C 84.57263946533203 124.68194580078125 61.97301483154297 26.2247257232666 58.47403335571289 101.5324478149414 C -20.914432525634766 90.37480163574219 60.20644760131836 67.43390655517578 -9.669889450073242 70.7444076538086 C -11.114538192749023 9.89143180847168 -11.038453102111816 9.6910400390625 -12.230711936950684 -11.158027648925781 C 22.239503860473633 -12.864839553833008 31.011547088623047 -13.333667755126953 73.17042541503906 -16.410720825195312 L 75.82787322998047 42.85479736328125" fill="rgb(250, 238, 190)" opacity="1.0" stroke-width="2.0"/>
    <path d="M 246.28468322753906 78.04315948486328 C 227.69439697265625 67.4466781616211 175.5559844970703 36.52339553833008 244.6715545654297 93.1973648071289 C 211.2500762939453 165.84107971191406 239.45912170410156 102.86585235595703 184.03248596191406 29.4041805267334 C 252.72886657714844 91.10037231445312 288.8166198730469 42.93023681640625 210.29354858398438 35.39650344848633 C 226.96273803710938 54.56965637207031 195.8503875732422 49.45793533325195 253.85986328125 64.09764862060547 L 246.28468322753906 78.04315948486328" fill="rgb(167, 122, 108)" opacity="0.51623696" stroke-width="2.0"/>
    <path d="M 102.20475006103516 221.8838653564453 C 29.662443161010742 186.40232849121094 44.103153228759766 195.92152404785156 53.85508728027344 181.5225372314453 C 39.845279693603516 199.9943389892578 48.16477966308594 237.2505645751953 55.668521881103516 221.0833282470703 C 57.152076721191406 183.04165649414062 33.038360595703125 218.12962341308594 61.33279800415039 154.7462615966797 C 35.35715866088867 140.810546875 81.47477722167969 152.5706787109375 95.09037780761719 223.8959503173828 L 102.20475006103516 221.8838653564453" fill="rgb(198, 239, 223)" opacity="0.42072895" stroke-width="2.0"/>
    <path d="M 101.05823516845703 86.40208435058594 C 128.49862670898438 57.56047058105469 38.474578857421875 52.76823806762695 91.89720153808594 109.34867095947266 C 85.82886505126953 127.69676971435547 55.65176773071289 48.40557098388672 94.64414978027344 73.32939147949219 C 70.40828704833984 101.65400695800781 76.28243255615234 90.55774688720703 77.78500366210938 65.93148040771484 C 45.73857879638672 60.22026443481445 86.03972625732422 111.52423095703125 81.25774383544922 98.8846664428711 L 101.05823516845703 86.40208435058594" fill="rgb(3, 0, 29)" opacity="0.43511826" stroke-width="2.0"/>
    <path d="M 198.4466094970703 64.19290924072266 C 197.05471801757812 61.81287384033203 197.0557861328125 62.512451171875 198.37457275390625 62.11515808105469 C 196.75039672851562 62.382625579833984 197.4246368408203 62.3573112487793 198.0503692626953 63.583988189697266 C 195.82379150390625 59.97456741333008 197.2325897216797 62.37166213989258 196.79913330078125 61.343875885009766 C 197.13035583496094 62.07198715209961 196.42872619628906 61.05107116699219 197.3042755126953 62.40175247192383 L 198.4466094970703 64.19290924072266" fill="rgb(120, 90, 60)" opacity="0.062183253" stroke-width="2.0"/>
    <path d="M 243.3436279296875 148.730712890625 C 247.7855987548828 153.7225799560547 251.98483276367188 164.02781677246094 274.0586853027344 203.63131713867188 C 156.5044403076172 267.62945556640625 191.55738830566406 246.2845001220703 209.2379150390625 167.3590545654297 C 179.57763671875 175.612548828125 175.51734924316406 146.72598266601562 248.407958984375 157.85885620117188 C 246.37820434570312 150.22434997558594 257.7666320800781 149.0413360595703 243.56382751464844 158.88339233398438 L 243.3436279296875 148.730712890625" fill="rgb(255, 224, 74)" opacity="0.31657973" stroke-width="2.0"/>
    <path d="M 13.41134262084961 188.20872497558594 C 18.791275024414062 195.96975708007812 2.9326162338256836 216.92079162597656 29.904293060302734 190.807373046875 C 19.824935913085938 193.5499267578125 16.65311622619629 173.47772216796875 16.120235443115234 177.781982421875 C 19.954219818115234 171.8456268310547 10.581686019897461 180.0754852294922 5.696558952331543 195.86534118652344 C 21.555259704589844 183.33758544921875 18.02557373046875 179.15122985839844 14.815415382385254 205.76670837402344 L 13.41134262084961 188.20872497558594" fill="rgb(239, 247, 43)" opacity="0.23858541" stroke-width="2.0"/>
    <path d="M 129.23092651367188 172.8408203125 C 158.7216796875 155.587158203125 136.68643188476562 185.27354431152344 177.4046173095703 133.1993408203125 C 177.969970703125 67.91642761230469 139.9424285888672 146.8542022705078 64.12027740478516 122.02703857421875 C 142.2516632080078 168.310546875 139.6010284423828 152.68255615234375 117.3570785522461 166.47633361816406 C 146.7754669189453 143.48109436035156 156.62948608398438 158.25552368164062 111.53489685058594 181.23355102539062 L 129.23092651367188 172.8408203125" fill="rgb(37, 6, 5)" opacity="0.59579283" stroke-width="2.0"/>
    <path d="M 95.62553405761719 175.89796447753906 C 54.9062385559082 147.0460205078125 49.17320251464844 96.51244354248047 67.39701843261719 163.4253387451172 C -33.53238296508789 166.88177490234375 45.20917510986328 150.17335510253906 -6.121945381164551 147.3457489013672 C -13.556442260742188 99.43283081054688 -13.80595588684082 86.01021575927734 0.019965020939707756 31.04427146911621 C 157.30181884765625 41.878665924072266 17.328657150268555 72.04305267333984 75.52574920654297 80.54093933105469 L 95.62553405761719 175.89796447753906" fill="rgb(255, 215, 111)" opacity="0.3257319" stroke-width="2.0"/>
    <path d="M 156.83738708496094 41.842533111572266 C 137.09571838378906 50.49551010131836 156.62530517578125 47.21144104003906 171.6805419921875 98.39991760253906 C 132.4422607421875 91.66979217529297 158.19297790527344 30.88631248474121 96.09573364257812 23.404212951660156 C 101.1694107055664 0.182408407330513 155.63265991210938 45.223270416259766 142.38046264648438 31.449649810791016 C 154.70498657226562 9.082778930664062 164.2581787109375 21.262584686279297 160.27207946777344 36.042633056640625 L 156.83738708496094 41.842533111572266" fill="rgb(98, 32, 17)" opacity="0.6062399" stroke-width="2.0"/>
    <path d="M 121.24325561523438 183.5784912109375 C 98.25677490234375 207.4485626220703 98.66299438476562 172.91835021972656 112.05294036865234 182.2147979736328 C 87.50213623046875 178.1256561279297 116.25933837890625 192.97958374023438 133.61134338378906 177.22323608398438 C 132.39588928222656 160.8244171142578 121.39461517333984 188.64718627929688 121.37470245361328 153.00807189941406 C 186.390869140625 171.6440887451172 132.4752197265625 167.13992309570312 129.07870483398438 195.1234893798828 L 121.24325561523438 183.5784912109375" fill="rgb(56, 37, 34)" opacity="0.64447445" stroke-width="2.0"/>
    <path d="M 167.429443359375 96.99871063232422 C 117.32125854492188 110.03170776367188 105.99493408203125 138.05490112304688 88.61724853515625 127.42422485351562 C 155.76734924316406 163.173828125 121.70106506347656 164.10928344726562 168.4745635986328 96.67679595947266 C 168.83274841308594 183.3164520263672 169.3885498046875 189.43441772460938 168.75860595703125 154.0780029296875 C 150.91748046875 193.58595275878906 117.83583068847656 151.67886352539062 128.04795837402344 164.35250854492188 L 167.429443359375 96.99871063232422" fill="rgb(9, 0, 0)" opacity="0.5585157" stroke-width="2.0"/>
    <path d="M 193.24378967285156 222.2661895751953 C 197.96783447265625 260.7435607910156 192.27008056640625 253.5848846435547 186.92684936523438 251.77362060546875 C 128.75128173828125 251.4834747314453 129.4055633544922 250.87364196777344 130.36871337890625 248.34593200683594 C 132.33749389648438 162.56114196777344 123.04401397705078 187.86557006835938 148.5825958251953 170.48377990722656 C 223.1326141357422 160.11329650878906 149.0413818359375 174.37203979492188 208.0860137939453 186.6654815673828 L 193.24378967285156 222.2661895751953" fill="rgb(36, 17, 23)" opacity="0.38566777" stroke-width="2.0"/>
    <path d="M 131.9498291015625 230.37294006347656 C 123.73762512207031 242.3870391845703 150.1590576171875 239.6199188232422 81.5035400390625 229.3765869140625 C 57.415565490722656 217.1683807373047 77.72975158691406 233.18650817871094 62.01460647583008 234.07464599609375 C 68.1497573852539 193.65110778808594 56.70979690551758 207.38546752929688 69.08638763427734 207.7884063720703 C 77.34398651123047 231.6002197265625 94.08084106445312 213.06800842285156 121.22502136230469 224.01683044433594 L 131.9498291015625 230.37294006347656" fill="rgb(10, 35, 38)" opacity="0.37990186" stroke-width="2.0"/>
    <path d="M 32.51848602294922 55.56488800048828 C 108.031005859375 -10.946285247802734 114.53046417236328 23.12266731262207 89.97137451171875 23.649436950683594 C 116.98021697998047 12.437126159667969 101.61578369140625 0.6727670431137085 99.72230529785156 22.295833587646484 C 44.7650032043457 52.75946807861328 83.39119720458984 6.952913761138916 94.0790786743164 22.759239196777344 C 169.66212463378906 40.22235870361328 168.81698608398438 17.836490631103516 85.1263656616211 -50.1736946105957 L 32.51848602294922 55.56488800048828" fill="rgb(224, 234, 139)" opacity="0.4253409" stroke-width="2.0"/>
    <path d="M 148.82846069335938 174.27967834472656 C 143.11575317382812 168.9541473388672 145.80728149414062 185.54135131835938 157.01138305664062 154.48007202148438 C 178.94320678710938 135.76808166503906 146.0323944091797 167.90638732910156 131.50413513183594 170.48379516601562 C 137.25485229492188 172.78567504882812 92.39053344726562 184.26455688476562 101.88327026367188 187.221923828125 C 175.1916046142578 181.91725158691406 183.39608764648438 124.36759948730469 156.91990661621094 155.37925720214844 L 148.82846069335938 174.27967834472656" fill="rgb(255, 241, 255)" opacity="0.239142" stroke-width="2.0"/>
    <path d="M 44.99797058105469 155.1236572265625 C 41.68207931518555 152.02044677734375 42.87700271606445 154.68299865722656 42.51621627807617 154.26345825195312 C 41.424591064453125 153.84352111816406 42.52565002441406 152.47549438476562 43.30398941040039 153.77838134765625 C 40.07084655761719 150.6297607421875 41.1859245300293 152.82838439941406 40.2259635925293 151.2826690673828 C 43.34058380126953 156.01551818847656 40.535362243652344 155.4013214111328 42.847320556640625 149.53338623046875 L 44.99797058105469 155.1236572265625" fill="rgb(108, 101, 183)" opacity="0.07402739" stroke-width="2.0"/>
    <path d="M 172.62954711914062 141.12986755371094 C 183.13900756835938 133.12060546875 176.38905334472656 128.6356964111328 169.80307006835938 107.18128204345703 C 185.08798217773438 116.3996353149414 193.50042724609375 125.35737609863281 168.3489532470703 110.77862548828125 C 177.16371154785156 113.40747833251953 179.1878204345703 113.09137725830078 179.25387573242188 105.81733703613281 C 174.7303924560547 121.59979248046875 178.95066833496094 128.22390747070312 181.77169799804688 122.80016326904297 L 172.62954711914062 141.12986755371094" fill="rgb(255, 233, 183)" opacity="0.12982947" stroke-width="2.0"/>
    <path d="M 265.9839782714844 88.49828338623047 C 241.87815856933594 102.02413940429688 260.99395751953125 92.76097106933594 239.64244079589844 181.3537139892578 C 217.48435974121094 113.3807144165039 199.69467163085938 170.37266540527344 214.36146545410156 135.6737060546875 C 245.3943328857422 143.48870849609375 212.4544219970703 99.44781494140625 215.31674194335938 130.90853881835938 C 211.52218627929688 37.06825256347656 142.47593688964844 -23.38014030456543 214.77450561523438 60.682308197021484 L 265.9839782714844 88.49828338623047" fill="rgb(191, 169, 85)" opacity="0.71577376" stroke-width="2.0"/>
    <path d="M 106.2385482788086 25.12366485595703 C 116.43792724609375 -61.900360107421875 106.69627380371094 -45.56809997558594 74.51669311523438 -8.481185913085938 C 76.21602630615234 -0.3906475007534027 79.39965057373047 -2.5138580799102783 63.083187103271484 -13.496197700500488 C 63.47854232788086 -19.652057647705078 98.23554992675781 -16.413532257080078 111.57254791259766 1.6829012632369995 C 71.2464599609375 -73.05422973632812 35.54903030395508 -6.514816761016846 17.445829391479492 75.71928405761719 L 106.2385482788086 25.12366485595703" fill="rgb(234, 205, 130)" opacity="0.3572648" stroke-width="2.0"/>
    <path d="M 178.65774536132812 98.25897979736328 C 157.99270629882812 30.006458282470703 173.6015167236328 107.05970764160156 199.28106689453125 63.103309631347656 C 230.70132446289062 106.62040710449219 192.27615356445312 97.14500427246094 232.5914306640625 127.19229125976562 C 217.4351806640625 157.23117065429688 226.58267211914062 93.91364288330078 206.8678436279297 152.11741638183594 C 227.9205322265625 156.84945678710938 225.97149658203125 228.23338317871094 183.88426208496094 142.5218048095703 L 178.65774536132812 98.25897979736328" fill="rgb(224, 192, 94)" opacity="0.6006712" stroke-width="2.0"/>
    <path d="M 223.22833251953125 161.77134704589844 C 218.42401123046875 170.9767608642578 222.3756866455078 154.8028106689453 236.0807647705078 175.7942352294922 C 231.88845825195312 195.11520385742188 227.99676513671875 176.1960906982422 219.70045471191406 180.17445373535156 C 222.8580322265625 185.9354248046875 217.9862060546875 179.58216857910156 220.7549285888672 181.3662567138672 C 218.51956176757812 167.269287109375 221.91603088378906 179.2946014404297 222.19215393066406 164.4384765625 L 223.22833251953125 161.77134704589844" fill="rgb(255, 114, 31)" opacity="0.6271433" stroke-width="2.0"/>
    <path d="M 215.72544860839844 125.26274871826172 C 249.94622802734375 119.0484848022461 206.23892211914062 135.70184326171875 218.27203369140625 118.32479095458984 C 200.214599609375 129.7310791015625 225.16171264648438 147.74729919433594 232.5028533935547 126.6198959350586 C 228.8874053955078 131.5447540283203 232.13772583007812 131.53591918945312 230.2310028076172 129.2185516357422 C 230.7063751220703 127.45249938964844 231.29364013671875 128.16322326660156 229.08795166015625 125.7524185180664 L 215.72544860839844 125.26274871826172" fill="rgb(255, 66, 0)" opacity="0.55883235" stroke-width="2.0"/>
    <path d="M 35.126468658447266 219.70558166503906 C 37.81877517700195 210.82852172851562 21.26164436340332 228.30752563476562 32.2042350769043 209.16043090820312 C -7.0103678703308105 179.82736206054688 72.07266998291016 192.86016845703125 60.24233627319336 215.07264709472656 C 82.26406860351562 233.8188018798828 42.7696533203125 269.2506103515625 47.67274475097656 233.17123413085938 C 25.956972122192383 237.51156616210938 54.8309211730957 226.8268280029297 44.13945007324219 239.1739501953125 L 35.126468658447266 219.70558166503906" fill="rgb(255, 188, 64)" opacity="0.5454415" stroke-width="2.0"/>
    <path d="M 112.34627532958984 228.802490234375 C 113.14285278320312 173.65928649902344 105.05508422851562 193.6599578857422 133.56573486328125 186.3084259033203 C 187.11798095703125 189.72500610351562 181.10198974609375 183.28530883789062 158.14674377441406 184.65135192871094 C 163.8704376220703 179.57421875 178.73516845703125 192.0014190673828 161.54067993164062 224.02760314941406 C 148.64285278320312 217.95022583007812 191.2847442626953 224.6165313720703 124.22003173828125 230.00477600097656 L 112.34627532958984 228.802490234375" fill="rgb(86, 169, 174)" opacity="0.22702444" stroke-width="2.0"/>
    <path d="M 61.57311248779297 156.6025848388672 C 56.44116973876953 165.70680236816406 44.58494186401367 191.0333251953125 45.815731048583984 198.73934936523438 C 6.702239036560059 189.0636749267578 26.907466888427734 174.74005126953125 5.079063892364502 172.4168243408203 C 16.07502555847168 157.57374572753906 1.2915892601013184 153.94491577148438 16.88842010498047 108.1280517578125 C 66.87262725830078 118.81246185302734 52.88260269165039 110.77720642089844 58.095062255859375 134.33990478515625 L 61.57311248779297 156.6025848388672" fill="rgb(241, 208, 72)" opacity="0.4400385" stroke-width="2.0"/>
    <path d="M 179.17626953125 130.06060791015625 C 166.88829040527344 150.12596130371094 153.70889282226562 160.5196990966797 120.37693786621094 177.68844604492188 C 84.45361328125 190.83387756347656 145.38153076171875 175.6061248779297 87.94932556152344 136.26788330078125 C 129.78378295898438 89.22718811035156 85.26366424560547 125.31927490234375 64.92134857177734 104.8444595336914 C 170.05482482910156 118.33900451660156 90.13618469238281 96.03584289550781 169.9305419921875 85.09595489501953 L 179.17626953125 130.06060791015625" fill="rgb(82, 41, 26)" opacity="0.55169004" stroke-width="2.0"/>
    <path d="M 170.67396545410156 242.61798095703125 C 105.77442932128906 230.48606872558594 92.08030700683594 231.0583038330078 63.62751007080078 223.82752990722656 C 83.1995849609375 228.06930541992188 57.92375946044922 247.2963104248047 52.122772216796875 227.40371704101562 C 68.34342956542969 214.880126953125 47.01771926879883 224.1830291748047 66.38268280029297 168.45188903808594 C 70.7705078125 231.5665740966797 41.84605026245117 229.8289794921875 181.01429748535156 229.33871459960938 L 170.67396545410156 242.61798095703125" fill="rgb(32, 0, 23)" opacity="0.3196842" stroke-width="2.0"/>
    <path d="M 123.46270751953125 227.99649047851562 C 115.40737915039062 227.10240173339844 112.41546630859375 226.0036163330078 116.23410034179688 228.26585388183594 C 117.24609375 224.44366455078125 108.3469009399414 231.99331665039062 111.71871948242188 222.29360961914062 C 115.33959197998047 221.64820861816406 113.46798706054688 222.11251831054688 113.55567932128906 208.38040161132812 C 103.61674499511719 206.07891845703125 142.4832000732422 203.32960510253906 123.37450408935547 215.46524047851562 L 123.46270751953125 227.99649047851562" fill="rgb(140, 151, 145)" opacity="0.21692738" stroke-width="2.0"/>
    <path d="M 154.91481018066406 235.91513061523438 C 155.25990295410156 233.60311889648438 130.98422241210938 229.026123046875 124.7320327758789 236.1873321533203 C 133.8795623779297 227.3509063720703 149.9297637939453 237.77999877929688 79.94313049316406 226.09564208984375 C 90.23829650878906 226.0590362548828 119.63199615478516 235.4526824951172 140.09243774414062 224.22052001953125 C 186.89076232910156 201.67005920410156 91.59027099609375 200.9371337890625 191.63394165039062 181.0187225341797 L 154.91481018066406 235.91513061523438" fill="rgb(3, 28, 33)" opacity="0.5403347" stroke-width="2.0"/>
    <path d="M 88.62159729003906 156.60089111328125 C 80.16230010986328 157.35235595703125 91.45053100585938 159.28884887695312 86.63629150390625 160.47230529785156 C 85.24310302734375 167.6705780029297 114.1317367553711 178.31626892089844 99.20540618896484 213.32208251953125 C 80.62071990966797 177.05630493164062 96.88431549072266 155.36244201660156 91.98529052734375 162.23414611816406 C 73.07450866699219 181.93560791015625 75.2369155883789 176.4685821533203 85.87629699707031 172.4001922607422 L 88.62159729003906 156.60089111328125" fill="rgb(65, 62, 70)" opacity="0.22045046" stroke-width="2.0"/>
  </g>
</svg>
