<?xml version="1.0" ?>
<svg xmlns="http://www.w3.org/2000/svg" version="1.1" width="240" height="240">
  <defs/>
  <g>
    <path d="M -10.0 -10.0 C -9.0 -10.0 240.0 0.0 241.0 -5.972866058349609 C 238.2220001220703 5.97286319732666 243.7779998779297 234.0271453857422 246.97080993652344 246.01129150390625 C 234.94317626953125 248.04275512695312 7.406202793121338 250.5135040283203 5.825838565826416 241.88177490234375 C -2.555803060531616 247.9638671875 -6.129167556762695 247.11032104492188 -18.949907302856445 0.5151819586753845 L -10.0 -10.0" stroke-width="2.0" fill="rgb(175, 143, 72)" opacity="0.9884023"/>
    <path d="M 65.5551528930664 95.40432739257812 C 74.01819610595703 107.4465560913086 75.68047332763672 125.24860382080078 33.25419998168945 142.3474578857422 C 23.812660217285156 124.83851623535156 21.299102783203125 104.74082946777344 -28.75014877319336 108.32234954833984 C -40.10496520996094 43.849693298339844 -23.288541793823242 -9.101117134094238 80.54853057861328 -47.588523864746094 C 92.6680679321289 -22.08685874938965 62.826927185058594 36.88589859008789 79.46858978271484 46.217071533203125 L 65.5551528930664 95.40432739257812" stroke-width="2.0" fill="rgb(250, 230, 173)" opacity="1.0"/>
    <path d="M 178.85153198242188 158.2100830078125 C 183.68106079101562 169.3191680908203 174.38218688964844 188.1147918701172 130.94630432128906 186.482177734375 C 127.14334869384766 164.73287963867188 94.90023040771484 168.4722442626953 86.77635955810547 142.23876953125 C 94.1351547241211 102.98220825195312 100.1696548461914 92.13641357421875 126.19461822509766 106.3668212890625 C 151.2271270751953 55.52749252319336 167.68553161621094 63.2619743347168 178.36048889160156 128.8601837158203 L 178.85153198242188 158.2100830078125" stroke-width="2.0" fill="rgb(70, 56, 54)" opacity="0.9060407"/>
    <path d="M 264.7081604003906 51.69773483276367 C 264.1352233886719 71.34054565429688 254.24319458007812 78.70845031738281 257.9764099121094 122.10848236083984 C 234.0404815673828 56.70746612548828 195.5155487060547 63.054012298583984 180.52577209472656 28.97762107849121 C 173.57559204101562 20.770036697387695 151.6688995361328 18.02021026611328 137.7691650390625 -9.289680480957031 C 243.25485229492188 -24.973398208618164 255.9442596435547 -6.506420135498047 254.03805541992188 6.838740348815918 L 264.7081604003906 51.69773483276367" stroke-width="2.0" fill="rgb(112, 87, 77)" opacity="0.980054"/>
    <path d="M 177.2170867919922 174.95169067382812 C 189.76361083984375 194.2882080078125 164.8856964111328 214.20721435546875 156.65101623535156 245.67971801757812 C 137.4978485107422 233.73553466796875 121.64778900146484 232.85618591308594 99.26886749267578 233.17434692382812 C 119.72758483886719 221.61270141601562 109.02129364013672 198.5624237060547 168.30206298828125 158.3751220703125 C 176.05075073242188 138.55648803710938 188.25779724121094 138.97357177734375 188.6877899169922 162.8229217529297 L 177.2170867919922 174.95169067382812" stroke-width="2.0" fill="rgb(10, 34, 43)" opacity="0.846058"/>
    <path d="M 193.53952026367188 221.56800842285156 C 192.30052185058594 238.31874084472656 200.52450561523438 262.9071044921875 202.51278686523438 287.8610534667969 C 178.62747192382812 258.24114990234375 149.4052276611328 269.5298156738281 130.62318420410156 270.3310546875 C 176.99795532226562 248.86790466308594 157.48773193359375 185.65957641601562 178.52793884277344 166.6848602294922 C 200.55157470703125 178.1291046142578 203.9723663330078 179.14154052734375 204.55006408691406 195.32972717285156 L 193.53952026367188 221.56800842285156" stroke-width="2.0" fill="rgb(29, 0, 9)" opacity="0.74279094"/>
    <path d="M 207.99705505371094 186.4940185546875 C 207.33082580566406 194.35105895996094 200.88035583496094 257.580078125 195.41012573242188 264.08062744140625 C 182.26856994628906 250.62255859375 193.61492919921875 214.8802947998047 204.6727294921875 189.22552490234375 C 216.23255920410156 206.22935485839844 223.462890625 220.0968017578125 251.46661376953125 215.5311279296875 C 256.2382507324219 240.08108520507812 252.2546844482422 271.6320495605469 172.04034423828125 287.00762939453125 L 207.99705505371094 186.4940185546875" stroke-width="2.0" fill="rgb(110, 100, 43)" opacity="0.59496063"/>
    <path d="M 84.6198959350586 68.58455657958984 C 98.65680694580078 63.369022369384766 108.77165222167969 61.65639877319336 115.2450180053711 63.81757354736328 C 108.67633056640625 72.15734100341797 99.65630340576172 86.34769439697266 83.80743408203125 107.89466094970703 C 74.80247497558594 78.58052825927734 80.48109436035156 75.62962341308594 96.30973052978516 73.0408706665039 C 104.58151245117188 74.73185729980469 109.76245880126953 72.02813720703125 119.02554321289062 75.28362274169922 L 84.6198959350586 68.58455657958984" stroke-width="2.0" fill="rgb(23, 10, 13)" opacity="0.9386697"/>
    <path d="M 22.673912048339844 213.62599182128906 C -25.612730026245117 185.21775817871094 -45.053977966308594 209.6101531982422 23.027416229248047 266.77386474609375 C 48.804439544677734 242.54812622070312 29.613494873046875 200.72154235839844 -10.693343162536621 203.6703338623047 C 4.651397705078125 199.929443359375 1.2584186792373657 171.05731201171875 13.674429893493652 169.4331512451172 C -2.190441131591797 173.88160705566406 -8.140839576721191 202.69654846191406 30.56433868408203 212.9400177001953 L 22.673912048339844 213.62599182128906" stroke-width="2.0" fill="rgb(2, 29, 24)" opacity="0.65923244"/>
    <path d="M 67.26207733154297 120.42141723632812 C 35.6792106628418 169.16090393066406 28.477073669433594 199.0099639892578 47.9075927734375 230.13510131835938 C 24.978580474853516 181.95208740234375 13.803155899047852 183.79434204101562 18.736309051513672 212.80307006835938 C 29.531147003173828 210.82672119140625 37.404232025146484 187.54013061523438 41.016658782958984 164.61541748046875 C 37.414127349853516 178.23687744140625 28.160015106201172 206.7487335205078 56.56228256225586 239.9055938720703 L 67.26207733154297 120.42141723632812" stroke-width="2.0" fill="rgb(255, 200, 114)" opacity="0.89313877"/>
    <path d="M 78.91255950927734 77.71178436279297 C 73.90428924560547 80.15196990966797 67.93569946289062 82.19916534423828 69.90990447998047 95.80450439453125 C 73.72132110595703 79.7522964477539 62.87128448486328 76.94214630126953 63.9851188659668 71.82931518554688 C 67.70246887207031 68.52124786376953 81.62281036376953 79.49251556396484 91.1148910522461 67.74192810058594 C 65.45059967041016 64.37117767333984 62.89149856567383 68.80731201171875 78.34837341308594 79.79847717285156 L 78.91255950927734 77.71178436279297" stroke-width="2.0" fill="rgb(28, 8, 8)" opacity="0.93397504"/>
    <path d="M 95.05168914794922 116.18940734863281 C 68.07305145263672 123.79106140136719 69.29667663574219 129.76861572265625 92.94587707519531 128.15457153320312 C 60.61981964111328 60.31922912597656 53.26772689819336 63.394264221191406 66.56372833251953 115.62811279296875 C 76.24795532226562 127.8748550415039 95.97815704345703 124.53946685791016 97.19857788085938 84.15880584716797 C 93.91832733154297 104.53750610351562 92.07655334472656 116.4100570678711 88.54911041259766 135.82931518554688 L 95.05168914794922 116.18940734863281" stroke-width="2.0" fill="rgb(215, 174, 133)" opacity="0.8594656"/>
    <path d="M 202.35801696777344 165.41627502441406 C 175.60748291015625 181.14892578125 180.04623413085938 195.20106506347656 210.4198760986328 188.4351043701172 C 205.44972229003906 170.18356323242188 196.05996704101562 171.18763732910156 197.7874298095703 195.44837951660156 C 195.5727081298828 178.495361328125 183.17164611816406 167.17047119140625 200.88197326660156 137.62342834472656 C 154.82351684570312 192.33599853515625 158.62582397460938 197.1873016357422 206.91468811035156 177.79371643066406 L 202.35801696777344 165.41627502441406" stroke-width="2.0" fill="rgb(84, 62, 54)" opacity="0.64507395"/>
    <path d="M 144.07919311523438 171.73902893066406 C 120.66426849365234 163.37242126464844 104.84996795654297 192.98219299316406 138.11801147460938 216.7583770751953 C 125.69440460205078 155.5685577392578 110.38536071777344 158.16506958007812 105.43489837646484 182.32516479492188 C 133.22216796875 176.6820831298828 132.34059143066406 169.62062072753906 94.72633361816406 159.3040771484375 C 79.61972045898438 126.59297180175781 110.77000427246094 91.44568634033203 175.9682159423828 130.81854248046875 L 144.07919311523438 171.73902893066406" stroke-width="2.0" fill="rgb(14, 0, 1)" opacity="0.43959618"/>
    <path d="M 106.52094268798828 87.96417236328125 C 89.70719146728516 93.17316436767578 85.13274383544922 107.18276977539062 93.28258514404297 129.15643310546875 C 108.11262512207031 98.20429229736328 101.26007843017578 92.23400115966797 82.09483337402344 109.30139923095703 C 54.146907806396484 78.42220306396484 58.14055252075195 73.4510726928711 91.49854278564453 81.37265014648438 C 97.60282897949219 81.276123046875 104.01268768310547 76.27926635742188 106.2328109741211 39.575801849365234 L 106.52094268798828 87.96417236328125" stroke-width="2.0" fill="rgb(123, 89, 81)" opacity="0.63808256"/>
    <path d="M 130.93795776367188 108.25863647460938 C 93.06173706054688 114.33384704589844 84.75785827636719 115.25090026855469 77.29714965820312 109.6736831665039 C 99.4862289428711 106.75857543945312 98.87068939208984 103.35350799560547 67.47706604003906 107.50730895996094 C 79.5902328491211 113.25064086914062 97.6941909790039 103.66989135742188 113.58409118652344 103.44689178466797 C 101.6234130859375 108.8778305053711 98.07147979736328 120.26686096191406 110.29859924316406 128.7698974609375 L 130.93795776367188 108.25863647460938" stroke-width="2.0" fill="rgb(33, 13, 16)" opacity="0.8483009"/>
    <path d="M 160.7103271484375 74.38617706298828 C 152.1052703857422 70.0243911743164 144.38253784179688 39.81257247924805 148.70101928710938 19.897565841674805 C 145.99649047851562 38.84176254272461 123.86661529541016 40.62062072753906 116.48960876464844 72.2092056274414 C 118.70482635498047 73.6121826171875 149.8573760986328 43.42205047607422 135.00877380371094 28.060781478881836 C 128.56317138671875 49.194244384765625 151.33090209960938 60.69378662109375 163.1155242919922 76.7141342163086 L 160.7103271484375 74.38617706298828" stroke-width="2.0" fill="rgb(19, 2, 10)" opacity="0.7509293"/>
    <path d="M 181.63063049316406 130.795166015625 C 128.68319702148438 74.00259399414062 122.39909362792969 78.82096099853516 126.05830383300781 120.49797058105469 C 154.57403564453125 79.57696533203125 135.63536071777344 60.390106201171875 124.4272232055664 42.9234733581543 C 161.2613983154297 50.499351501464844 164.66522216796875 41.7076530456543 123.94918823242188 24.273759841918945 C 126.27449798583984 45.16106033325195 157.4777374267578 45.362213134765625 169.22393798828125 79.97859191894531 L 181.63063049316406 130.795166015625" stroke-width="2.0" fill="rgb(117, 65, 34)" opacity="0.7348409"/>
    <path d="M 141.533203125 54.863338470458984 C 116.0991439819336 51.21967697143555 108.34864807128906 103.12295532226562 143.5666046142578 112.78652954101562 C 158.6865997314453 77.15718841552734 154.90145874023438 69.0683822631836 134.0247344970703 58.91603469848633 C 143.88186645507812 49.57229995727539 139.71524047851562 29.514198303222656 94.62648010253906 37.162574768066406 C 134.8583984375 47.592105865478516 134.3370819091797 54.20362854003906 155.82603454589844 81.24957275390625 L 141.533203125 54.863338470458984" stroke-width="2.0" fill="rgb(220, 107, 48)" opacity="0.33845803"/>
    <path d="M 107.57783508300781 142.50889587402344 C 69.09441375732422 112.1297378540039 54.1596565246582 129.11692810058594 98.24598693847656 196.3059844970703 C 101.2784652709961 143.64134216308594 72.9582290649414 134.43948364257812 65.90135192871094 150.8818817138672 C 75.59343719482422 142.33204650878906 74.17079162597656 133.7263946533203 73.87814331054688 124.38111877441406 C 49.12883758544922 96.94962310791016 43.829463958740234 101.74120330810547 115.39518737792969 184.82586669921875 L 107.57783508300781 142.50889587402344" stroke-width="2.0" fill="rgb(233, 143, 72)" opacity="0.5752194"/>
    <path d="M 98.28455352783203 154.4529266357422 C 91.57650756835938 159.49249267578125 94.57019805908203 164.3528289794922 142.47396850585938 162.23094177246094 C 124.81475830078125 181.4547882080078 99.10716247558594 185.75575256347656 82.33208465576172 184.2250213623047 C 97.65869140625 178.52139282226562 94.0922622680664 155.107666015625 104.6176986694336 137.09091186523438 C 115.20127868652344 144.33221435546875 115.29395294189453 157.57252502441406 115.47289276123047 167.15750122070312 L 98.28455352783203 154.4529266357422" stroke-width="2.0" fill="rgb(93, 34, 18)" opacity="0.5563686"/>
    <path d="M 140.7698516845703 48.35944366455078 C 110.3695297241211 38.43347930908203 91.87969970703125 74.00198364257812 116.42440795898438 89.80059051513672 C 138.8284912109375 63.5789680480957 138.26614379882812 57.92910385131836 82.22219848632812 40.84086227416992 C 121.46430206298828 58.876216888427734 128.91009521484375 56.30143356323242 128.75270080566406 34.35929489135742 C 83.36182403564453 37.18144989013672 83.47532653808594 47.668365478515625 107.04889678955078 51.92462158203125 L 140.7698516845703 48.35944366455078" stroke-width="2.0" fill="rgb(226, 165, 101)" opacity="0.8915425"/>
    <path d="M 177.241943359375 11.494287490844727 C 179.6212921142578 29.931541442871094 184.21266174316406 47.40431213378906 206.85971069335938 59.67479705810547 C 182.9352264404297 97.85957336425781 164.2392578125 90.89787292480469 168.75804138183594 75.50750732421875 C 143.58749389648438 50.47782516479492 139.64239501953125 39.656593322753906 184.66310119628906 19.79775619506836 C 176.8016357421875 23.932388305664062 183.7079620361328 52.71670150756836 213.93875122070312 60.73295593261719 L 177.241943359375 11.494287490844727" stroke-width="2.0" fill="rgb(242, 255, 185)" opacity="0.45545107"/>
    <path d="M 80.82696533203125 177.13055419921875 C 85.90552520751953 178.163330078125 100.20758819580078 193.12069702148438 103.8811264038086 197.16217041015625 C 94.41087341308594 182.2032928466797 77.48785400390625 180.78054809570312 63.91333770751953 153.53944396972656 C 80.39257049560547 189.11068725585938 96.99858093261719 186.40228271484375 100.9181900024414 193.2178955078125 C 113.52627563476562 191.20327758789062 120.70504760742188 187.93582153320312 128.86093139648438 192.9733428955078 L 80.82696533203125 177.13055419921875" stroke-width="2.0" fill="rgb(60, 17, 0)" opacity="1.0"/>
    <path d="M 178.43226623535156 203.89297485351562 C 104.41029357910156 188.16561889648438 100.62386322021484 194.41534423828125 122.52760314941406 208.07110595703125 C 160.71922302246094 176.52210998535156 157.45504760742188 168.92767333984375 107.95816802978516 187.8217010498047 C 141.66177368164062 193.5564727783203 146.7782745361328 181.3612518310547 130.4297637939453 168.49452209472656 C 133.13710021972656 169.7836456298828 146.0406494140625 190.12693786621094 151.91043090820312 204.95823669433594 L 178.43226623535156 203.89297485351562" stroke-width="2.0" fill="rgb(24, 33, 34)" opacity="1.0"/>
    <path d="M 5.447815418243408 185.39500427246094 C -9.921743392944336 199.047607421875 8.386588096618652 221.3974609375 42.06642532348633 246.06468200683594 C 27.253023147583008 172.49920654296875 6.166159152984619 168.82400512695312 -2.293719530105591 200.60415649414062 C -8.206053733825684 180.19654846191406 15.353657722473145 171.26956176757812 10.738595962524414 149.66909790039062 C -13.384323120117188 194.88902282714844 -8.08609390258789 198.0676727294922 22.675525665283203 148.91810607910156 L 5.447815418243408 185.39500427246094" stroke-width="2.0" fill="rgb(93, 96, 32)" opacity="0.6077372"/>
    <path d="M 36.8101921081543 171.8309326171875 C 22.11180305480957 191.79721069335938 -33.34468460083008 203.5269317626953 -16.896310806274414 292.60308837890625 C 59.184940338134766 216.3739013671875 22.713665008544922 175.36831665039062 -16.96930503845215 208.8087921142578 C -11.880790710449219 204.76344299316406 14.87801742553711 193.04795837402344 19.389976501464844 165.4578857421875 C 2.5734455585479736 190.84397888183594 -7.709365367889404 198.94058227539062 -17.972803115844727 215.3603515625 L 36.8101921081543 171.8309326171875" stroke-width="2.0" fill="rgb(10, 25, 19)" opacity="0.32941967"/>
    <path d="M 242.22360229492188 181.98458862304688 C 207.75982666015625 185.61500549316406 207.49465942382812 195.75645446777344 245.0908203125 197.3370361328125 C 223.43099975585938 164.6808319091797 219.71902465820312 164.5682373046875 215.51405334472656 204.213623046875 C 199.8302459716797 209.69789123535156 196.7694091796875 201.73316955566406 250.66758728027344 176.34963989257812 C 252.4936981201172 195.90760803222656 250.2057342529297 200.04978942871094 225.7690887451172 195.18310546875 L 242.22360229492188 181.98458862304688" stroke-width="2.0" fill="rgb(105, 67, 11)" opacity="0.5924044"/>
    <path d="M 78.4139404296875 134.27618408203125 C 88.67256164550781 142.34262084960938 101.04844665527344 159.533935546875 103.64460754394531 177.88882446289062 C 66.95953369140625 175.2332000732422 67.69307708740234 157.08470153808594 55.84977340698242 137.00926208496094 C 56.31844711303711 116.50814819335938 62.898563385009766 113.69328308105469 75.85335540771484 137.25497436523438 C 98.98245239257812 150.01422119140625 98.57537841796875 155.87510681152344 91.91133880615234 175.98992919921875 L 78.4139404296875 134.27618408203125" stroke-width="2.0" fill="rgb(255, 175, 98)" opacity="0.9305742"/>
    <path d="M 15.95949649810791 78.83397674560547 C 30.456592559814453 80.73114776611328 30.427186965942383 87.10720825195312 -9.878100395202637 170.60780334472656 C -3.8818085193634033 140.97816467285156 -33.79156494140625 117.70140075683594 -42.630863189697266 52.67301559448242 C -28.402725219726562 72.8831787109375 -4.312172889709473 59.445518493652344 8.575240135192871 56.125946044921875 C 14.753915786743164 81.87875366210938 37.626258850097656 97.21619415283203 42.44053649902344 103.0008544921875 L 15.95949649810791 78.83397674560547" stroke-width="2.0" fill="rgb(219, 212, 108)" opacity="0.7616222"/>
    <path d="M 61.93117904663086 118.80845642089844 C 70.6340103149414 147.16961669921875 69.92069244384766 160.67977905273438 66.03804779052734 167.68470764160156 C 18.77033233642578 176.29933166503906 15.37989616394043 162.3764190673828 11.577937126159668 141.2582244873047 C 15.519805908203125 104.01432800292969 19.394336700439453 94.9041976928711 52.753780364990234 99.55833435058594 C 51.473419189453125 112.87687683105469 70.03121185302734 121.53767395019531 71.5155029296875 141.50924682617188 L 61.93117904663086 118.80845642089844" stroke-width="2.0" fill="rgb(243, 213, 113)" opacity="0.76714736"/>
    <path d="M 217.71783447265625 71.92901611328125 C 211.83596801757812 92.88372802734375 211.60433959960938 152.1340789794922 191.8546600341797 154.76185607910156 C 171.04969787597656 131.39822387695312 183.79942321777344 118.41851806640625 172.557373046875 90.48987579345703 C 149.17514038085938 46.71180725097656 153.0389862060547 44.470829010009766 180.90536499023438 87.49169921875 C 199.8793487548828 47.6182746887207 238.53045654296875 63.167964935302734 206.48902893066406 146.65866088867188 L 217.71783447265625 71.92901611328125" stroke-width="2.0" fill="rgb(255, 230, 133)" opacity="0.56998473"/>
    <path d="M 142.44313049316406 75.2580337524414 C 124.3673324584961 91.43299865722656 123.29624938964844 102.04395294189453 119.95535278320312 105.58917236328125 C 108.64087677001953 103.39320373535156 100.73936462402344 113.20542907714844 88.336181640625 106.11396789550781 C 76.58729553222656 98.52288818359375 83.90848541259766 79.94574737548828 129.885498046875 97.69159698486328 C 138.84109497070312 98.03608703613281 141.36639404296875 83.46363067626953 149.5982666015625 79.76130676269531 L 142.44313049316406 75.2580337524414" stroke-width="2.0" fill="rgb(165, 119, 86)" opacity="0.65586144"/>
    <path d="M 248.7107696533203 147.56016540527344 C 258.3326110839844 159.0814208984375 246.1690673828125 177.35848999023438 246.68870544433594 191.78280639648438 C 214.215576171875 182.09896850585938 200.0786895751953 182.03900146484375 184.4242401123047 126.66519927978516 C 223.01373291015625 175.52276611328125 240.85992431640625 161.4616241455078 209.56552124023438 119.12834930419922 C 216.61245727539062 100.11721801757812 229.3811798095703 102.80990600585938 236.71127319335938 191.04922485351562 L 248.7107696533203 147.56016540527344" stroke-width="2.0" fill="rgb(251, 183, 60)" opacity="0.37842974"/>
    <path d="M 130.8867950439453 123.53546905517578 C 129.8843994140625 139.2608642578125 116.73360443115234 153.59494018554688 135.33297729492188 180.75711059570312 C 123.6850357055664 162.29287719726562 123.64688110351562 123.2361831665039 70.70927429199219 122.61643981933594 C 86.62049865722656 159.9190673828125 117.2435073852539 155.48959350585938 125.68781280517578 139.387939453125 C 137.02125549316406 147.0711669921875 143.27516174316406 162.1422882080078 120.43737030029297 175.74563598632812 L 130.8867950439453 123.53546905517578" stroke-width="2.0" fill="rgb(98, 58, 38)" opacity="0.5033021"/>
    <path d="M 111.00193786621094 194.0205535888672 C 152.10130310058594 207.03904724121094 152.77784729003906 211.26145935058594 107.99490356445312 233.53713989257812 C 98.86223602294922 234.67588806152344 96.41486358642578 229.09425354003906 99.68769073486328 219.3272705078125 C 117.86543273925781 225.75901794433594 135.5343780517578 210.5283660888672 157.28359985351562 210.98394775390625 C 148.20140075683594 209.32493591308594 124.39922332763672 222.43153381347656 111.09230041503906 219.43919372558594 L 111.00193786621094 194.0205535888672" stroke-width="2.0" fill="rgb(79, 95, 82)" opacity="1.0"/>
    <path d="M 141.1739044189453 237.7906951904297 C 144.0583953857422 235.18373107910156 162.37571716308594 242.092041015625 149.65744018554688 277.7234802246094 C 131.69554138183594 258.2015686035156 112.54045104980469 232.01080322265625 92.7043228149414 234.43045043945312 C 71.65804290771484 227.9097137451172 71.84305572509766 224.08328247070312 125.8576889038086 230.44073486328125 C 176.68704223632812 224.45840454101562 183.12010192871094 226.2002716064453 193.2672119140625 248.98968505859375 L 141.1739044189453 237.7906951904297" stroke-width="2.0" fill="rgb(44, 17, 26)" opacity="0.5615005"/>
    <path d="M 96.26956176757812 155.92706298828125 C 103.52490234375 167.42388916015625 100.72312927246094 184.7273406982422 123.1845932006836 198.6561279296875 C 65.17794036865234 182.06069946289062 66.97095489501953 176.502685546875 95.53968811035156 180.9036865234375 C 77.52037811279297 175.22213745117188 79.02593231201172 151.897705078125 56.9720458984375 140.21192932128906 C 121.07135009765625 189.24598693847656 103.16879272460938 214.9287109375 88.00041198730469 205.1897430419922 L 96.26956176757812 155.92706298828125" stroke-width="2.0" fill="rgb(38, 0, 0)" opacity="0.28955755"/>
    <path d="M 34.946998596191406 6.300838947296143 C 37.56957244873047 12.463942527770996 33.4970703125 17.2713565826416 21.71807098388672 35.047874450683594 C 3.746494770050049 25.635236740112305 -7.073695659637451 19.085206985473633 -19.10213851928711 12.325636863708496 C 4.153863906860352 -7.942107677459717 10.610753059387207 -8.904537200927734 16.06488609313965 -6.160319805145264 C 48.87849807739258 -30.651357650756836 71.18335723876953 -15.169029235839844 75.77803802490234 -13.428702354431152 L 34.946998596191406 6.300838947296143" stroke-width="2.0" fill="rgb(253, 240, 200)" opacity="0.86975074"/>
    <path d="M 46.67101287841797 56.288124084472656 C 65.12582397460938 74.87201690673828 77.6046371459961 73.66636657714844 88.02546691894531 78.7304458618164 C 94.98027038574219 73.42481231689453 89.48328399658203 59.93555450439453 37.9215202331543 58.89882278442383 C 80.72235107421875 63.022621154785156 86.98040771484375 52.513065338134766 78.2792739868164 44.032596588134766 C 100.0148696899414 31.926881790161133 126.11065673828125 53.78902816772461 110.89315032958984 71.82005310058594 L 46.67101287841797 56.288124084472656" stroke-width="2.0" fill="rgb(255, 218, 162)" opacity="0.85144323"/>
    <path d="M 165.75535583496094 -0.09917077422142029 C 168.41336059570312 14.84581184387207 174.87063598632812 32.64388656616211 173.40711975097656 36.846397399902344 C 150.70188903808594 38.88144302368164 142.70785522460938 12.741582870483398 102.74657440185547 20.7196044921875 C 100.99229431152344 -17.875015258789062 123.50464630126953 -22.329273223876953 137.5439910888672 -5.726121425628662 C 185.388671875 4.504513263702393 188.9639129638672 33.146339416503906 177.7509307861328 52.48794937133789 L 165.75535583496094 -0.09917077422142029" stroke-width="2.0" fill="rgb(211, 238, 177)" opacity="0.59109557"/>
    <path d="M 117.53691101074219 140.580078125 C 125.6556625366211 156.94570922851562 128.89085388183594 158.5128936767578 134.89901733398438 168.81045532226562 C 119.90309143066406 168.1291961669922 88.9512710571289 141.47865295410156 73.11102294921875 123.80879974365234 C 109.58196258544922 135.29220581054688 119.47120666503906 108.42649841308594 166.26119995117188 94.72898864746094 C 183.43898010253906 133.8902130126953 183.385986328125 137.54315185546875 135.12208557128906 170.44384765625 L 117.53691101074219 140.580078125" stroke-width="2.0" fill="rgb(62, 22, 8)" opacity="0.5608657"/>
    <path d="M 106.91697692871094 72.0384750366211 C 94.91356658935547 61.699066162109375 90.03851318359375 66.73470306396484 92.58763885498047 74.20153045654297 C 89.69795989990234 84.84123229980469 73.84132385253906 83.76351165771484 71.00516510009766 71.35874938964844 C 63.2359619140625 69.82313537597656 63.7353515625 65.33467102050781 77.71796417236328 65.66011810302734 C 91.6462173461914 62.026390075683594 94.59590911865234 66.11477661132812 90.92243194580078 73.79266357421875 L 106.91697692871094 72.0384750366211" stroke-width="2.0" fill="rgb(139, 117, 98)" opacity="0.8331363"/>
    <path d="M 64.93269348144531 221.74940490722656 C 106.90890502929688 216.02706909179688 111.01036071777344 221.50552368164062 106.11163330078125 225.9259490966797 C 96.82743835449219 215.026123046875 89.45545959472656 220.57708740234375 64.31835174560547 220.9148712158203 C 91.79013061523438 180.51632690429688 99.90452575683594 183.22210693359375 107.56538391113281 192.64479064941406 C 116.28388214111328 214.3309326171875 109.08125305175781 234.58383178710938 81.44636535644531 225.4951629638672 L 64.93269348144531 221.74940490722656" stroke-width="2.0" fill="rgb(82, 193, 255)" opacity="0.3236998"/>
    <path d="M 120.6959228515625 33.24983215332031 C 134.0366973876953 21.796695709228516 148.32949829101562 29.66621971130371 137.47251892089844 60.80288314819336 C 120.72843933105469 41.79952621459961 122.086669921875 39.828887939453125 141.11595153808594 48.86943054199219 C 139.37359619140625 39.34379577636719 144.12063598632812 18.88700294494629 157.15025329589844 18.942459106445312 C 165.26504516601562 28.024494171142578 163.2765655517578 47.191925048828125 138.0931396484375 47.40281677246094 L 120.6959228515625 33.24983215332031" stroke-width="2.0" fill="rgb(100, 35, 31)" opacity="0.6402748"/>
    <path d="M 132.47625732421875 97.19766235351562 C 127.73682403564453 117.8695068359375 112.68716430664062 128.02847290039062 106.53467559814453 126.19317626953125 C 86.63949584960938 129.984375 77.94120788574219 122.21873474121094 80.91606140136719 108.22537231445312 C 101.43192291259766 113.2412109375 107.74119567871094 109.80193328857422 112.0643310546875 99.21556091308594 C 117.27727508544922 91.8667984008789 133.48924255371094 97.08667755126953 144.51385498046875 104.14171600341797 L 132.47625732421875 97.19766235351562" stroke-width="2.0" fill="rgb(142, 102, 71)" opacity="0.50765616"/>
    <path d="M 254.7054901123047 187.42547607421875 C 244.45567321777344 190.91058349609375 241.94595336914062 209.34059143066406 231.9422607421875 214.4139862060547 C 218.8553009033203 216.26638793945312 217.16363525390625 213.59918212890625 224.0286102294922 207.41015625 C 233.9581756591797 201.10238647460938 254.46034240722656 214.9176788330078 260.1626892089844 219.0061798095703 C 246.02874755859375 202.826416015625 245.76766967773438 180.9846954345703 264.04510498046875 169.8654327392578 L 254.7054901123047 187.42547607421875" stroke-width="2.0" fill="rgb(69, 61, 19)" opacity="0.712837"/>
    <path d="M 15.13746452331543 248.10009765625 C 28.93362045288086 204.9967498779297 51.5121955871582 210.74200439453125 65.35619354248047 225.12860107421875 C 43.83143615722656 239.09466552734375 35.95709228515625 228.28799438476562 47.84806823730469 214.39939880371094 C 55.27283477783203 218.5736083984375 60.473472595214844 214.9703369140625 48.08609390258789 195.3595733642578 C 66.66593170166016 199.05751037597656 69.38748168945312 227.66995239257812 108.74845123291016 223.545654296875 L 15.13746452331543 248.10009765625" stroke-width="2.0" fill="rgb(35, 12, 21)" opacity="0.291239"/>
    <path d="M 22.57828140258789 34.578365325927734 C 20.832578659057617 63.84058380126953 46.137489318847656 72.18075561523438 60.37321853637695 123.2894287109375 C -1.2631500959396362 115.96578216552734 2.8209097385406494 66.9324722290039 -4.881134033203125 45.660308837890625 C 17.15646743774414 28.698701858520508 38.600040435791016 55.88833999633789 27.685707092285156 87.37361145019531 C 64.6700668334961 80.38816833496094 75.31495666503906 63.19999313354492 52.85475158691406 34.42928695678711 L 22.57828140258789 34.578365325927734" stroke-width="2.0" fill="rgb(252, 231, 153)" opacity="0.66342735"/>
    <path d="M 198.64297485351562 167.0607452392578 C 198.4659423828125 170.28599548339844 206.7327117919922 175.5196990966797 210.32992553710938 186.37696838378906 C 193.99234008789062 189.81507873535156 184.87953186035156 178.90362548828125 183.42747497558594 176.82760620117188 C 187.9876251220703 170.1707305908203 203.5492706298828 166.0273895263672 201.45364379882812 148.06236267089844 C 196.52084350585938 162.03627014160156 209.71109008789062 170.6917724609375 210.17811584472656 184.42027282714844 L 198.64297485351562 167.0607452392578" stroke-width="2.0" fill="rgb(144, 255, 248)" opacity="0.24487539"/>
    <path d="M 105.01293182373047 14.09895133972168 C 113.53856658935547 16.653676986694336 111.55593872070312 31.041011810302734 122.40350341796875 40.02302169799805 C 84.19434356689453 36.14117431640625 84.51703643798828 28.223873138427734 108.44485473632812 27.223764419555664 C 111.198486328125 21.75983428955078 118.0256576538086 23.220272064208984 120.85586547851562 24.714902877807617 C 131.4035186767578 35.62857437133789 131.23204040527344 41.34611129760742 122.14862823486328 41.74504089355469 L 105.01293182373047 14.09895133972168" stroke-width="2.0" fill="rgb(58, 33, 0)" opacity="0.49053502"/>
    <path d="M 158.0834503173828 206.43511962890625 C 173.76304626464844 200.13351440429688 181.0128173828125 203.25726318359375 193.2025146484375 181.6645050048828 C 170.48399353027344 217.90992736816406 165.82037353515625 215.5575714111328 110.2789077758789 200.77224731445312 C 177.13711547851562 194.26773071289062 189.81239318847656 174.8199462890625 192.70774841308594 168.4781951904297 C 199.02108764648438 166.64288330078125 207.87063598632812 177.7694091796875 207.82723999023438 190.0057830810547 L 158.0834503173828 206.43511962890625" stroke-width="2.0" fill="rgb(3, 43, 48)" opacity="0.47304845"/>
    <path d="M 65.32752990722656 206.46432495117188 C 61.51882553100586 201.0164031982422 51.003658294677734 197.20758056640625 45.3674201965332 193.41128540039062 C 52.3442497253418 172.7880096435547 58.942955017089844 171.14024353027344 63.18290328979492 184.83433532714844 C 50.22005081176758 135.79490661621094 57.409053802490234 133.2034149169922 84.71925354003906 171.81448364257812 C 94.64573669433594 167.99159240722656 104.41297149658203 192.25119018554688 64.3086929321289 215.62646484375 L 65.32752990722656 206.46432495117188" stroke-width="2.0" fill="rgb(104, 214, 255)" opacity="0.33511928"/>
    <path d="M 63.19055938720703 150.53341674804688 C 73.55699920654297 149.2493438720703 73.80023956298828 157.2341766357422 58.97139358520508 166.01748657226562 C 61.95637130737305 183.756103515625 36.78300857543945 191.1157989501953 32.97169494628906 177.82115173339844 C 63.446834564208984 166.9140625 51.44373321533203 129.85752868652344 60.31166458129883 119.30989837646484 C 68.28182983398438 156.16860961914062 63.412872314453125 177.21682739257812 109.33348083496094 188.12887573242188 L 63.19055938720703 150.53341674804688" stroke-width="2.0" fill="rgb(255, 246, 224)" opacity="0.63300073"/>
    <path d="M 102.25569152832031 197.3075408935547 C 116.62516784667969 180.21368408203125 132.1153106689453 191.81378173828125 138.81324768066406 189.97874450683594 C 122.0372314453125 206.9405059814453 100.48338317871094 191.20314025878906 92.16648864746094 178.3558807373047 C 98.33497619628906 188.64834594726562 121.56652069091797 178.89402770996094 150.39686584472656 160.96495056152344 C 139.79266357421875 187.63133239746094 124.93206024169922 181.41346740722656 101.6843490600586 188.2489013671875 L 102.25569152832031 197.3075408935547" stroke-width="2.0" fill="rgb(200, 206, 238)" opacity="0.28822497"/>
    <path d="M 95.79120635986328 186.6697540283203 C 98.54147338867188 213.25552368164062 94.37969970703125 218.90625 74.09740447998047 209.8645782470703 C 67.67628479003906 201.8736114501953 75.87467956542969 190.4099578857422 66.5462417602539 179.7500762939453 C 76.39149475097656 178.5434112548828 90.19786834716797 184.46749877929688 94.61016082763672 185.1990509033203 C 106.39513397216797 179.33035278320312 112.50830078125 181.1244354248047 110.81327056884766 219.05958557128906 L 95.79120635986328 186.6697540283203" stroke-width="2.0" fill="rgb(255, 237, 216)" opacity="0.33284733"/>
    <path d="M 44.909690856933594 2.9671335220336914 C 44.21858215332031 23.212188720703125 70.38771057128906 28.114925384521484 63.96101379394531 60.24744415283203 C 72.07192993164062 15.821406364440918 50.69041442871094 -1.1603662967681885 32.15289306640625 1.6869292259216309 C 46.064205169677734 -9.221487045288086 54.084510803222656 -3.277806282043457 124.66226196289062 -60.54612350463867 C 114.43400573730469 -21.082536697387695 120.01920318603516 -1.3410260677337646 86.13955688476562 34.568092346191406 L 44.909690856933594 2.9671335220336914" stroke-width="2.0" fill="rgb(234, 229, 161)" opacity="0.8223904"/>
    <path d="M 132.97540283203125 -7.644318103790283 C 154.21629333496094 -31.4935359954834 246.48895263671875 46.74251174926758 305.950439453125 160.18617248535156 C 196.9410400390625 141.12353515625 207.23687744140625 69.47148132324219 148.76568603515625 15.95846176147461 C 172.79168701171875 5.229970455169678 181.5330047607422 20.03301429748535 196.0912322998047 24.60135841369629 C 206.3416748046875 28.043386459350586 208.31900024414062 36.60453796386719 222.83668518066406 38.77713394165039 L 132.97540283203125 -7.644318103790283" stroke-width="2.0" fill="rgb(177, 151, 99)" opacity="0.48545942"/>
    <path d="M 181.7185821533203 209.83511352539062 C 152.40098571777344 200.78929138183594 135.521240234375 236.2379150390625 113.20271301269531 228.46343994140625 C 138.4827880859375 215.00001525878906 137.1802978515625 200.4865264892578 84.85899353027344 184.21218872070312 C 154.0094757080078 179.82814025878906 156.10301208496094 194.8732147216797 139.87628173828125 206.4871368408203 C 161.8246612548828 202.45591735839844 166.34771728515625 211.13389587402344 173.99737548828125 227.77662658691406 L 181.7185821533203 209.83511352539062" stroke-width="2.0" fill="rgb(71, 81, 70)" opacity="0.4846991"/>
    <path d="M 55.342262268066406 194.76271057128906 C 63.996341705322266 173.48300170898438 77.84552001953125 179.18125915527344 55.80270767211914 234.4663543701172 C 47.258079528808594 224.34478759765625 50.299949645996094 217.23556518554688 106.8294448852539 230.2816162109375 C 67.22505187988281 232.5574493408203 53.723697662353516 219.08929443359375 68.31229400634766 204.29541015625 C 68.3132553100586 214.22756958007812 73.95463562011719 237.93692016601562 67.62512969970703 248.97251892089844 L 55.342262268066406 194.76271057128906" stroke-width="2.0" fill="rgb(4, 0, 17)" opacity="0.34156013"/>
    <path d="M 76.6515884399414 21.41714859008789 C 66.57449340820312 25.384557723999023 62.842308044433594 35.70979690551758 81.16625213623047 51.635433197021484 C 71.447998046875 68.6731185913086 43.333457946777344 55.57756423950195 22.996538162231445 60.66014862060547 C 35.429107666015625 26.971275329589844 56.89398956298828 13.84140396118164 79.22895812988281 -2.8812081813812256 C 75.31533813476562 36.44499969482422 61.266685485839844 53.53799819946289 50.99595642089844 83.82938385009766 L 76.6515884399414 21.41714859008789" stroke-width="2.0" fill="rgb(82, 139, 0)" opacity="0.0726017"/>
    <path d="M 18.858543395996094 181.71566772460938 C 26.567079544067383 178.32623291015625 45.90520095825195 177.37442016601562 52.836448669433594 187.6351776123047 C 19.433170318603516 183.5037384033203 16.20036506652832 171.7777862548828 33.64227294921875 163.7208251953125 C 33.376220703125 160.9463348388672 35.248085021972656 156.14703369140625 41.14534378051758 108.75505065917969 C 60.15697479248047 132.66580200195312 68.82239532470703 152.7843780517578 57.41606140136719 163.7939910888672 L 18.858543395996094 181.71566772460938" stroke-width="2.0" fill="rgb(249, 222, 118)" opacity="0.6551616"/>
    <path d="M 77.06591796875 144.71945190429688 C 108.01724243164062 163.3018341064453 109.78721618652344 167.3998260498047 108.8940658569336 182.51258850097656 C 87.22032165527344 178.57644653320312 79.36311340332031 161.3983917236328 58.82769012451172 111.80364227294922 C 82.35033416748047 124.0883560180664 89.3927230834961 143.0061492919922 113.85103607177734 147.6593017578125 C 123.82098388671875 147.5720672607422 126.55101013183594 153.20211791992188 120.53103637695312 172.35137939453125 L 77.06591796875 144.71945190429688" stroke-width="2.0" fill="rgb(169, 97, 44)" opacity="0.3272796"/>
    <path d="M 57.81566619873047 142.3253173828125 C 43.63311767578125 195.5284881591797 32.657936096191406 231.4380340576172 81.52002716064453 247.87338256835938 C 32.70905685424805 256.3764953613281 18.467683792114258 183.9219512939453 32.31122589111328 171.9356689453125 C 58.920345306396484 165.46888732910156 61.40186309814453 162.84938049316406 59.2684326171875 150.02447509765625 C 62.592159271240234 160.197509765625 51.579200744628906 170.7423858642578 42.004371643066406 206.08778381347656 L 57.81566619873047 142.3253173828125" stroke-width="2.0" fill="rgb(218, 177, 48)" opacity="0.51607406"/>
  </g>
</svg>
