<?xml version="1.0" ?>
<svg height="240" version="1.1" width="240" xmlns="http://www.w3.org/2000/svg">
  <defs/>
  <g>
    <path d="M -10.0 -10.0 C -9.0 -10.0 240.0 0.0 241.0 0.0 C 242.0 0.0 240.0 240.0 241.0 240.0 C 241.0 241.0 0.0 240.0 0.0 241.0 C 0.0 240.0 0.0 241.0 -10.0 -10.0 L -10.0 -10.0" fill="rgb(85, 43, 10)" opacity="0.9467312" stroke-width="2.0"/>
    <path d="M 231.16183471679688 104.51530456542969 C 230.2240753173828 101.11743927001953 232.3734130859375 103.69701385498047 231.87124633789062 102.56500244140625 C 229.23744201660156 103.10453033447266 231.04026794433594 104.96714782714844 233.4497528076172 105.47083282470703 C 232.88217163085938 104.3174819946289 232.12530517578125 103.93944549560547 233.2860565185547 109.06474304199219 C 232.97900390625 106.3957290649414 234.02914428710938 103.42499542236328 232.4564208984375 107.19642639160156 L 231.16183471679688 104.51530456542969" fill="rgb(0, 152, 181)" opacity="0.056317687" stroke-width="2.0"/>
    <path d="M 177.92349243164062 20.938941955566406 C 179.8011932373047 12.78033447265625 170.1333465576172 17.56113052368164 172.0536346435547 13.136731147766113 C 170.3732147216797 23.109006881713867 174.2229461669922 15.650583267211914 166.20596313476562 17.88754653930664 C 170.52581787109375 21.06262969970703 165.66268920898438 13.274088859558105 175.5920867919922 20.839962005615234 C 172.88133239746094 20.489421844482422 176.96435546875 20.19512176513672 174.63885498046875 21.126468658447266 L 177.92349243164062 20.938941955566406" fill="rgb(0, 10, 12)" opacity="0.7940297" stroke-width="2.0"/>
    <path d="M 68.80892181396484 123.35037994384766 C 128.81036376953125 153.34690856933594 39.1563720703125 135.95249938964844 34.28523254394531 193.5052490234375 C 108.59064483642578 133.9512939453125 141.8822021484375 148.48179626464844 81.19852447509766 129.99122619628906 C 62.50887680053711 194.49160766601562 96.95804595947266 197.8709716796875 76.11740112304688 159.7793731689453 C -12.365238189697266 237.19784545898438 -8.465948104858398 207.66580200195312 82.10374450683594 221.32350158691406 L 68.80892181396484 123.35037994384766" fill="rgb(0, 4, 20)" opacity="0.8049256" stroke-width="2.0"/>
    <path d="M 31.617393493652344 118.2288818359375 C 27.268478393554688 162.0184783935547 10.856996536254883 140.6505889892578 11.98503303527832 160.0426788330078 C -32.713401794433594 161.736083984375 -15.497997283935547 154.72088623046875 -7.681715965270996 137.72116088867188 C -7.38181734085083 107.13215637207031 -7.424643039703369 106.07147216796875 -26.453577041625977 68.30921936035156 C 2.7254881858825684 65.6911849975586 23.105762481689453 74.52558898925781 40.64444351196289 56.24274444580078 L 31.617393493652344 118.2288818359375" fill="rgb(136, 19, 21)" opacity="0.0" stroke-width="2.0"/>
    <path d="M 146.62461853027344 16.1668701171875 C 152.84780883789062 17.87916374206543 152.64199829101562 18.788162231445312 102.1402587890625 0.24417048692703247 C 134.76219177246094 -17.454782485961914 163.79196166992188 -10.963579177856445 163.07188415527344 -2.3752400875091553 C 161.88389587402344 76.70020294189453 188.23626708984375 9.939292907714844 176.34742736816406 73.08612060546875 C 118.36089324951172 -5.647288799285889 116.88150024414062 65.2821044921875 117.74835205078125 5.987946033477783 L 146.62461853027344 16.1668701171875" fill="rgb(20, 14, 37)" opacity="0.43312344" stroke-width="2.0"/>
    <path d="M 131.50076293945312 93.40766143798828 C 103.65253448486328 90.84935760498047 104.87793731689453 103.47368621826172 120.00432586669922 106.94612121582031 C 138.7006378173828 83.41200256347656 126.3204574584961 84.93657684326172 89.461669921875 100.63704681396484 C 71.07328796386719 39.59517288208008 88.53557586669922 50.82236862182617 112.57848358154297 78.50707244873047 C 125.6553726196289 48.952537536621094 123.45718383789062 128.88885498046875 107.47098541259766 94.36605834960938 L 131.50076293945312 93.40766143798828" fill="rgb(0, 3, 10)" opacity="0.9684356" stroke-width="2.0"/>
    <path d="M 2.472867250442505 127.66475677490234 C -3.295724630355835 109.09930419921875 -1.8974825143814087 111.75008392333984 -0.5380775928497314 119.01289367675781 C -0.07764282077550888 119.87478637695312 -1.5924513339996338 123.34190368652344 0.4013397991657257 90.5501480102539 C 24.24027442932129 104.09768676757812 57.09373474121094 121.83356475830078 30.94434356689453 138.24819946289062 C 37.38682174682617 111.43743896484375 35.315887451171875 127.6458511352539 30.661720275878906 151.17813110351562 L 2.472867250442505 127.66475677490234" fill="rgb(0, 0, 110)" opacity="1.0" stroke-width="2.0"/>
    <path d="M 25.04037857055664 179.912353515625 C 43.68491744995117 135.4897918701172 29.991012573242188 141.9566192626953 13.483126640319824 152.61679077148438 C 9.274802207946777 168.0309295654297 25.536359786987305 155.41513061523438 -9.435982704162598 164.07826232910156 C -8.175959587097168 132.1288604736328 -10.607171058654785 120.75628662109375 6.98796272277832 84.67539978027344 C 59.75892639160156 92.44171142578125 36.055538177490234 108.99906158447266 15.865983963012695 108.59593963623047 L 25.04037857055664 179.912353515625" fill="rgb(255, 181, 101)" opacity="0.6200018" stroke-width="2.0"/>
    <path d="M 254.6822509765625 239.42062377929688 C 207.46890258789062 251.93563842773438 205.27638244628906 250.79039001464844 198.19956970214844 250.85972595214844 C 165.8470458984375 250.3712921142578 162.0707244873047 251.68336486816406 126.90324401855469 239.39617919921875 C 138.83995056152344 200.0688934326172 156.50572204589844 202.85569763183594 171.495849609375 210.85768127441406 C 243.62522888183594 209.09695434570312 166.9246063232422 182.67543029785156 238.8585205078125 119.91702270507812 L 254.6822509765625 239.42062377929688" fill="rgb(0, 4, 24)" opacity="0.7100524" stroke-width="2.0"/>
    <path d="M 194.00425720214844 42.98152542114258 C 195.3906707763672 44.55901336669922 193.00621032714844 42.71919631958008 195.52626037597656 41.9742546081543 C 193.39407348632812 41.4998893737793 194.37765502929688 41.3539924621582 195.56094360351562 42.53628158569336 C 195.01687622070312 41.538272857666016 195.20458984375 42.226078033447266 194.10948181152344 43.334407806396484 C 193.1217498779297 42.66122817993164 192.58746337890625 42.031978607177734 194.14633178710938 43.41269302368164 L 194.00425720214844 42.98152542114258" fill="rgb(1, 188, 2)" opacity="0.22977215" stroke-width="2.0"/>
    <path d="M 49.06401062011719 110.31524658203125 C 18.33687400817871 101.88915252685547 16.865245819091797 111.70374298095703 17.916051864624023 111.27442932128906 C -1.4744236469268799 109.0057144165039 -8.885133743286133 109.41371154785156 -10.168946266174316 110.01327514648438 C -12.300370216369629 70.7940673828125 -7.457569599151611 85.55221557617188 28.795879364013672 56.54378128051758 C 36.948184967041016 54.83279037475586 26.117626190185547 59.7563591003418 36.913108825683594 58.64654541015625 L 49.06401062011719 110.31524658203125" fill="rgb(145, 111, 76)" opacity="0.0" stroke-width="2.0"/>
    <path d="M 201.95401000976562 120.34376525878906 C 211.8024139404297 155.65792846679688 225.936279296875 162.87319946289062 189.42010498046875 158.4472198486328 C 209.8472442626953 112.6048355102539 184.94229125976562 136.41867065429688 117.48011016845703 129.78509521484375 C 125.56412506103516 26.994504928588867 159.1246337890625 130.1697998046875 177.44374084472656 76.38130950927734 C 193.59793090820312 89.95011138916016 181.87167358398438 123.85304260253906 190.07150268554688 107.88990783691406 L 201.95401000976562 120.34376525878906" fill="rgb(255, 146, 57)" opacity="0.91091716" stroke-width="2.0"/>
    <path d="M 195.4871063232422 71.55810546875 C 196.30963134765625 71.6085433959961 196.37429809570312 71.63916778564453 195.52935791015625 69.45993041992188 C 194.30813598632812 70.41062927246094 193.3418731689453 70.77009582519531 194.10560607910156 73.11756896972656 C 195.6309051513672 72.16460418701172 195.49166870117188 71.29957580566406 195.60121154785156 71.74601745605469 C 195.4239501953125 70.8061752319336 195.7174530029297 70.86945343017578 195.54525756835938 71.2244644165039 L 195.4871063232422 71.55810546875" fill="rgb(11, 14, 77)" opacity="0.06823985" stroke-width="2.0"/>
    <path d="M 139.94984436035156 211.4697723388672 C 119.92726135253906 207.6766357421875 145.23330688476562 208.14015197753906 131.221923828125 202.20962524414062 C 118.2470703125 206.42767333984375 113.09519958496094 195.50680541992188 116.95185089111328 213.18832397460938 C 122.67120361328125 194.01422119140625 121.67426300048828 200.5791473388672 124.40464782714844 190.30502319335938 C 131.59613037109375 176.2499237060547 127.64018249511719 183.8120880126953 134.09378051757812 180.88389587402344 L 139.94984436035156 211.4697723388672" fill="rgb(250, 129, 24)" opacity="0.627978" stroke-width="2.0"/>
    <path d="M 84.22425842285156 170.836181640625 C 83.28069305419922 169.76577758789062 83.3199462890625 169.71725463867188 81.41694641113281 168.59378051757812 C 81.33251953125 168.281005859375 82.78482055664062 168.83935546875 83.16680908203125 167.3957061767578 C 81.95956420898438 169.54974365234375 83.32522583007812 168.85446166992188 82.88578796386719 168.66275024414062 C 85.47830963134766 168.09120178222656 83.47952270507812 168.39004516601562 82.47274780273438 168.95445251464844 L 84.22425842285156 170.836181640625" fill="rgb(169, 0, 197)" opacity="0.0040630824" stroke-width="2.0"/>
    <path d="M 59.9920539855957 208.78378295898438 C 41.36223602294922 216.82281494140625 58.542518615722656 208.4163818359375 33.946529388427734 210.63375854492188 C 49.083736419677734 210.72474670410156 16.503538131713867 191.00393676757812 26.444944381713867 211.8662567138672 C -29.673938751220703 173.0264129638672 -20.1507511138916 168.84170532226562 32.62675857543945 183.27732849121094 C 7.3641462326049805 134.62013244628906 58.76757049560547 192.19696044921875 48.84420394897461 191.344482421875 L 59.9920539855957 208.78378295898438" fill="rgb(241, 93, 5)" opacity="0.70761585" stroke-width="2.0"/>
    <path d="M 91.11965942382812 13.417012214660645 C 93.64366912841797 10.664488792419434 92.40180969238281 9.743093490600586 93.2222900390625 7.322946071624756 C 96.77112579345703 7.6919169425964355 95.91276550292969 7.675808906555176 99.05899047851562 8.585832595825195 C 98.64908599853516 13.397689819335938 98.51261901855469 12.448195457458496 96.99822235107422 15.974709510803223 C 92.58252716064453 15.363042831420898 94.47367858886719 14.65983772277832 91.9950180053711 14.948465347290039 L 91.11965942382812 13.417012214660645" fill="rgb(121, 57, 177)" opacity="0.06364718" stroke-width="2.0"/>
    <path d="M 226.1947021484375 166.5358428955078 C 222.76092529296875 173.6937713623047 226.84820556640625 166.86354064941406 221.968017578125 170.6240997314453 C 214.68019104003906 171.7463836669922 214.27049255371094 175.4156036376953 215.2953643798828 170.640869140625 C 214.37796020507812 163.01255798339844 213.78472900390625 167.40699768066406 224.57684326171875 158.1533966064453 C 226.2904510498047 154.02146911621094 226.33583068847656 160.69931030273438 225.955810546875 155.27597045898438 L 226.1947021484375 166.5358428955078" fill="rgb(253, 101, 0)" opacity="0.95170784" stroke-width="2.0"/>
    <path d="M 37.91398239135742 109.00382995605469 C 29.7925968170166 102.29953002929688 28.178842544555664 104.77156829833984 30.862749099731445 112.06609344482422 C 8.87846565246582 94.60047912597656 45.07668685913086 63.673465728759766 6.234131813049316 84.89865112304688 C 20.59183692932129 127.21166229248047 21.577457427978516 123.99827575683594 27.166399002075195 117.79676818847656 C 17.90165138244629 84.46451568603516 21.686145782470703 29.22324562072754 52.82589340209961 85.95304870605469 L 37.91398239135742 109.00382995605469" fill="rgb(255, 169, 80)" opacity="0.9140398" stroke-width="2.0"/>
    <path d="M 119.37362670898438 202.96041870117188 C 123.28076171875 214.63609313964844 161.48345947265625 201.15077209472656 127.45113372802734 210.759033203125 C 100.08248138427734 209.2740020751953 119.2186050415039 212.01748657226562 124.84371185302734 188.38055419921875 C 114.37722778320312 207.25399780273438 116.698486328125 205.3297119140625 137.63265991210938 201.67562866210938 C 125.32688903808594 196.06698608398438 120.91386413574219 177.9310302734375 132.84762573242188 183.42813110351562 L 119.37362670898438 202.96041870117188" fill="rgb(255, 160, 16)" opacity="0.8983454" stroke-width="2.0"/>
    <path d="M 31.17122459411621 139.47679138183594 C 36.424560546875 141.15457153320312 29.604459762573242 146.88246154785156 33.39923095703125 137.2019805908203 C 35.94343566894531 140.02491760253906 30.874467849731445 142.39920043945312 28.975801467895508 139.59974670410156 C 29.523191452026367 141.2579803466797 35.20676803588867 145.71119689941406 61.45006561279297 120.08035278320312 C 53.191898345947266 95.68257141113281 81.2757568359375 112.9228515625 44.60679244995117 123.39540100097656 L 31.17122459411621 139.47679138183594" fill="rgb(236, 118, 40)" opacity="0.2666082" stroke-width="2.0"/>
    <path d="M 175.78656005859375 143.41700744628906 C 157.6318359375 115.75851440429688 148.38653564453125 102.53946685791016 187.2129364013672 123.83615112304688 C 203.75146484375 139.46762084960938 188.70509338378906 129.43096923828125 187.69955444335938 132.7027130126953 C 141.26522827148438 172.6511688232422 140.465576171875 176.15188598632812 185.90383911132812 134.00338745117188 C 203.34603881835938 121.16836547851562 210.26947021484375 176.07521057128906 120.77835083007812 181.22621154785156 L 175.78656005859375 143.41700744628906" fill="rgb(12, 9, 19)" opacity="0.8547048" stroke-width="2.0"/>
    <path d="M 195.47091674804688 32.042701721191406 C 167.0501251220703 50.80876159667969 161.2666778564453 43.79904556274414 162.99746704101562 -18.400230407714844 C 235.0406951904297 -5.284477233886719 236.10107421875 -11.95843505859375 227.7406463623047 -15.443266868591309 C 247.876953125 -17.997831344604492 255.48919677734375 -21.555099487304688 247.56675720214844 48.8480224609375 C 131.44223022460938 51.31156539916992 221.39198303222656 27.676733016967773 196.86399841308594 22.384326934814453 L 195.47091674804688 32.042701721191406" fill="rgb(9, 8, 39)" opacity="0.38288093" stroke-width="2.0"/>
    <path d="M 191.79393005371094 33.745906829833984 C 178.34255981445312 44.705322265625 193.42926025390625 39.473262786865234 187.55194091796875 45.59923553466797 C 166.8514404296875 45.83088684082031 177.23524475097656 49.14918899536133 178.54335021972656 36.280696868896484 C 177.60874938964844 42.61979293823242 178.72935485839844 37.0740852355957 182.7984161376953 36.108009338378906 C 181.3740234375 36.70146179199219 181.19187927246094 34.558780670166016 181.83929443359375 36.279319763183594 L 191.79393005371094 33.745906829833984" fill="rgb(243, 136, 41)" opacity="1.0" stroke-width="2.0"/>
    <path d="M 197.4486541748047 89.04544830322266 C 197.86798095703125 91.29560089111328 195.53443908691406 92.11328125 195.16049194335938 96.14496612548828 C 195.722412109375 92.8111343383789 195.4258270263672 94.6861572265625 194.41282653808594 95.68891906738281 C 195.93328857421875 93.9073257446289 196.61599731445312 91.42144775390625 196.70205688476562 91.67019653320312 C 196.3439483642578 92.68685150146484 197.77049255371094 89.6743392944336 197.47537231445312 89.8529281616211 L 197.4486541748047 89.04544830322266" fill="rgb(155, 183, 85)" opacity="0.23419812" stroke-width="2.0"/>
    <path d="M 100.39039611816406 163.3492431640625 C 101.00733184814453 162.31088256835938 101.66680908203125 163.72064208984375 102.52273559570312 166.2432403564453 C 102.99137115478516 164.30467224121094 105.59291076660156 166.2998504638672 106.42267608642578 167.12738037109375 C 102.60916900634766 161.89984130859375 99.78926849365234 163.3317413330078 102.65682220458984 163.43080139160156 C 101.16922760009766 164.2036895751953 101.51292419433594 162.14707946777344 102.35868072509766 163.12196350097656 L 100.39039611816406 163.3492431640625" fill="rgb(181, 178, 0)" opacity="0.0" stroke-width="2.0"/>
    <path d="M 107.992919921875 263.7829284667969 C 113.8314208984375 144.11398315429688 -6.710442066192627 156.62057495117188 131.6158447265625 148.6086883544922 C 121.70252227783203 210.50408935546875 86.03695678710938 184.39454650878906 81.47357940673828 243.18833923339844 C 107.07303619384766 249.76109313964844 93.80099487304688 238.61093139648438 140.38673400878906 162.31973266601562 C 97.4124526977539 187.78965759277344 52.6132698059082 345.4845275878906 -40.88722610473633 186.3170166015625 L 107.992919921875 263.7829284667969" fill="rgb(5, 9, 25)" opacity="0.79588145" stroke-width="2.0"/>
    <path d="M 127.29747009277344 133.22366333007812 C 112.50313568115234 125.0286636352539 111.3515625 142.05613708496094 152.12557983398438 121.7354507446289 C 198.84947204589844 124.66841125488281 173.2303009033203 162.4794921875 120.53076171875 171.0819091796875 C 112.12684631347656 91.3263168334961 129.4661407470703 137.4041748046875 163.34898376464844 124.41940307617188 C 129.13906860351562 122.31307983398438 124.97535705566406 131.24583435058594 151.9962158203125 114.51358032226562 L 127.29747009277344 133.22366333007812" fill="rgb(255, 146, 51)" opacity="0.9482985" stroke-width="2.0"/>
    <path d="M 44.56002426147461 63.40530014038086 C 23.8217830657959 57.807437896728516 44.422576904296875 66.7522201538086 43.390201568603516 76.84921264648438 C 43.39052200317383 73.00872802734375 36.982601165771484 62.71019744873047 47.416072845458984 78.18628692626953 C 58.22081756591797 95.08545684814453 53.45248794555664 83.44898223876953 35.519142150878906 60.58835983276367 C 37.362876892089844 70.08499908447266 38.36137771606445 60.280914306640625 48.96347427368164 63.834266662597656 L 44.56002426147461 63.40530014038086" fill="rgb(245, 253, 223)" opacity="0.8683761" stroke-width="2.0"/>
    <path d="M 51.86314010620117 123.6561279296875 C 62.84901809692383 60.66532897949219 119.25118255615234 46.58900451660156 101.9942398071289 67.2483901977539 C 138.06700134277344 100.11261749267578 129.55517578125 78.77296447753906 107.9683609008789 69.36468505859375 C 104.11305236816406 121.46964263916016 50.74943542480469 48.370880126953125 76.74809265136719 160.32513427734375 C 161.31527709960938 120.33600616455078 133.67489624023438 125.26073455810547 117.03886413574219 78.4632568359375 L 51.86314010620117 123.6561279296875" fill="rgb(3, 5, 13)" opacity="0.9019231" stroke-width="2.0"/>
    <path d="M 58.735923767089844 115.50296020507812 C 59.6724739074707 131.0426025390625 45.586666107177734 121.71674346923828 44.8157844543457 130.4452667236328 C 23.52922248840332 139.05459594726562 41.246707916259766 176.32823181152344 33.538543701171875 163.8167266845703 C 27.455259323120117 96.30680084228516 -0.4759487509727478 68.13356018066406 41.96484375 75.4499740600586 C 51.26018524169922 109.65686798095703 48.459617614746094 112.54618835449219 58.948509216308594 115.0028305053711 L 58.735923767089844 115.50296020507812" fill="rgb(255, 251, 200)" opacity="0.91402" stroke-width="2.0"/>
    <path d="M 207.0717010498047 161.1637725830078 C 199.48681640625 183.94728088378906 216.9498748779297 167.43588256835938 185.68185424804688 208.13204956054688 C 131.34925842285156 202.90670776367188 189.75486755371094 208.03082275390625 142.09725952148438 180.60379028320312 C 123.02719116210938 179.12918090820312 186.6133575439453 180.4024200439453 202.97927856445312 134.06594848632812 C 229.64645385742188 181.4260711669922 187.27491760253906 150.29481506347656 196.89205932617188 172.9117889404297 L 207.0717010498047 161.1637725830078" fill="rgb(233, 98, 16)" opacity="0.8309193" stroke-width="2.0"/>
    <path d="M 76.27617645263672 48.48753356933594 C 78.81427764892578 81.47209930419922 83.32144165039062 71.87236785888672 34.93716812133789 64.91083526611328 C -6.8062896728515625 72.62259674072266 31.840578079223633 96.044189453125 -10.125616073608398 102.2412338256836 C -11.355304718017578 11.218310356140137 -11.350227355957031 10.925503730773926 -11.597599029541016 -10.562390327453613 C 32.187721252441406 -11.701330184936523 38.87321472167969 -9.985883712768555 69.97603607177734 -12.875622749328613 L 76.27617645263672 48.48753356933594" fill="rgb(246, 168, 81)" opacity="1.0" stroke-width="2.0"/>
    <path d="M 240.28578186035156 71.77273559570312 C 239.7431182861328 73.05821228027344 239.15219116210938 71.96459197998047 238.16656494140625 73.24068450927734 C 239.9371337890625 70.95794677734375 239.11898803710938 70.87541961669922 239.53956604003906 71.24943542480469 C 239.4971466064453 70.62322235107422 237.8089599609375 73.9260482788086 239.4352569580078 72.56168365478516 C 240.28367614746094 70.99881744384766 239.9369354248047 71.07283782958984 238.66824340820312 67.74700164794922 L 240.28578186035156 71.77273559570312" fill="rgb(85, 5, 207)" opacity="0.011367452" stroke-width="2.0"/>
    <path d="M 49.75693893432617 194.17164611816406 C 55.789772033691406 216.17333984375 54.572288513183594 191.44381713867188 57.32222366333008 208.2733154296875 C 49.196109771728516 189.14688110351562 52.665653228759766 196.82411193847656 49.67243194580078 193.253662109375 C 47.82419967651367 195.0612335205078 53.43412399291992 187.29930114746094 50.270751953125 196.40435791015625 C 52.788818359375 196.9783172607422 46.382843017578125 189.14236450195312 49.69145202636719 189.1570281982422 L 49.75693893432617 194.17164611816406" fill="rgb(252, 134, 40)" opacity="0.72493714" stroke-width="2.0"/>
    <path d="M 100.04103088378906 34.989707946777344 C 38.144142150878906 41.96592712402344 46.107635498046875 73.77110290527344 59.42823028564453 66.39849090576172 C 77.03323364257812 79.21632385253906 92.97880554199219 68.10331726074219 67.36821746826172 81.46154022216797 C 92.72075653076172 71.52253723144531 79.61019134521484 66.62406921386719 69.27714538574219 81.1150894165039 C 85.23979187011719 64.04473114013672 79.32048797607422 85.56924438476562 84.2479248046875 70.94160461425781 L 100.04103088378906 34.989707946777344" fill="rgb(243, 161, 77)" opacity="0.9935592" stroke-width="2.0"/>
    <path d="M 237.45367431640625 37.25535202026367 C 254.3350372314453 22.183521270751953 249.89756774902344 32.738433837890625 231.1204376220703 135.02207946777344 C 163.2808380126953 75.89352416992188 184.53065490722656 107.2058334350586 178.5806884765625 77.2755355834961 C 163.18165588378906 44.654685974121094 176.46633911132812 46.15785217285156 241.71926879882812 19.804279327392578 C 245.4608917236328 35.816741943359375 234.60342407226562 38.38962173461914 223.2386932373047 48.888145446777344 L 237.45367431640625 37.25535202026367" fill="rgb(60, 36, 28)" opacity="0.99717546" stroke-width="2.0"/>
    <path d="M 211.7147216796875 137.95968627929688 C 210.82273864746094 161.40478515625 191.7094268798828 145.24301147460938 240.20989990234375 131.72348022460938 C 249.7437286376953 161.68814086914062 237.24449157714844 162.09568786621094 233.61343383789062 166.3348846435547 C 232.45774841308594 154.9672393798828 235.40504455566406 156.43031311035156 235.879638671875 176.53163146972656 C 240.58555603027344 146.68167114257812 247.36891174316406 161.17095947265625 194.52928161621094 195.62063598632812 L 211.7147216796875 137.95968627929688" fill="rgb(149, 87, 47)" opacity="0.07730205" stroke-width="2.0"/>
    <path d="M 29.410907745361328 179.65928649902344 C 30.526695251464844 227.35745239257812 27.556386947631836 184.15440368652344 24.457645416259766 211.7042694091797 C 11.055912017822266 216.6634521484375 17.325580596923828 195.861328125 -14.656404495239258 210.40298461914062 C -11.447848320007324 151.11700439453125 -13.373761177062988 160.6146697998047 9.759369850158691 159.54702758789062 C 29.164527893066406 163.28866577148438 29.124292373657227 108.69080352783203 30.07921028137207 180.0567169189453 L 29.410907745361328 179.65928649902344" fill="rgb(119, 115, 97)" opacity="0.60228825" stroke-width="2.0"/>
    <path d="M 121.30330657958984 155.46705627441406 C 121.25822448730469 156.08184814453125 123.25366973876953 157.68743896484375 121.3118667602539 156.4009246826172 C 121.09613037109375 156.7101593017578 122.54396057128906 155.6938934326172 121.548095703125 155.34027099609375 C 121.19193267822266 156.24107360839844 122.47350311279297 156.72271728515625 120.49105072021484 156.55084228515625 C 122.61788940429688 156.39842224121094 121.74356842041016 155.39956665039062 120.13265228271484 155.6569061279297 L 121.30330657958984 155.46705627441406" fill="rgb(153, 119, 35)" opacity="0.093331754" stroke-width="2.0"/>
    <path d="M 59.52507781982422 116.37909698486328 C 62.342830657958984 125.99090576171875 27.738500595092773 119.92826843261719 32.557647705078125 162.0425567626953 C 36.49229431152344 149.93026733398438 19.260068893432617 147.69195556640625 0.8983258008956909 124.85523223876953 C -5.195523738861084 101.19425964355469 -8.234302520751953 66.63118743896484 11.511405944824219 84.13178253173828 C 53.48304748535156 52.659366607666016 40.648834228515625 75.16426086425781 50.76005554199219 110.45486450195312 L 59.52507781982422 116.37909698486328" fill="rgb(226, 151, 72)" opacity="0.94385016" stroke-width="2.0"/>
    <path d="M 146.8602294921875 35.27503204345703 C 146.58514404296875 34.76267623901367 147.67967224121094 34.19456481933594 147.87110900878906 35.09891891479492 C 147.3711395263672 35.41407775878906 146.70486450195312 34.91569900512695 148.10610961914062 35.41855239868164 C 147.11131286621094 35.5413818359375 147.165283203125 36.16884994506836 147.80142211914062 35.117279052734375 C 147.34628295898438 34.682594299316406 148.0327606201172 34.68533706665039 146.8723602294922 34.807273864746094 L 146.8602294921875 35.27503204345703" fill="rgb(178, 0, 3)" opacity="0.017833328" stroke-width="2.0"/>
    <path d="M 132.98118591308594 200.44361877441406 C 132.85462951660156 200.94285583496094 131.2326202392578 185.82522583007812 112.60884094238281 211.58753967285156 C 120.19071960449219 190.76295471191406 121.05402374267578 203.33206176757812 120.40035247802734 188.70944213867188 C 121.80277252197266 182.8914031982422 127.3857650756836 183.883056640625 125.73915100097656 179.51295471191406 C 142.07762145996094 186.87542724609375 119.4151840209961 180.2667236328125 143.125 178.97625732421875 L 132.98118591308594 200.44361877441406" fill="rgb(248, 155, 24)" opacity="1.0" stroke-width="2.0"/>
    <path d="M 133.9674072265625 146.30218505859375 C 150.0308837890625 146.53123474121094 137.30984497070312 149.1222381591797 141.62173461914062 146.95291137695312 C 135.5430908203125 146.07179260253906 123.63387298583984 139.9218292236328 100.58267211914062 184.67959594726562 C 140.4161834716797 169.08108520507812 143.73023986816406 139.49610900878906 109.58489990234375 125.10882568359375 C 104.64335632324219 134.8946075439453 119.90611267089844 152.93612670898438 114.81075286865234 153.00540161132812 L 133.9674072265625 146.30218505859375" fill="rgb(14, 13, 21)" opacity="1.0" stroke-width="2.0"/>
    <path d="M 164.1556396484375 206.61474609375 C 193.03466796875 220.20770263671875 191.88461303710938 212.4578857421875 183.50633239746094 214.9154052734375 C 123.82219696044922 214.0191192626953 162.50723266601562 221.07305908203125 155.1751251220703 199.8157501220703 C 168.95851135253906 181.60813903808594 148.93862915039062 207.41036987304688 145.5343475341797 178.8956298828125 C 216.22259521484375 155.27174377441406 186.3980712890625 132.89517211914062 161.13619995117188 204.31089782714844 L 164.1556396484375 206.61474609375" fill="rgb(249, 139, 25)" opacity="0.89838815" stroke-width="2.0"/>
    <path d="M 57.78150939941406 211.5135955810547 C 70.88475036621094 226.0379180908203 75.78514862060547 218.1573486328125 55.34637451171875 214.04017639160156 C 93.7236328125 220.99986267089844 66.39166259765625 207.1112518310547 66.13883972167969 218.83297729492188 C 73.33562469482422 239.25579833984375 64.61769104003906 228.7300262451172 53.223201751708984 243.2933349609375 C 68.26872253417969 228.7724609375 66.30999755859375 238.5222930908203 69.87419128417969 227.2897186279297 L 57.78150939941406 211.5135955810547" fill="rgb(255, 219, 2)" opacity="1.0" stroke-width="2.0"/>
    <path d="M 120.08749389648438 36.404842376708984 C 120.45487213134766 21.80556297302246 211.38522338867188 72.32738494873047 144.2040252685547 90.7198715209961 C 93.77682495117188 90.47622680664062 159.84207153320312 82.01611328125 57.75465393066406 44.95405578613281 C 54.22496795654297 3.296137809753418 68.06700134277344 -1.9610347747802734 70.66105651855469 -11.601734161376953 C 128.28797912597656 -11.600213050842285 123.5975112915039 -10.924473762512207 120.03511810302734 -8.446087837219238 L 120.08749389648438 36.404842376708984" fill="rgb(231, 142, 63)" opacity="1.0" stroke-width="2.0"/>
    <path d="M 172.69107055664062 129.56373596191406 C 168.50782775878906 176.7117462158203 149.5606689453125 158.4263458251953 135.90853881835938 161.6751251220703 C 166.5362548828125 163.82571411132812 161.2268524169922 161.22047424316406 156.15408325195312 164.22857666015625 C 154.68368530273438 163.1233673095703 153.39434814453125 156.0840606689453 156.19639587402344 164.51580810546875 C 114.36726379394531 181.19931030273438 130.4497833251953 176.174560546875 147.0776824951172 110.86673736572266 L 172.69107055664062 129.56373596191406" fill="rgb(241, 136, 48)" opacity="1.0" stroke-width="2.0"/>
    <path d="M 56.57322311401367 184.48675537109375 C 26.003530502319336 161.88699340820312 19.897979736328125 149.2347869873047 78.27662658691406 127.33899688720703 C 111.73221588134766 150.23233032226562 107.70594787597656 188.14695739746094 64.91389465332031 184.4737548828125 C 77.51915740966797 156.30471801757812 51.4521484375 141.9532470703125 60.55271530151367 199.54470825195312 C 69.96136474609375 190.4312286376953 71.5228042602539 137.8741912841797 63.78628921508789 144.62664794921875 L 56.57322311401367 184.48675537109375" fill="rgb(28, 19, 21)" opacity="0.7929955" stroke-width="2.0"/>
    <path d="M 166.88015747070312 121.26500701904297 C 172.1298370361328 122.08970642089844 179.613525390625 123.33712768554688 183.35177612304688 124.09739685058594 C 179.56166076660156 124.4330825805664 175.90614318847656 123.70040893554688 171.83416748046875 119.99373626708984 C 174.3147735595703 119.94670867919922 176.7143096923828 119.81208801269531 177.6859130859375 120.38103485107422 C 175.0246124267578 120.65626525878906 175.07034301757812 120.85875701904297 174.0023651123047 121.20292663574219 L 166.88015747070312 121.26500701904297" fill="rgb(18, 217, 152)" opacity="0.0" stroke-width="2.0"/>
    <path d="M 255.2162628173828 81.76463317871094 C 189.01461791992188 90.3443832397461 210.29983520507812 86.86615753173828 207.66836547851562 119.83430480957031 C 215.31591796875 111.95067596435547 216.21221923828125 117.34496307373047 212.43589782714844 111.42572021484375 C 221.60894775390625 112.382568359375 224.332763671875 114.74259185791016 214.52557373046875 111.0499496459961 C 223.29815673828125 102.70806121826172 224.54937744140625 105.8816909790039 230.5232696533203 100.96857452392578 L 255.2162628173828 81.76463317871094" fill="rgb(209, 97, 32)" opacity="0.88621217" stroke-width="2.0"/>
    <path d="M 105.96846008300781 69.95408630371094 C 46.80309295654297 26.247861862182617 78.47030639648438 40.49956512451172 114.98867797851562 40.50856399536133 C 56.8249397277832 38.33468246459961 46.03713607788086 33.62520217895508 34.5178108215332 16.16563606262207 C 18.7241268157959 -40.953895568847656 15.759576797485352 -20.725934982299805 30.043001174926758 -7.469174385070801 C 64.39756774902344 -7.921609878540039 74.19452667236328 -20.580223083496094 116.54620361328125 -4.886306285858154 L 105.96846008300781 69.95408630371094" fill="rgb(249, 166, 77)" opacity="0.8716397" stroke-width="2.0"/>
    <path d="M 207.51292419433594 129.83465576171875 C 206.407958984375 129.3777618408203 206.60157775878906 128.344482421875 207.7360382080078 129.50970458984375 C 206.011474609375 129.5904083251953 207.6429443359375 127.49622344970703 207.59295654296875 126.97985076904297 C 205.7875518798828 128.96414184570312 208.27415466308594 126.8697280883789 206.56915283203125 129.3534393310547 C 207.20750427246094 128.12945556640625 208.08865356445312 129.21995544433594 207.81024169921875 128.96273803710938 L 207.51292419433594 129.83465576171875" fill="rgb(90, 77, 40)" opacity="0.013370787" stroke-width="2.0"/>
    <path d="M 218.41470336914062 163.1592254638672 C 212.72804260253906 168.90916442871094 217.2700653076172 167.42160034179688 216.7685089111328 169.38711547851562 C 214.3679656982422 164.7085418701172 215.8030548095703 171.15908813476562 215.4391632080078 173.56573486328125 C 216.00599670410156 174.0172882080078 213.46432495117188 164.40451049804688 218.18421936035156 162.08834838867188 C 231.27903747558594 150.11338806152344 226.26641845703125 159.0150604248047 214.79791259765625 167.38702392578125 L 218.41470336914062 163.1592254638672" fill="rgb(249, 250, 202)" opacity="0.94379467" stroke-width="2.0"/>
    <path d="M 240.13531494140625 127.49274444580078 C 227.92840576171875 127.08133697509766 229.4622039794922 126.37528991699219 246.44065856933594 126.59761810302734 C 260.5284118652344 77.00144958496094 260.4897766113281 63.26645278930664 203.71115112304688 90.45645141601562 C 208.60308837890625 204.97720336914062 196.5657196044922 170.87973022460938 222.12203979492188 145.58372497558594 C 227.6353302001953 114.71893310546875 227.32443237304688 152.4888458251953 251.2407684326172 116.04759216308594 L 240.13531494140625 127.49274444580078" fill="rgb(50, 30, 26)" opacity="1.0" stroke-width="2.0"/>
    <path d="M 41.29015350341797 227.51341247558594 C 43.10091781616211 228.86538696289062 41.792396545410156 228.03054809570312 42.29182052612305 228.28375244140625 C 42.07815933227539 228.09559631347656 42.069156646728516 228.7136993408203 41.94485855102539 227.3091278076172 C 41.51906967163086 227.3070526123047 42.049659729003906 228.17628479003906 40.60420227050781 227.19744873046875 C 40.24798583984375 227.4439239501953 43.2678337097168 228.31683349609375 39.239501953125 226.8372802734375 L 41.29015350341797 227.51341247558594" fill="rgb(73, 133, 78)" opacity="0.06853723" stroke-width="2.0"/>
    <path d="M 159.67486572265625 176.8487548828125 C 144.7448272705078 194.63421630859375 123.68972778320312 212.2938690185547 156.08802795410156 199.4548797607422 C 171.80517578125 201.37319946289062 132.5550079345703 215.4246368408203 135.32423400878906 206.0595703125 C 120.97132110595703 178.59954833984375 142.82908630371094 179.5635223388672 123.75462341308594 180.19503784179688 C 150.86756896972656 184.49266052246094 130.95269775390625 211.12828063964844 166.00482177734375 179.49514770507812 L 159.67486572265625 176.8487548828125" fill="rgb(250, 160, 24)" opacity="1.0" stroke-width="2.0"/>
    <path d="M 43.41926956176758 179.31320190429688 C 51.512901306152344 181.2330322265625 56.38723373413086 214.84201049804688 35.81461715698242 183.59146118164062 C -12.102983474731445 173.11660766601562 -15.29973030090332 173.26910400390625 -10.941780090332031 159.37966918945312 C -12.583353996276855 155.84315490722656 28.622587203979492 170.0548858642578 20.12332534790039 144.53172302246094 C 47.79600524902344 127.83305358886719 33.77153015136719 122.61756134033203 32.325523376464844 156.43919372558594 L 43.41926956176758 179.31320190429688" fill="rgb(246, 134, 46)" opacity="0.48478577" stroke-width="2.0"/>
    <path d="M 129.27963256835938 177.2652587890625 C 86.20690155029297 178.92684936523438 94.49565124511719 94.73101806640625 119.13214874267578 97.44271850585938 C 122.57080841064453 111.84623718261719 133.53738403320312 104.1684341430664 47.298316955566406 100.30718231201172 C 116.23416137695312 177.4901580810547 90.32006072998047 204.70864868164062 118.55240631103516 200.06398010253906 C 88.06656646728516 124.88885498046875 93.77185821533203 106.9146957397461 128.86871337890625 104.83199310302734 L 129.27963256835938 177.2652587890625" fill="rgb(17, 16, 22)" opacity="1.0" stroke-width="2.0"/>
    <path d="M 72.34713745117188 222.42910766601562 C 71.03056335449219 227.7959747314453 69.21143341064453 201.5089569091797 44.183502197265625 223.00634765625 C -30.36625099182129 231.342041015625 -28.611295700073242 259.7704772949219 242.99301147460938 231.1761932373047 C 108.01545715332031 198.7168731689453 54.500892639160156 218.61187744140625 72.7087173461914 220.58363342285156 C 68.63472747802734 234.414794921875 73.7198257446289 223.60325622558594 69.6279067993164 215.8876190185547 L 72.34713745117188 222.42910766601562" fill="rgb(25, 18, 22)" opacity="0.92909247" stroke-width="2.0"/>
    <path d="M 113.49972534179688 223.03082275390625 C 112.05846405029297 222.6763916015625 115.06877899169922 223.23756408691406 112.32764434814453 223.3112335205078 C 113.3785171508789 223.27297973632812 113.2644271850586 223.45944213867188 113.83184051513672 222.38461303710938 C 113.48526763916016 222.90994262695312 113.28797912597656 223.33474731445312 113.84534454345703 223.1194610595703 C 115.7603759765625 222.99298095703125 113.00830841064453 223.1688690185547 113.29158782958984 223.24961853027344 L 113.49972534179688 223.03082275390625" fill="rgb(178, 16, 59)" opacity="0.03363182" stroke-width="2.0"/>
    <path d="M 90.66614532470703 211.8538055419922 C 93.62504577636719 161.45489501953125 79.79470825195312 204.11204528808594 121.38064575195312 214.91139221191406 C 151.9456329345703 209.452392578125 173.8851776123047 212.411865234375 184.18345642089844 211.62713623046875 C 173.70516967773438 279.5640563964844 168.34417724609375 262.701904296875 153.37005615234375 249.2232208251953 C 111.05058288574219 252.48976135253906 55.08750534057617 306.3007507324219 42.47506332397461 210.94517517089844 L 90.66614532470703 211.8538055419922" fill="rgb(21, 15, 22)" opacity="0.6900011" stroke-width="2.0"/>
    <path d="M 101.01371002197266 114.60816192626953 C 60.54400634765625 120.59693908691406 63.33676528930664 138.2345428466797 56.79215621948242 205.40638732910156 C 120.03641510009766 147.92138671875 146.86746215820312 134.12294006347656 101.24069213867188 116.91409301757812 C 85.23780059814453 241.63429260253906 82.82125854492188 206.9715118408203 134.2740936279297 174.92562866210938 C 109.18663787841797 157.30874633789062 72.10845184326172 161.3135223388672 91.42422485351562 188.2515869140625 L 101.01371002197266 114.60816192626953" fill="rgb(8, 12, 21)" opacity="0.72135663" stroke-width="2.0"/>
  </g>
</svg>
