<?xml version="1.0" ?>
<svg xmlns="http://www.w3.org/2000/svg" version="1.1" width="240" height="240">
  <defs/>
  <g>
    <path d="M -10.0 -10.0 C -9.0 -10.0 240.0 0.0 241.0 -5.972866058349609 C 238.2220001220703 5.97286319732666 243.7779998779297 234.0271453857422 246.96978759765625 246.06085205078125 C 234.92185974121094 246.29806518554688 7.395450115203857 248.22218322753906 5.744369029998779 242.60939025878906 C -3.3207249641418457 247.5788116455078 -6.185231685638428 247.14540100097656 -18.59067153930664 0.20916680991649628 L -10.0 -10.0" stroke-width="2.0" fill="rgb(50, 31, 24)" opacity="0.9985608"/>
    <path d="M 41.79424285888672 74.6194076538086 C 105.97899627685547 94.36274719238281 105.75436401367188 106.77091217041016 69.00638580322266 122.32229614257812 C 80.42972564697266 76.07817840576172 71.48429107666016 69.41229248046875 -7.802637100219727 139.2996063232422 C -8.271296501159668 11.293619155883789 3.4226200580596924 5.3763837814331055 16.535205841064453 -19.46330451965332 C 120.31018829345703 -7.260404109954834 150.67909240722656 -0.5918791890144348 179.36227416992188 79.44723510742188 L 41.79424285888672 74.6194076538086" stroke-width="2.0" fill="rgb(128, 69, 29)" opacity="0.58667046"/>
    <path d="M 92.91683197021484 162.65545654296875 C 106.0959701538086 191.5652313232422 97.73428344726562 208.4614715576172 87.68082427978516 208.4567108154297 C 82.43016052246094 211.92640686035156 77.9842300415039 209.860595703125 79.92122650146484 204.0624542236328 C 77.78649139404297 196.84523010253906 78.8646240234375 182.5781707763672 81.25247192382812 178.3468475341797 C 86.1449966430664 175.3812713623047 96.52622985839844 186.91708374023438 99.56695556640625 187.08056640625 L 92.91683197021484 162.65545654296875" stroke-width="2.0" fill="rgb(254, 155, 12)" opacity="0.9773418"/>
    <path d="M 157.77243041992188 194.36553955078125 C 142.15567016601562 192.24790954589844 133.83465576171875 195.8092498779297 136.90673828125 209.72610473632812 C 169.73558044433594 194.74874877929688 166.78175354003906 188.51620483398438 135.1321258544922 195.6095733642578 C 140.34408569335938 182.17941284179688 137.1904754638672 170.70147705078125 138.81175231933594 155.0692138671875 C 138.64418029785156 173.82321166992188 145.64454650878906 184.75921630859375 165.0430908203125 185.99508666992188 L 157.77243041992188 194.36553955078125" stroke-width="2.0" fill="rgb(11, 14, 20)" opacity="0.943841"/>
    <path d="M 145.76443481445312 138.8112335205078 C 146.02134704589844 140.47242736816406 157.00437927246094 146.8639373779297 150.49818420410156 168.36553955078125 C 129.13714599609375 144.22137451171875 121.73084259033203 140.66287231445312 136.6994171142578 103.05215454101562 C 194.0386505126953 79.75308990478516 194.14602661132812 80.0132827758789 159.10997009277344 116.19560241699219 C 177.23414611816406 144.94781494140625 171.14085388183594 149.2897186279297 135.79254150390625 145.63014221191406 L 145.76443481445312 138.8112335205078" stroke-width="2.0" fill="rgb(252, 144, 54)" opacity="0.97838223"/>
    <path d="M 204.98184204101562 163.04177856445312 C 173.50062561035156 167.2448272705078 167.50924682617188 197.02272033691406 192.97059631347656 212.30572509765625 C 135.41555786132812 183.93472290039062 133.77560424804688 172.4690399169922 146.83338928222656 169.16140747070312 C 170.1472930908203 163.15037536621094 173.70065307617188 169.4559326171875 166.4927978515625 186.31712341308594 C 172.18370056152344 188.82769775390625 191.8977813720703 157.9750518798828 205.03759765625 124.57379150390625 L 204.98184204101562 163.04177856445312" stroke-width="2.0" fill="rgb(251, 111, 19)" opacity="0.9130139"/>
    <path d="M 86.81103515625 20.474590301513672 C 87.71669006347656 28.02065658569336 100.63890838623047 36.722511291503906 101.15081787109375 38.428001403808594 C 94.61673736572266 27.87697982788086 73.67417907714844 29.09401512145996 58.24907302856445 28.800424575805664 C 86.50979614257812 26.303218841552734 90.39469909667969 36.82328796386719 93.41424560546875 44.49559783935547 C 87.76402282714844 29.708332061767578 81.90315246582031 31.012792587280273 80.37905883789062 46.0374641418457 L 86.81103515625 20.474590301513672" stroke-width="2.0" fill="rgb(0, 0, 0)" opacity="1.0"/>
    <path d="M 55.60917663574219 220.86392211914062 C 32.9078254699707 204.35987854003906 14.976057052612305 209.3048095703125 10.373348236083984 199.36802673339844 C 41.7686767578125 200.4723663330078 44.44152069091797 165.30178833007812 12.62716007232666 160.7759552001953 C 35.190277099609375 173.1826934814453 46.516056060791016 185.72821044921875 60.61707305908203 210.2971954345703 C 35.57131576538086 208.87832641601562 17.565908432006836 181.93223571777344 37.07099533081055 146.90208435058594 L 55.60917663574219 220.86392211914062" stroke-width="2.0" fill="rgb(225, 91, 10)" opacity="0.74119455"/>
    <path d="M 204.79090881347656 192.3565673828125 C 204.0249786376953 196.90635681152344 198.24819946289062 199.3044891357422 194.51495361328125 210.02871704101562 C 210.52145385742188 190.09971618652344 202.6231231689453 183.02398681640625 175.91395568847656 211.4914093017578 C 204.72254943847656 201.41795349121094 211.40846252441406 181.65625 178.7034454345703 148.0798797607422 C 186.89791870117188 206.0254364013672 200.8894500732422 205.30767822265625 202.74119567871094 189.62030029296875 L 204.79090881347656 192.3565673828125" stroke-width="2.0" fill="rgb(214, 90, 15)" opacity="0.9712754"/>
    <path d="M 223.68109130859375 56.51662063598633 C 229.0288848876953 55.45836639404297 239.38143920898438 63.884220123291016 273.5819396972656 75.33790588378906 C 238.51295471191406 62.807735443115234 231.51841735839844 73.5652847290039 227.3379669189453 78.25774383544922 C 222.50050354003906 68.39693450927734 228.9329376220703 64.28459930419922 243.3875732421875 57.679100036621094 C 240.3694305419922 62.52414321899414 231.416015625 67.86710357666016 234.95712280273438 74.8517074584961 L 223.68109130859375 56.51662063598633" stroke-width="2.0" fill="rgb(255, 163, 48)" opacity="1.0"/>
    <path d="M 188.06039428710938 126.63897705078125 C 195.72962951660156 123.98976135253906 230.29356384277344 87.9867935180664 264.0766906738281 82.87378692626953 C 246.08506774902344 87.35462188720703 226.34754943847656 78.0711898803711 213.45388793945312 80.10134887695312 C 208.38282775878906 91.42163848876953 219.96336364746094 108.19012451171875 227.33567810058594 166.0436553955078 C 254.892578125 147.9402313232422 277.9185791015625 132.58868408203125 257.2810974121094 102.11109161376953 L 188.06039428710938 126.63897705078125" stroke-width="2.0" fill="rgb(9, 7, 25)" opacity="0.27244493"/>
    <path d="M 119.13552856445312 204.22113037109375 C 135.19869995117188 213.77883911132812 138.8065948486328 208.79527282714844 143.60018920898438 211.47412109375 C 112.98967742919922 216.55532836914062 110.01344299316406 212.21905517578125 114.54391479492188 204.7122344970703 C 123.21592712402344 196.3358154296875 123.00897979736328 191.36029052734375 112.75813293457031 173.4151153564453 C 148.56715393066406 193.29644775390625 149.12518310546875 195.44700622558594 132.22579956054688 202.77197265625 L 119.13552856445312 204.22113037109375" stroke-width="2.0" fill="rgb(250, 152, 18)" opacity="0.99198186"/>
    <path d="M 141.7497100830078 44.32476043701172 C 183.63658142089844 33.54058074951172 199.01988220214844 64.98116302490234 222.57284545898438 62.21323776245117 C 188.8435516357422 65.50737762451172 168.20970153808594 66.09054565429688 155.5127716064453 61.16289520263672 C 165.29998779296875 31.647682189941406 183.2659454345703 21.92991828918457 183.68118286132812 5.394063949584961 C 205.1106414794922 2.072050094604492 229.41964721679688 17.612018585205078 220.1166229248047 84.80728149414062 L 141.7497100830078 44.32476043701172" stroke-width="2.0" fill="rgb(80, 45, 36)" opacity="0.44285098"/>
    <path d="M 77.56478118896484 154.0601348876953 C 102.56739807128906 146.3883819580078 112.6014633178711 170.99200439453125 91.02519989013672 190.2523956298828 C 97.82501983642578 158.9036865234375 79.82673645019531 148.71141052246094 49.49005889892578 140.28170776367188 C 89.74720001220703 100.08513641357422 109.59539794921875 115.378662109375 110.79838562011719 164.15194702148438 C 123.01194763183594 154.68531799316406 132.43414306640625 159.356689453125 113.65155029296875 209.60293579101562 L 77.56478118896484 154.0601348876953" stroke-width="2.0" fill="rgb(7, 10, 20)" opacity="0.92359006"/>
    <path d="M 212.52122497558594 183.81935119628906 C 258.80303955078125 191.95953369140625 268.5954895019531 220.87210083007812 219.04208374023438 266.21929931640625 C 199.74497985839844 255.0517578125 190.84637451171875 252.60360717773438 156.6385040283203 215.29925537109375 C 184.83865356445312 214.79965209960938 218.2722930908203 215.76190185546875 225.24969482421875 214.51358032226562 C 229.56947326660156 197.26821899414062 257.63916015625 201.31591796875 270.88555908203125 213.71580505371094 L 212.52122497558594 183.81935119628906" stroke-width="2.0" fill="rgb(3, 15, 26)" opacity="0.9914574"/>
    <path d="M 20.946121215820312 147.10748291015625 C 20.105127334594727 190.61834716796875 32.3473014831543 220.26620483398438 64.5094985961914 215.02268981933594 C 12.697724342346191 204.2657012939453 -11.648932456970215 220.228515625 -37.5583381652832 194.90945434570312 C 19.232135772705078 212.008056640625 33.2584342956543 188.63998413085938 54.206138610839844 186.01661682128906 C 59.79185104370117 192.36927795410156 65.08536529541016 201.6499786376953 72.40808868408203 207.42308044433594 L 20.946121215820312 147.10748291015625" stroke-width="2.0" fill="rgb(141, 106, 76)" opacity="0.5219917"/>
    <path d="M 194.6525421142578 182.38328552246094 C 204.46983337402344 183.5719757080078 205.903564453125 186.28553771972656 203.98019409179688 205.21017456054688 C 195.51242065429688 203.33306884765625 195.42308044433594 196.24581909179688 195.71023559570312 188.55783081054688 C 190.84719848632812 182.59498596191406 189.66531372070312 179.63160705566406 205.09051513671875 163.63824462890625 C 204.85826110839844 188.91610717773438 205.83221435546875 206.19351196289062 197.95701599121094 207.11976623535156 L 194.6525421142578 182.38328552246094" stroke-width="2.0" fill="rgb(220, 98, 19)" opacity="0.8682439"/>
    <path d="M 100.5809555053711 190.87767028808594 C 125.48163604736328 172.89500427246094 127.89688110351562 176.59487915039062 89.93805694580078 210.0236358642578 C 93.67640686035156 179.4573974609375 83.67146301269531 176.23175048828125 70.2358169555664 194.4091339111328 C 56.10426330566406 131.66281127929688 88.94115447998047 121.85468292236328 113.6927490234375 171.6750946044922 C 108.7425308227539 143.89181518554688 184.83155822753906 125.787109375 196.60140991210938 164.00213623046875 L 100.5809555053711 190.87767028808594" stroke-width="2.0" fill="rgb(13, 13, 20)" opacity="0.98818934"/>
    <path d="M 58.559200286865234 121.89402770996094 C 55.53352355957031 127.04513549804688 43.43867492675781 121.86785125732422 31.440345764160156 146.95941162109375 C 43.66925048828125 139.63449096679688 24.44049644470215 98.86661529541016 -2.864609956741333 88.07817077636719 C 12.78874397277832 121.9229507446289 36.35129928588867 121.13875579833984 51.31541442871094 93.88288879394531 C 46.354366302490234 100.73036193847656 41.83300018310547 111.08076477050781 31.216867446899414 108.58709716796875 L 58.559200286865234 121.89402770996094" stroke-width="2.0" fill="rgb(238, 251, 214)" opacity="0.98395956"/>
    <path d="M 60.972900390625 40.91780090332031 C 111.22267150878906 62.2611083984375 107.61261749267578 77.95884704589844 23.753376007080078 73.69465637207031 C 26.719648361206055 54.005279541015625 15.236804008483887 38.29085159301758 -13.969965934753418 30.642763137817383 C -10.169905662536621 -16.97002410888672 11.708168029785156 -19.123836517333984 190.48886108398438 -13.69096851348877 C 114.25208282470703 4.111543655395508 82.00800323486328 36.45597839355469 54.252479553222656 33.85319900512695 L 60.972900390625 40.91780090332031" stroke-width="2.0" fill="rgb(242, 166, 83)" opacity="0.9862574"/>
    <path d="M 43.13185501098633 19.012664794921875 C 51.465354919433594 45.27203369140625 43.97156524658203 57.91653823852539 0.6831299066543579 81.51818084716797 C -37.77527618408203 50.418521881103516 -28.294052124023438 33.766387939453125 -9.995563507080078 5.732131481170654 C -5.9192023277282715 -7.419983386993408 2.876805067062378 -9.437411308288574 9.389459609985352 -2.7328243255615234 C 17.595417022705078 -23.975473403930664 45.705299377441406 -25.057931900024414 96.14054870605469 6.268617630004883 L 43.13185501098633 19.012664794921875" stroke-width="2.0" fill="rgb(249, 172, 83)" opacity="0.9532175"/>
    <path d="M 54.33892822265625 208.80079650878906 C 107.14761352539062 208.56446838378906 114.36595916748047 235.87271118164062 144.23695373535156 283.2673645019531 C 111.6466064453125 249.6015625 87.87896728515625 237.81407165527344 87.46887969970703 217.27694702148438 C 85.22612762451172 213.42494201660156 112.00410461425781 196.57606506347656 117.92916107177734 192.5430450439453 C 104.1579360961914 211.15966796875 109.57489776611328 253.26904296875 5.324417591094971 265.19970703125 L 54.33892822265625 208.80079650878906" stroke-width="2.0" fill="rgb(0, 3, 19)" opacity="0.49468356"/>
    <path d="M 185.93858337402344 62.33920669555664 C 152.65980529785156 43.72165298461914 148.96273803710938 47.56180191040039 94.63410949707031 93.32945251464844 C 62.04798126220703 44.56544494628906 65.50860595703125 34.48595428466797 104.75127410888672 46.98101043701172 C 111.35281372070312 53.532806396484375 132.7484893798828 32.65839767456055 146.478515625 28.828611373901367 C 155.5490264892578 41.068572998046875 144.43788146972656 52.14488983154297 147.6947784423828 92.5526351928711 L 185.93858337402344 62.33920669555664" stroke-width="2.0" fill="rgb(255, 159, 70)" opacity="0.9249152"/>
    <path d="M 244.8585662841797 200.41175842285156 C 256.2709045410156 213.81387329101562 256.60552978515625 237.15419006347656 170.58428955078125 256.5838623046875 C 166.4840545654297 227.44520568847656 171.8148956298828 207.07855224609375 203.98802185058594 199.63272094726562 C 208.1309051513672 168.8897705078125 226.17303466796875 163.45159912109375 255.8153533935547 176.5112762451172 C 254.90989685058594 190.9532928466797 248.1260528564453 204.7278289794922 245.9145050048828 214.59732055664062 L 244.8585662841797 200.41175842285156" stroke-width="2.0" fill="rgb(36, 18, 21)" opacity="0.62720674"/>
    <path d="M 226.7353515625 238.6515350341797 C 251.1028594970703 221.87400817871094 258.1041564941406 231.0115509033203 255.27169799804688 250.54656982421875 C 214.43545532226562 238.23358154296875 196.00534057617188 239.30735778808594 187.41543579101562 251.03460693359375 C 217.20950317382812 242.62112426757812 225.06028747558594 240.92391967773438 238.45179748535156 232.23695373535156 C 249.16966247558594 222.34591674804688 266.5445861816406 237.3415069580078 244.30514526367188 272.0924987792969 L 226.7353515625 238.6515350341797" stroke-width="2.0" fill="rgb(118, 10, 29)" opacity="0.69869953"/>
    <path d="M 84.88749694824219 59.871864318847656 C 76.6858139038086 26.85479164123535 52.40286636352539 37.11140060424805 50.508140563964844 38.26576614379883 C 23.03221893310547 15.302202224731445 32.26293182373047 -28.096153259277344 22.090059280395508 -36.573123931884766 C 43.36454391479492 -5.551431179046631 53.83366012573242 0.5361657738685608 79.5937728881836 -27.038768768310547 C 71.93571472167969 -47.68111038208008 77.776123046875 -51.560302734375 147.0359649658203 17.173044204711914 L 84.88749694824219 59.871864318847656" stroke-width="2.0" fill="rgb(252, 168, 77)" opacity="0.9172724"/>
    <path d="M 171.47483825683594 185.64590454101562 C 183.27267456054688 166.1118621826172 190.94061279296875 167.52169799804688 188.4620819091797 189.55792236328125 C 150.69065856933594 196.22930908203125 148.86111450195312 194.4744110107422 145.32186889648438 180.73855590820312 C 164.0115966796875 170.11636352539062 176.51902770996094 170.63719177246094 195.17945861816406 149.5997772216797 C 201.63754272460938 160.2781982421875 193.5732421875 166.5608673095703 195.45623779296875 170.39283752441406 L 171.47483825683594 185.64590454101562" stroke-width="2.0" fill="rgb(237, 112, 22)" opacity="0.923046"/>
    <path d="M 80.9071273803711 10.628386497497559 C 85.73799133300781 44.16688537597656 105.1397705078125 59.197994232177734 102.19230651855469 76.17317962646484 C 44.187339782714844 66.8924789428711 19.858070373535156 66.12580871582031 10.051261901855469 35.03835678100586 C 43.86491775512695 25.110511779785156 61.010318756103516 44.140098571777344 73.94944763183594 45.230133056640625 C 56.261661529541016 -23.584625244140625 110.2169418334961 -37.643795013427734 137.05780029296875 63.44208526611328 L 80.9071273803711 10.628386497497559" stroke-width="2.0" fill="rgb(248, 164, 76)" opacity="0.6942758"/>
    <path d="M 195.8779296875 33.194854736328125 C 183.7314453125 46.46110916137695 176.39039611816406 49.93626022338867 164.22706604003906 41.85844802856445 C 171.0329132080078 42.7826042175293 171.9283905029297 47.37963104248047 166.6326904296875 57.35145950317383 C 166.47178649902344 47.077430725097656 169.1783447265625 39.880592346191406 176.62161254882812 40.58405303955078 C 188.34510803222656 28.289535522460938 212.05567932128906 34.662662506103516 214.06333923339844 53.245243072509766 L 195.8779296875 33.194854736328125" stroke-width="2.0" fill="rgb(247, 137, 41)" opacity="0.98428905"/>
    <path d="M 70.79905700683594 165.84033203125 C 68.67054748535156 182.72547912597656 68.22116088867188 198.32432556152344 80.71898651123047 213.513427734375 C 59.21205139160156 202.91368103027344 60.689212799072266 187.51124572753906 38.346595764160156 171.93173217773438 C 45.146488189697266 189.8439483642578 73.74974822998047 188.2595977783203 109.25738525390625 154.7022705078125 C 68.37236022949219 184.08705139160156 69.05436706542969 186.22157287597656 56.328468322753906 198.7626953125 L 70.79905700683594 165.84033203125" stroke-width="2.0" fill="rgb(91, 44, 22)" opacity="1.0"/>
    <path d="M 69.94705963134766 138.8759002685547 C 65.33082580566406 142.57608032226562 59.795127868652344 163.73138427734375 55.4517936706543 166.45362854003906 C 39.970306396484375 167.7080078125 35.68088912963867 157.37124633789062 28.800212860107422 160.80043029785156 C 41.190555572509766 139.8254852294922 59.17554473876953 151.89968872070312 64.63499450683594 135.51220703125 C 72.14213562011719 145.09963989257812 91.1381607055664 141.78016662597656 94.49683380126953 154.04034423828125 L 69.94705963134766 138.8759002685547" stroke-width="2.0" fill="rgb(255, 137, 57)" opacity="1.0"/>
    <path d="M 112.78515625 88.52893829345703 C 124.9406967163086 115.93659973144531 126.67301177978516 149.08522033691406 140.58937072753906 164.9308624267578 C 93.38838195800781 147.99966430664062 94.24275970458984 128.19757080078125 68.85839080810547 120.17802429199219 C 80.34236907958984 107.49887084960938 101.83201599121094 94.13248443603516 125.3349838256836 109.67106628417969 C 121.16912078857422 117.00237274169922 127.15251159667969 131.14317321777344 100.34934997558594 149.85362243652344 L 112.78515625 88.52893829345703" stroke-width="2.0" fill="rgb(11, 12, 21)" opacity="1.0"/>
    <path d="M 202.47938537597656 124.57906341552734 C 208.03724670410156 132.7157745361328 203.24778747558594 136.17588806152344 197.32940673828125 141.43679809570312 C 192.90220642089844 105.27346801757812 144.66635131835938 135.4815673828125 178.09869384765625 76.42793273925781 C 198.59947204589844 116.27598571777344 202.34506225585938 115.64497375488281 199.2980499267578 94.95670318603516 C 198.69873046875 112.82854461669922 206.8272705078125 123.87667846679688 201.39979553222656 129.51881408691406 L 202.47938537597656 124.57906341552734" stroke-width="2.0" fill="rgb(244, 138, 53)" opacity="0.9819081"/>
    <path d="M 122.24205017089844 109.99609375 C 137.5085906982422 112.61003875732422 141.201904296875 120.731201171875 120.94769287109375 141.52090454101562 C 68.5824203491211 127.72465515136719 64.15955352783203 122.66193389892578 88.39000701904297 97.23336791992188 C 78.4281234741211 62.459224700927734 92.62207794189453 53.251312255859375 122.244384765625 86.03463745117188 C 123.21329498291016 92.41461944580078 121.260498046875 105.15155792236328 139.8077850341797 112.20674896240234 L 122.24205017089844 109.99609375" stroke-width="2.0" fill="rgb(7, 9, 17)" opacity="0.98814183"/>
    <path d="M 14.00394058227539 152.0963134765625 C 9.834100723266602 160.30914306640625 16.982879638671875 171.54261779785156 19.567113876342773 176.36044311523438 C -16.33437156677246 163.92633056640625 -16.56105613708496 139.00050354003906 -46.27900695800781 129.00570678710938 C -25.988325119018555 100.95401763916016 -15.103675842285156 92.18627166748047 2.964162588119507 84.3150405883789 C 52.04438781738281 64.21984100341797 72.34996795654297 110.48746490478516 24.756406784057617 145.8775177001953 L 14.00394058227539 152.0963134765625" stroke-width="2.0" fill="rgb(232, 159, 82)" opacity="0.84400684"/>
    <path d="M 153.74072265625 31.578210830688477 C 135.94300842285156 122.3388671875 124.16167449951172 120.49649047851562 124.9176254272461 77.60687255859375 C 116.18558502197266 85.1666030883789 106.9084701538086 76.42164611816406 85.89797973632812 56.118282318115234 C 95.12921142578125 66.80645751953125 105.9375 70.53176879882812 110.44343566894531 73.67391967773438 C 116.71546173095703 78.7607650756836 116.95569610595703 88.10590362548828 123.65999603271484 89.37946319580078 L 153.74072265625 31.578210830688477" stroke-width="2.0" fill="rgb(254, 153, 61)" opacity="0.9814353"/>
    <path d="M 118.6624984741211 143.19590759277344 C 87.62060546875 160.09967041015625 89.93079376220703 171.81349182128906 87.36929321289062 208.3970947265625 C 98.38956451416016 198.09031677246094 82.31707000732422 162.1084442138672 87.59925079345703 121.78883361816406 C 94.96318817138672 141.1165771484375 96.26959228515625 158.48843383789062 100.4217758178711 169.73487854003906 C 93.8631362915039 151.58656311035156 111.97541809082031 143.47799682617188 147.06387329101562 137.5467071533203 L 118.6624984741211 143.19590759277344" stroke-width="2.0" fill="rgb(255, 255, 30)" opacity="0.047113918"/>
    <path d="M 75.37860107421875 144.32627868652344 C 70.18964385986328 148.5741729736328 81.07726287841797 213.41929626464844 82.83647155761719 216.2178192138672 C 48.78361511230469 212.43048095703125 50.27660369873047 183.21485900878906 34.75861740112305 163.5283966064453 C 27.12795066833496 136.08602905273438 69.88180541992188 123.36910247802734 109.31184387207031 126.78680419921875 C 128.6618194580078 125.54586029052734 135.32949829101562 138.2668914794922 96.59998321533203 171.8878936767578 L 75.37860107421875 144.32627868652344" stroke-width="2.0" fill="rgb(10, 11, 20)" opacity="0.88963187"/>
    <path d="M 202.37551879882812 -3.562328577041626 C 225.3240966796875 25.124889373779297 212.1732940673828 39.67687225341797 196.38943481445312 28.528661727905273 C 196.24717712402344 20.188940048217773 217.671630859375 17.412822723388672 213.1107635498047 -21.013500213623047 C 201.96441650390625 0.7208643555641174 209.7133026123047 17.117416381835938 248.41461181640625 13.149080276489258 C 243.738525390625 24.384586334228516 216.48118591308594 32.36418533325195 198.9011688232422 33.383487701416016 L 202.37551879882812 -3.562328577041626" stroke-width="2.0" fill="rgb(255, 163, 49)" opacity="0.95477206"/>
    <path d="M 213.23104858398438 187.7351837158203 C 251.50318908691406 185.98365783691406 267.6017761230469 231.08926391601562 226.48895263671875 250.32029724121094 C 222.16265869140625 243.06277465820312 223.7227020263672 196.54144287109375 201.8604278564453 195.61514282226562 C 221.18527221679688 179.9069366455078 236.6193389892578 186.17698669433594 243.7305908203125 203.32363891601562 C 247.3308563232422 188.2869415283203 251.09817504882812 174.47409057617188 236.2714080810547 152.90614318847656 L 213.23104858398438 187.7351837158203" stroke-width="2.0" fill="rgb(23, 18, 24)" opacity="0.81001747"/>
    <path d="M 265.3164978027344 41.26405334472656 C 249.42897033691406 89.98567962646484 230.5421905517578 85.16938018798828 214.19618225097656 128.4794464111328 C 198.0550079345703 117.15898895263672 171.76663208007812 98.58784484863281 180.89877319335938 67.59164428710938 C 210.01792907714844 71.78559875488281 211.73345947265625 89.28246307373047 203.14120483398438 106.69989013671875 C 201.4033966064453 81.76416015625 216.57838439941406 79.46379852294922 241.1515655517578 75.52424621582031 L 265.3164978027344 41.26405334472656" stroke-width="2.0" fill="rgb(64, 38, 28)" opacity="0.9183173"/>
    <path d="M 151.22874450683594 18.84145164489746 C 187.0270538330078 8.8106107711792 190.59808349609375 14.973050117492676 165.7738800048828 66.85022735595703 C 163.8877410888672 40.62503433227539 123.84803771972656 41.096031188964844 119.4135513305664 -5.080001354217529 C 156.9259490966797 -18.518131256103516 168.21011352539062 -8.572365760803223 179.86343383789062 -1.423046588897705 C 204.5269012451172 -36.48049545288086 232.9409942626953 -30.853914260864258 248.35791015625 27.17189598083496 L 151.22874450683594 18.84145164489746" stroke-width="2.0" fill="rgb(62, 37, 29)" opacity="0.99592227"/>
    <path d="M 121.43324279785156 89.58734893798828 C 100.61701202392578 74.5107650756836 72.31150817871094 108.07867431640625 53.66423034667969 92.20832061767578 C 51.04706954956055 80.86557006835938 70.34983825683594 73.51930236816406 78.2352066040039 83.5455551147461 C 81.26139831542969 80.6651611328125 88.27509307861328 58.891136169433594 90.33900451660156 58.29176330566406 C 101.92158508300781 66.19632720947266 103.1814956665039 71.12742614746094 119.49526977539062 69.6793441772461 L 121.43324279785156 89.58734893798828" stroke-width="2.0" fill="rgb(2, 3, 10)" opacity="0.9476736"/>
    <path d="M 203.10877990722656 21.75632667541504 C 218.7079315185547 50.77949142456055 233.1215362548828 63.669578552246094 221.06671142578125 99.96420288085938 C 148.39163208007812 65.75196075439453 154.519775390625 42.5499267578125 201.26229858398438 45.16075134277344 C 181.07644653320312 43.885013580322266 179.05735778808594 39.86586380004883 210.64138793945312 21.869131088256836 C 245.44761657714844 -25.578054428100586 267.9566345214844 -9.638092041015625 237.22488403320312 85.17989349365234 L 203.10877990722656 21.75632667541504" stroke-width="2.0" fill="rgb(61, 36, 29)" opacity="0.99898994"/>
    <path d="M 122.0748519897461 184.69419860839844 C 127.31121826171875 189.6600341796875 132.61068725585938 196.2058868408203 131.00491333007812 202.37814331054688 C 123.47216033935547 206.50848388671875 115.53169250488281 200.754638671875 126.18115997314453 179.7807159423828 C 129.94082641601562 180.78578186035156 148.748779296875 178.95887756347656 174.72377014160156 172.48240661621094 C 137.13694763183594 177.5841827392578 136.3824462890625 180.32443237304688 138.7611541748047 212.6669158935547 L 122.0748519897461 184.69419860839844" stroke-width="2.0" fill="rgb(249, 156, 25)" opacity="0.9906655"/>
    <path d="M 15.00373363494873 102.55490112304688 C 25.15569496154785 106.11978912353516 23.63888931274414 111.33307647705078 14.978446960449219 117.85785675048828 C -0.661256730556488 103.68294525146484 -1.8538118600845337 93.46477508544922 -20.518091201782227 69.87318420410156 C 18.979644775390625 53.688987731933594 22.91956901550293 61.692169189453125 9.82376480102539 85.84822082519531 C 52.65571975708008 49.58369064331055 66.25357055664062 62.22969055175781 40.60873794555664 115.67893981933594 L 15.00373363494873 102.55490112304688" stroke-width="2.0" fill="rgb(234, 161, 80)" opacity="1.0"/>
    <path d="M 20.531002044677734 172.720703125 C 38.399600982666016 184.88101196289062 42.24165725708008 201.20901489257812 58.60063934326172 213.13299560546875 C 39.84982681274414 209.61672973632812 26.06863021850586 179.36439514160156 -1.4845234155654907 175.86639404296875 C 16.012712478637695 144.8036346435547 39.949920654296875 158.1829833984375 39.82419204711914 176.11166381835938 C 53.86033248901367 183.72625732421875 47.16665267944336 198.51034545898438 66.10600280761719 220.24864196777344 L 20.531002044677734 172.720703125" stroke-width="2.0" fill="rgb(226, 97, 14)" opacity="0.8895462"/>
    <path d="M 196.17237854003906 195.9117889404297 C 159.39910888671875 187.84922790527344 145.16336059570312 183.5594482421875 129.80328369140625 215.58938598632812 C 116.73332977294922 211.69793701171875 117.95178985595703 206.70193481445312 139.0791473388672 208.35975646972656 C 136.01602172851562 197.58009338378906 152.53082275390625 190.55120849609375 153.43893432617188 183.83790588378906 C 161.24609375 176.74391174316406 167.24888610839844 179.57131958007812 150.1797332763672 222.3035888671875 L 196.17237854003906 195.9117889404297" stroke-width="2.0" fill="rgb(215, 97, 16)" opacity="0.8949073"/>
    <path d="M 162.8977508544922 159.7368621826172 C 158.94876098632812 160.54217529296875 159.1436309814453 164.7813720703125 146.08546447753906 168.34068298339844 C 128.36439514160156 177.1351318359375 125.32487487792969 172.1415252685547 132.9697723388672 155.41197204589844 C 133.0216827392578 136.24627685546875 135.1190643310547 135.67298889160156 147.46444702148438 147.31985473632812 C 152.02359008789062 115.86947631835938 178.37123107910156 119.5407943725586 175.90542602539062 140.87196350097656 L 162.8977508544922 159.7368621826172" stroke-width="2.0" fill="rgb(244, 138, 48)" opacity="1.0"/>
    <path d="M 89.10230255126953 289.93206787109375 C 94.42172241210938 237.98606872558594 113.33749389648438 236.0843963623047 132.9167022705078 267.52850341796875 C 68.22229766845703 263.6418151855469 63.020565032958984 245.9899139404297 82.23757934570312 234.53273010253906 C 88.65553283691406 203.8024139404297 97.47515869140625 201.095947265625 106.20132446289062 206.1529541015625 C 119.60382080078125 219.32826232910156 173.3358154296875 197.7462158203125 191.82017517089844 230.99468994140625 L 89.10230255126953 289.93206787109375" stroke-width="2.0" fill="rgb(16, 13, 22)" opacity="0.72441137"/>
    <path d="M 26.88247299194336 171.34739685058594 C 44.00499725341797 203.05865478515625 57.8676643371582 204.6123046875 65.2433090209961 219.56748962402344 C 27.913639068603516 219.31996154785156 22.476280212402344 212.712158203125 25.939090728759766 202.14273071289062 C 35.01057815551758 200.7438201904297 40.866844177246094 216.7818603515625 59.42958450317383 209.55743408203125 C 39.16185760498047 191.15870666503906 38.88314437866211 188.13719177246094 32.813720703125 181.2186737060547 L 26.88247299194336 171.34739685058594" stroke-width="2.0" fill="rgb(14, 11, 22)" opacity="0.88395464"/>
    <path d="M 21.549312591552734 157.5599365234375 C 17.95074462890625 140.12364196777344 27.538087844848633 135.44374084472656 36.07296371459961 135.02403259277344 C 25.93817901611328 134.74423217773438 17.402114868164062 116.48450469970703 -33.05382537841797 95.38157653808594 C 31.758760452270508 83.81309509277344 38.96839141845703 103.69447326660156 62.613609313964844 118.49769592285156 C 44.24494171142578 124.34858703613281 28.52692985534668 130.3381805419922 35.706459045410156 167.069580078125 L 21.549312591552734 157.5599365234375" stroke-width="2.0" fill="rgb(225, 153, 77)" opacity="0.9314632"/>
    <path d="M 100.16780853271484 107.37625122070312 C 103.72257232666016 138.9258575439453 92.26930236816406 144.4314727783203 83.23385620117188 139.33428955078125 C 45.226112365722656 105.51810455322266 46.39453125 101.76520538330078 49.09835433959961 91.10228729248047 C 53.17120361328125 104.97139739990234 60.63561248779297 103.44745635986328 108.81009674072266 100.13055419921875 C 90.50504302978516 117.7715835571289 101.69876861572266 142.25662231445312 120.73534393310547 147.8915557861328 L 100.16780853271484 107.37625122070312" stroke-width="2.0" fill="rgb(13, 13, 21)" opacity="1.0"/>
    <path d="M 161.3422088623047 172.7156982421875 C 164.50389099121094 182.6209716796875 161.11273193359375 193.0423126220703 156.33560180664062 198.04513549804688 C 142.42825317382812 208.6344757080078 134.1843719482422 199.62973022460938 121.6740493774414 203.83290100097656 C 144.34957885742188 191.40357971191406 159.64566040039062 193.9440155029297 163.57308959960938 188.57640075683594 C 171.13912963867188 193.53616333007812 161.56939697265625 209.4365234375 131.91648864746094 209.88316345214844 L 161.3422088623047 172.7156982421875" stroke-width="2.0" fill="rgb(250, 157, 23)" opacity="1.0"/>
    <path d="M 47.18861389160156 63.12894058227539 C 88.00878143310547 37.09712219238281 97.90237426757812 45.72511672973633 76.76983642578125 81.6326904296875 C 21.02872085571289 98.1275634765625 12.312825202941895 89.09736633300781 30.308744430541992 59.484798431396484 C 36.711944580078125 57.563446044921875 45.24336242675781 81.55396270751953 53.13324737548828 84.6447525024414 C 79.02396392822266 64.9549331665039 85.13008117675781 69.85903930664062 82.5935287475586 77.50008392333984 L 47.18861389160156 63.12894058227539" stroke-width="2.0" fill="rgb(247, 149, 62)" opacity="0.28038475"/>
    <path d="M 41.33559036254883 170.48489379882812 C 61.28194808959961 172.59912109375 72.32872772216797 176.0076446533203 76.65512084960938 184.49575805664062 C 10.627294540405273 161.5063018798828 11.548741340637207 149.7464141845703 37.219322204589844 119.19497680664062 C 77.99583435058594 111.02565002441406 95.25299835205078 142.27503967285156 -14.122298240661621 166.93203735351562 C 58.414127349853516 169.8813934326172 70.80195617675781 173.08152770996094 76.60294342041016 185.07666015625 L 41.33559036254883 170.48489379882812" stroke-width="2.0" fill="rgb(226, 123, 40)" opacity="0.2766423"/>
    <path d="M 210.79641723632812 49.03030776977539 C 237.04588317871094 88.40597534179688 244.3285675048828 103.33766174316406 201.44793701171875 128.9059295654297 C 206.32765197753906 94.21312713623047 215.31288146972656 75.14356994628906 199.56631469726562 55.01909637451172 C 227.82334899902344 83.30175018310547 238.71859741210938 74.59336853027344 242.0350341796875 31.46863555908203 C 250.71682739257812 34.505615234375 266.72662353515625 68.87945556640625 245.61563110351562 98.02864074707031 L 210.79641723632812 49.03030776977539" stroke-width="2.0" fill="rgb(12, 7, 18)" opacity="0.22121726"/>
    <path d="M 125.5543212890625 -29.863588333129883 C 143.6287078857422 -9.799120903015137 144.33648681640625 22.769227981567383 151.09031677246094 47.776424407958984 C 125.36322021484375 23.584413528442383 118.377197265625 18.53413963317871 120.17913818359375 -0.8541790843009949 C 145.8869171142578 -3.681663751602173 152.69711303710938 -8.580081939697266 155.5748748779297 -9.268588066101074 C 162.36868286132812 -7.047601222991943 164.66842651367188 -3.8874013423919678 175.370361328125 -4.473940372467041 L 125.5543212890625 -29.863588333129883" stroke-width="2.0" fill="rgb(62, 37, 29)" opacity="0.9539896"/>
    <path d="M 91.98441314697266 122.51188659667969 C 132.2493133544922 143.11834716796875 124.38137817382812 168.8788299560547 121.19384002685547 192.01022338867188 C 97.01178741455078 172.70394897460938 105.4716796875 145.08929443359375 96.017822265625 139.9372100830078 C 92.69304656982422 122.36001586914062 96.67565155029297 104.0047836303711 131.40066528320312 74.56261444091797 C 132.59970092773438 150.94149780273438 120.95414733886719 187.24972534179688 113.47570037841797 192.22596740722656 L 91.98441314697266 122.51188659667969" stroke-width="2.0" fill="rgb(44, 41, 55)" opacity="0.09657763"/>
    <path d="M 151.9550018310547 6.335780143737793 C 149.53012084960938 15.94469165802002 145.88906860351562 22.1524658203125 140.08514404296875 21.446557998657227 C 120.58679962158203 37.69538879394531 118.9638900756836 35.81705856323242 120.2737808227539 32.520477294921875 C 117.85301971435547 -25.40134620666504 133.5126190185547 -33.23430252075195 146.59974670410156 -21.624547958374023 C 183.9401092529297 -4.137684345245361 176.1752471923828 36.93952941894531 141.56910705566406 51.69241714477539 L 151.9550018310547 6.335780143737793" stroke-width="2.0" fill="rgb(62, 37, 29)" opacity="0.9957407"/>
    <path d="M 119.36228942871094 49.86686706542969 C 144.62881469726562 63.31264877319336 143.7743682861328 68.85973358154297 101.66183471679688 68.10366821289062 C 119.46419525146484 68.4482192993164 126.52774810791016 90.21599578857422 140.04928588867188 129.3786163330078 C 174.42831420898438 57.13312911987305 161.6517333984375 48.109832763671875 134.01864624023438 56.63528060913086 C 148.23092651367188 38.21528625488281 152.9088592529297 39.48336410522461 151.25039672851562 56.8051872253418 L 119.36228942871094 49.86686706542969" stroke-width="2.0" fill="rgb(249, 148, 61)" opacity="0.90091145"/>
    <path d="M 26.4127254486084 147.60560607910156 C 34.75796890258789 198.0287628173828 31.74135398864746 206.30690002441406 -1.6323248147964478 200.0044403076172 C -3.162543296813965 177.3349609375 -40.29636001586914 171.46884155273438 -47.82141876220703 150.66786193847656 C -24.24020767211914 141.1795654296875 -8.071540832519531 139.23597717285156 0.18930703401565552 140.1422882080078 C 9.949615478515625 156.17263793945312 12.769857406616211 158.66810607910156 14.381976127624512 161.60824584960938 L 26.4127254486084 147.60560607910156" stroke-width="2.0" fill="rgb(168, 121, 74)" opacity="0.79098547"/>
    <path d="M 84.08899688720703 209.6680908203125 C 90.76780700683594 192.7459259033203 101.14820098876953 190.9351043701172 109.052001953125 199.166015625 C 92.48310089111328 211.72061157226562 77.4819564819336 193.1741943359375 48.902076721191406 166.7570037841797 C 73.18353271484375 178.27810668945312 75.25214385986328 204.382568359375 89.79570770263672 214.07003784179688 C 83.39803314208984 180.3375244140625 119.5710678100586 204.3450927734375 140.871826171875 177.49757385253906 L 84.08899688720703 209.6680908203125" stroke-width="2.0" fill="rgb(255, 190, 43)" opacity="0.0896471"/>
    <path d="M 64.989501953125 77.94953918457031 C 53.769737243652344 79.4078140258789 52.32651138305664 89.51427459716797 49.771114349365234 99.99800109863281 C 57.07041549682617 92.1054916381836 57.389217376708984 89.25641632080078 39.933563232421875 66.27469635009766 C 59.55206298828125 66.84226989746094 76.96318817138672 79.90694427490234 81.46870422363281 63.641178131103516 C 80.7366943359375 67.30496215820312 74.35257720947266 77.89060974121094 42.396968841552734 81.02623748779297 L 64.989501953125 77.94953918457031" stroke-width="2.0" fill="rgb(2, 0, 5)" opacity="0.88177794"/>
  </g>
</svg>
